<?xml version="1.0" standalone="no"?>
<!DOCTYPE svg PUBLIC "-//W3C//DTD SVG 20010904//EN"
 "http://www.w3.org/TR/2001/REC-SVG-20010904/DTD/svg10.dtd">
<svg version="1.0" xmlns="http://www.w3.org/2000/svg"
 width="3125.000000pt" height="1875.000000pt" viewBox="0 0 3125.000000 1875.000000"
 preserveAspectRatio="xMidYMid meet">

<g transform="translate(0.000000,1875.000000) scale(0.100000,-0.100000)"
fill="#000000" stroke="none">
<path d="M7431 12987 c-48 -19 -108 -72 -134 -120 l-22 -42 -3 -3425 c-2
-2439 1 -3440 9 -3478 22 -108 112 -182 221 -182 99 0 179 50 219 135 18 39
19 150 19 3490 l0 3450 -21 45 c-25 56 -53 86 -103 112 -48 25 -139 32 -185
15z"/>
<path d="M9381 12633 c18 -21 208 -221 422 -445 l390 -408 919 0 c620 0 918
-3 918 -10 0 -6 -70 -272 -155 -591 -85 -320 -155 -583 -155 -585 0 -2 -139
-4 -310 -4 -170 0 -310 1 -310 3 0 1 54 200 119 442 l118 440 -610 3 c-336 1
-612 0 -615 -2 -5 -6 -471 -1747 -472 -1763 0 -10 282 -13 1380 -13 l1380 0
192 150 192 149 319 1186 319 1186 -114 149 -113 150 -1924 0 -1923 0 33 -37z"/>
<path d="M13866 12653 c-25 -88 -786 -2932 -786 -2941 0 -9 146 -12 612 -10
l611 3 397 1475 c218 811 395 1478 393 1483 -2 4 -278 7 -613 7 -571 0 -609
-1 -614 -17z"/>
<path d="M15569 12520 l-196 -150 -313 -1172 c-172 -645 -314 -1181 -314
-1191 -1 -10 49 -83 109 -162 l110 -145 1230 0 1230 0 190 146 c109 83 193
156 198 169 4 12 77 279 161 591 l153 569 -765 3 c-421 1 -767 0 -769 -2 -5
-5 -73 -258 -73 -273 0 -10 37 -13 150 -13 114 0 150 -3 149 -12 0 -7 -17 -74
-37 -148 l-37 -135 -307 -3 c-170 -1 -308 1 -308 6 0 13 308 1161 315 1172 4
6 115 10 312 10 l305 0 -6 -22 c-3 -13 -21 -80 -40 -150 l-35 -128 614 0 614
0 10 38 c6 20 58 215 116 432 59 217 107 402 108 411 0 8 -50 81 -112 162
l-113 147 -1227 -1 -1226 0 -196 -149z"/>
<path d="M18895 12658 c-3 -7 -181 -668 -395 -1468 -215 -800 -393 -1463 -396
-1472 -5 -17 29 -18 610 -18 339 0 616 2 616 5 0 3 178 667 395 1476 217 809
395 1475 395 1480 0 5 -251 9 -610 9 -479 0 -612 -3 -615 -12z"/>
<path d="M20470 12666 c0 -2 -52 -198 -115 -435 -63 -237 -115 -435 -115 -441
0 -7 148 -10 455 -10 380 0 455 -2 455 -14 0 -7 -124 -474 -275 -1036 -151
-562 -275 -1024 -275 -1026 0 -2 276 -4 613 -4 l613 0 273 1018 c151 559 278
1027 282 1040 l9 22 457 0 458 0 118 438 c65 240 118 440 117 445 0 7 -3070
11 -3070 3z"/>
<path d="M24055 12529 c-99 -77 -186 -143 -192 -147 -7 -4 -174 -608 -371
-1342 l-359 -1335 610 -3 c336 -1 612 0 615 2 2 3 57 202 121 443 l118 438
306 3 c217 2 307 -1 307 -9 0 -6 -52 -201 -115 -434 -63 -233 -115 -429 -115
-434 0 -8 184 -10 612 -9 l612 3 358 1333 358 1334 -113 146 -114 147 -1229 2
-1229 2 -180 -140z m1471 -776 c-4 -16 -39 -149 -79 -298 l-73 -270 -307 -3
c-188 -1 -307 1 -307 7 0 12 151 574 157 584 2 4 142 7 309 7 l306 0 -6 -27z"/>
<path d="M27365 12658 c-2 -7 -180 -670 -395 -1473 -215 -803 -393 -1466 -395
-1472 -4 -10 276 -13 1378 -13 l1382 0 113 423 c62 232 115 432 118 445 l6 22
-766 0 c-421 0 -766 2 -766 5 0 3 121 457 270 1008 148 552 273 1018 276 1035
l7 32 -612 0 c-480 0 -613 -3 -616 -12z"/>
<path d="M6459 12610 c-49 -26 -96 -82 -109 -129 -7 -27 -9 -998 -8 -3132 l3
-3094 28 -47 c84 -144 291 -138 369 11 l28 53 0 3097 c0 2973 -1 3098 -19
3136 -19 43 -78 100 -118 116 -41 16 -135 10 -174 -11z"/>
<path d="M5570 12260 c-55 -10 -98 -37 -128 -82 l-27 -42 0 -2772 0 -2772 31
-39 c38 -48 105 -83 160 -83 56 0 122 37 159 89 l30 43 3 2740 c1 1889 -1
2752 -8 2779 -11 41 -58 102 -94 121 -31 17 -86 25 -126 18z"/>
<path d="M4597 11875 c-44 -15 -83 -48 -103 -87 -21 -40 -21 -4802 0 -4852 31
-74 134 -115 219 -87 45 15 93 68 106 118 16 55 15 4728 0 4788 -14 57 -67
110 -124 124 -53 13 -51 13 -98 -4z"/>
<path d="M3635 11516 c-40 -18 -73 -56 -85 -97 -6 -21 -10 -772 -10 -2059 l0
-2026 23 -44 c28 -56 74 -84 139 -84 54 0 89 21 126 74 l22 33 0 2056 0 2056
-24 36 c-42 62 -123 85 -191 55z"/>
<path d="M2672 11140 c-66 -41 -62 81 -62 -1777 0 -1667 0 -1688 20 -1721 25
-40 75 -72 115 -72 44 0 96 31 117 71 17 32 18 106 18 1729 0 1663 0 1696 -20
1727 -37 62 -124 82 -188 43z"/>
<path d="M1733 10780 c-17 -10 -37 -28 -42 -39 -8 -14 -11 -437 -11 -1376 l0
-1357 34 -34 c39 -39 86 -45 136 -19 64 33 60 -58 60 1410 0 1482 4 1386 -65
1419 -44 21 -73 20 -112 -4z"/>
<path d="M9406 8818 c31 -35 211 -224 398 -420 l340 -358 1457 0 1458 0 11 43
c7 23 56 207 111 408 54 201 99 371 99 377 0 9 -479 12 -1966 12 l-1966 0 58
-62z"/>
<path d="M13759 8739 l-184 -141 -332 -1237 c-183 -680 -335 -1248 -338 -1263
l-7 -28 581 0 580 0 14 48 c8 26 58 215 113 419 l99 373 293 0 292 0 -6 -27
c-4 -16 -55 -205 -114 -420 l-107 -393 584 0 c320 0 583 2 583 4 0 4 669 2498
674 2512 2 6 -44 74 -103 150 l-107 139 -1165 3 -1166 2 -184 -141z m1411
-706 c0 -8 -127 -487 -141 -530 l-11 -33 -289 0 c-192 0 -289 3 -289 10 0 10
135 519 145 548 3 9 71 12 295 12 159 0 290 -3 290 -7z"/>
<path d="M16910 8875 c0 -5 -729 -2727 -746 -2788 -5 -16 25 -17 577 -15 l583
3 111 415 111 415 292 3 c161 1 292 -1 292 -5 0 -5 -50 -190 -110 -412 -61
-222 -110 -408 -110 -413 0 -4 261 -8 580 -8 l579 0 15 53 c41 145 286 1056
286 1063 0 5 -47 70 -105 144 -58 74 -104 139 -102 143 1 5 83 70 182 145
l179 137 112 420 c62 231 109 425 106 431 -4 7 -52 71 -107 143 l-100 130
-1312 1 c-722 0 -1313 -2 -1313 -5z m1520 -846 c0 -6 -16 -69 -35 -140 -19
-71 -35 -132 -35 -134 0 -3 -130 -5 -290 -5 -260 0 -290 2 -290 16 0 16 40
173 61 242 l11 32 289 0 c205 0 289 -3 289 -11z"/>
<path d="M20270 8738 l-185 -141 -298 -1118 c-164 -615 -297 -1125 -295 -1133
1 -8 48 -74 103 -146 l100 -130 1171 0 1171 0 176 135 c97 74 178 138 181 143
2 4 71 253 152 552 80 300 149 550 151 557 4 10 -139 13 -726 13 l-730 0 -10
-37 c-6 -21 -22 -81 -36 -133 -14 -52 -25 -98 -25 -102 0 -5 66 -8 146 -8 113
0 145 -3 142 -12 -3 -7 -20 -70 -39 -140 l-33 -128 -294 0 c-275 0 -293 1
-288 18 4 15 262 980 287 1075 l10 37 291 0 291 0 -6 -32 c-3 -18 -19 -81 -35
-140 -16 -59 -27 -110 -24 -113 9 -8 1150 -6 1156 3 3 5 55 196 116 425 l111
416 -108 141 -108 140 -1165 0 -1165 -1 -185 -141z"/>
<path d="M23521 8737 l-185 -142 -298 -1115 c-163 -613 -298 -1121 -298 -1128
0 -7 46 -73 103 -147 l102 -134 1315 0 1315 -1 111 418 111 417 -875 3 c-692
2 -873 5 -869 15 3 6 20 69 38 139 l34 128 729 2 730 3 72 270 c40 149 73 273
74 278 0 4 -326 7 -725 7 -462 0 -725 4 -725 10 0 14 68 258 75 270 4 7 296
10 878 10 l872 0 77 293 c43 160 93 349 112 420 l34 127 -1311 0 -1312 -1
-184 -142z"/>
<path d="M26655 8868 c-2 -7 -53 -196 -113 -420 l-108 -408 433 0 c396 0 433
-1 433 -17 0 -12 -485 -1829 -516 -1936 -5 -16 25 -17 578 -15 l583 3 261 971
c144 535 264 977 268 983 5 8 132 11 439 11 l432 0 108 398 c59 218 110 407
114 420 l5 22 -1456 0 c-1156 0 -1458 -3 -1461 -12z"/>
<path d="M10719 6913 l-225 -838 579 -3 c319 -1 581 -1 583 0 1 2 102 374 224
828 122 453 224 830 227 837 4 11 -106 13 -579 13 l-583 0 -226 -837z"/>
</g>
</svg>
