<svg width="1938" height="208" viewBox="0 0 1938 208" fill="none" xmlns="http://www.w3.org/2000/svg">
<path d="M3.31799 26.0108C4.17299 27.1095 13.201 37.5735 23.369 49.2933L41.9 70.6397H85.566C115.027 70.6397 129.185 70.7971 129.185 71.1633C129.185 71.477 125.857 85.3939 121.82 102.084C117.783 118.827 114.455 132.587 114.455 132.691C114.455 132.796 107.85 132.901 99.725 132.901C91.648 132.901 84.996 132.848 84.996 132.744C84.996 132.691 87.562 122.28 90.65 109.619L96.257 86.5975L67.273 86.4407C51.308 86.3882 38.194 86.4407 38.051 86.5451C37.814 86.8594 15.672 177.949 15.624 178.786C15.624 179.309 29.023 179.466 81.194 179.466H146.765L155.889 171.618L165.013 163.822L180.168 101.771L195.324 39.7186L189.907 31.9229L184.541 24.0749H93.121H1.75L3.31799 26.0108Z" fill="black"/>
<path d="M216.422 24.9643C215.235 29.5685 179.076 178.367 179.076 178.838C179.076 179.309 186.011 179.466 208.154 179.362L237.184 179.204L256.051 102.032C266.408 59.6003 274.818 24.7027 274.723 24.4411C274.629 24.2318 261.515 24.0748 245.594 24.0748C218.464 24.0748 216.658 24.1272 216.422 24.9643Z" fill="black"/>
<path d="M297.339 31.9229L288.026 39.7709L273.154 101.09C264.98 134.837 258.235 162.881 258.235 163.404C258.187 163.927 260.565 167.746 263.416 171.88L268.639 179.466H327.083H385.526L394.555 171.827C399.731 167.485 403.726 163.665 403.962 162.985C404.151 162.357 407.621 148.388 411.611 132.064L418.881 102.294L382.533 102.137C362.528 102.084 346.091 102.137 345.996 102.241C345.755 102.503 342.527 115.74 342.527 116.525C342.527 117.048 344.285 117.205 349.655 117.205C355.068 117.205 356.779 117.362 356.732 117.833C356.732 118.199 355.924 121.704 354.973 125.576L353.215 132.64L338.631 132.796C330.552 132.848 323.996 132.744 323.996 132.482C323.996 131.802 338.631 71.7389 338.962 71.1633C339.151 70.849 344.427 70.6397 353.787 70.6397H368.281L367.992 71.7908C367.851 72.4713 366.995 75.9766 366.092 79.6388L364.428 86.3357H393.605H422.777L423.254 84.3477C423.538 83.3016 426.01 73.0988 428.766 61.7454C431.569 50.392 433.848 40.7127 433.895 40.2418C433.895 39.8233 431.522 36.0039 428.577 31.766L423.207 24.0749L364.905 24.1272H306.651L297.339 31.9229Z" fill="black"/>
<path d="M455.371 24.7028C455.23 25.069 446.772 59.6526 436.604 101.509C426.388 143.365 417.931 178.054 417.79 178.524C417.553 179.413 419.165 179.466 446.772 179.466C462.883 179.466 476.044 179.362 476.044 179.204C476.044 179.047 484.501 144.307 494.811 101.98C505.121 59.6526 513.578 24.8074 513.578 24.5458C513.578 24.2842 501.651 24.0749 484.595 24.0749C461.834 24.0749 455.518 24.2319 455.371 24.7028Z" fill="black"/>
<path d="M530.209 24.2842C530.209 24.3888 527.736 34.6436 524.744 47.0435C521.752 59.4433 519.279 69.8028 519.279 70.1166C519.279 70.4828 526.313 70.6397 540.902 70.6397C558.955 70.6397 562.52 70.7446 562.52 71.3721C562.52 71.7389 556.629 96.1723 549.453 125.576C542.277 154.98 536.387 179.152 536.387 179.257C536.387 179.362 549.501 179.466 565.512 179.466H594.637L607.608 126.204C614.784 96.9572 620.821 72.4713 621.01 71.7908L621.436 70.6397H643.15H664.91L670.52 47.7237C673.61 35.1668 676.13 24.7028 676.08 24.4412C676.08 24.0749 530.209 23.8656 530.209 24.2842Z" fill="black"/>
<path d="M700.55 31.4521C695.85 35.4807 691.71 38.9338 691.43 39.1431C691.09 39.3524 683.16 70.954 673.8 109.357L656.74 179.204L685.73 179.362C701.69 179.413 714.8 179.362 714.95 179.257C715.04 179.1 717.65 168.688 720.69 156.079L726.3 133.163L740.84 133.006C751.15 132.901 755.43 133.058 755.43 133.476C755.43 133.79 752.96 143.993 749.97 156.184C746.97 168.374 744.5 178.629 744.5 178.89C744.5 179.309 753.24 179.413 773.58 179.362L802.66 179.204L819.67 109.462L836.68 39.6663L831.31 32.0276L825.89 24.3365L767.5 24.2319L709.1 24.1272L700.55 31.4521ZM770.44 72.0526C770.25 72.8895 768.59 79.8482 766.69 87.6437L763.22 101.771L748.63 101.927C739.7 101.98 734.05 101.875 734.05 101.561C734.05 100.933 741.22 71.5295 741.51 71.0059C741.6 70.7971 748.25 70.6397 756.19 70.6397H770.73L770.44 72.0526Z" fill="black"/>
<path d="M857.82 24.7028C857.73 25.069 849.27 59.7573 839.06 101.771C828.84 143.784 820.38 178.472 820.29 178.786C820.09 179.309 833.4 179.466 885.76 179.466H951.43L956.8 157.334C959.74 145.196 962.26 134.732 962.4 134.052L962.69 132.901H926.29C906.29 132.901 889.9 132.796 889.9 132.64C889.9 132.482 895.65 108.729 902.72 79.9006C909.76 51.0198 915.69 26.6386 915.84 25.7492L916.17 24.0749H887.09C864.28 24.0749 857.96 24.2319 857.82 24.7028Z" fill="black"/>
<path d="M967.76 30.244C969.23 32.0751 977.78 41.9636 986.67 52.2189L1002.82 70.9491H1072.05H1141.33L1141.85 68.6993C1142.18 67.4962 1144.51 57.869 1147.12 47.3531C1149.69 36.8365 1151.83 27.9418 1151.83 27.628C1151.83 27.1574 1129.07 27 1058.41 27H965L967.76 30.244Z" fill="black"/>
<path d="M1174.59 34.3774L1165.84 41.7543L1150.07 106.475C1141.38 142.053 1134.15 171.77 1134.01 172.555L1133.68 174.02H1161.28H1188.84L1189.51 171.509C1189.89 170.148 1192.27 160.26 1194.88 149.586L1199.58 130.071H1213.5H1227.38L1227.09 131.484C1226.9 132.321 1224.48 142.209 1221.67 153.458L1216.59 174.02H1244.34C1259.54 174.02 1272.04 173.915 1272.04 173.811C1272.04 173.602 1303.83 43.1148 1304.07 42.3823C1304.16 42.0686 1301.98 38.5108 1299.17 34.5343L1294.09 27.2618L1238.73 27.1049L1183.33 27L1174.59 34.3774ZM1241.63 71.3153C1241.63 71.734 1235.6 96.7955 1234.93 99.0453L1234.41 100.772H1220.68C1211.55 100.772 1206.94 100.614 1206.94 100.248C1206.94 99.7252 1213.36 73.0945 1213.84 71.5771C1213.98 71.106 1217.21 70.9491 1227.85 70.9491C1235.41 70.9491 1241.63 71.106 1241.63 71.3153Z" fill="black"/>
<path d="M1324.31 27.2618C1324.31 27.5236 1289.67 169.939 1288.86 173.13C1288.62 173.968 1290.05 174.02 1316.28 173.915L1343.98 173.758L1349.25 152.045L1354.52 130.332L1368.4 130.176C1376.05 130.124 1382.27 130.228 1382.27 130.437C1382.27 130.699 1379.9 140.378 1377.05 151.994C1374.15 163.608 1371.82 173.34 1371.82 173.602C1371.82 173.811 1384.22 174.02 1399.38 174.02H1426.89L1427.6 171.247C1429.55 163.661 1441.19 115.997 1441.19 115.631C1441.19 115.369 1438.96 111.968 1436.2 108.096C1433.45 104.225 1431.26 100.824 1431.36 100.615C1431.4 100.353 1435.3 96.9523 1440 93.0283L1448.51 85.8603L1453.83 63.886C1456.78 51.8002 1459.01 41.6499 1458.87 41.3361C1458.68 40.9699 1456.4 37.6215 1453.78 33.8543L1449.03 27.0525L1386.69 27C1352.39 27 1324.31 27.1049 1324.31 27.2618ZM1396.53 71.5247C1396.53 71.8384 1395.77 75.1349 1394.87 78.8496C1393.96 82.5643 1393.2 85.7559 1393.2 85.8603C1393.2 86.0177 1387.02 86.1221 1379.42 86.1221C1367.07 86.1221 1365.64 86.0177 1365.64 85.2852C1365.64 84.4478 1367.54 76.2336 1368.54 72.6233L1369.07 70.9491H1382.8C1392.54 70.9491 1396.53 71.106 1396.53 71.5247Z" fill="black"/>
<path d="M1483.96 34.4299L1475.16 41.8067L1461.01 100.301C1453.22 132.478 1446.9 159.161 1446.99 159.58C1447.04 159.998 1449.27 163.451 1451.88 167.218L1456.63 174.02H1512.27H1567.91L1576.28 166.957C1580.89 163.085 1584.73 159.737 1584.88 159.475C1584.97 159.266 1588.25 146.238 1592.1 130.594C1595.9 114.898 1599.18 101.818 1599.27 101.452C1599.46 100.929 1592.67 100.772 1564.78 100.772H1530.1L1529.62 102.707C1529.33 103.806 1528.57 106.946 1527.91 109.666C1527.24 112.387 1526.72 114.794 1526.72 115.003C1526.72 115.264 1529.85 115.421 1533.66 115.421C1539.03 115.421 1540.55 115.578 1540.41 116.049C1540.26 116.416 1539.46 119.712 1538.55 123.374L1536.98 130.071H1523.01C1509.95 130.071 1509.09 130.019 1509.33 129.129C1509.52 128.344 1521.78 77.8553 1522.97 72.8851L1523.44 70.9491H1537.27H1551.09L1550.81 72.6233C1550.67 73.5651 1549.91 76.8616 1549.15 79.9483C1548.39 83.0354 1547.87 85.7034 1548.01 85.8603C1548.43 86.279 1602.65 86.1745 1602.93 85.7034C1603.08 85.4421 1605.55 75.4487 1608.45 63.4673L1613.72 41.7023L1608.59 34.3249L1603.46 27H1548.1L1492.75 27.0525L1483.96 34.4299Z" fill="black"/>
<path d="M1638.43 34.4818L1629.64 41.9117L1615.48 100.248C1607.73 132.321 1601.32 158.9 1601.32 159.266C1601.32 159.632 1603.51 163.085 1606.21 166.957L1611.06 173.968H1673.54L1736.02 174.02L1741.3 152.15L1746.57 130.332L1704.99 130.176C1672.12 130.071 1663.51 129.914 1663.71 129.391C1663.85 129.077 1664.66 125.781 1665.51 122.118L1667.12 115.421L1701.77 115.317L1736.45 115.16L1739.87 101.033C1741.77 93.2377 1743.34 86.7501 1743.39 86.4883C1743.39 86.279 1727.9 86.1221 1708.94 86.1221C1686.99 86.1221 1674.49 85.9127 1674.49 85.599C1674.49 84.8665 1677.72 72.1002 1678.05 71.4722C1678.24 71.106 1692.12 70.9491 1719.77 70.9491H1761.21L1764.87 55.6192C1766.91 47.2481 1769.28 37.3596 1770.18 33.645L1771.8 27H1709.51L1647.17 27.0525L1638.43 34.4818Z" fill="black"/>
<path d="M1787.34 27.628C1787.24 27.9943 1784.82 37.8827 1781.97 49.6023L1776.83 70.9491H1797.41C1816.23 70.9491 1817.99 71.0016 1817.99 71.8384C1817.99 72.4664 1794.94 167.532 1793.47 173.13C1793.23 173.968 1794.66 174.02 1820.93 173.915L1848.63 173.758L1861.03 122.956C1867.88 94.9644 1873.58 71.8384 1873.77 71.5247C1874 71.106 1880.04 70.9491 1894.62 70.9491H1915.15L1920.28 50.1259C1923.09 38.7201 1925.51 28.8316 1925.7 28.1511L1925.94 27H1856.76C1801.83 27 1787.48 27.1574 1787.34 27.628Z" fill="black"/>
<path d="M1030.14 129.914L1019.45 173.758L1046.96 173.915C1062.12 173.968 1074.57 173.968 1074.67 173.915C1074.71 173.811 1079.51 154.348 1085.31 130.594C1091.11 106.893 1095.95 87.1683 1096.09 86.8021C1096.28 86.2265 1091.05 86.1221 1068.58 86.1221H1040.88L1030.14 129.914Z" fill="black"/>
</svg>
