<svg width="3400" height="2400" viewBox="0 0 3400 2400" fill="none" xmlns="http://www.w3.org/2000/svg">
<g clip-path="url(#clip0_14_415)">
<mask id="mask0_14_415" style="mask-type:luminance" maskUnits="userSpaceOnUse" x="0" y="0" width="3400" height="2400">
<path d="M3400 0H0V2400H3400V0Z" fill="white"/>
</mask>
<g mask="url(#mask0_14_415)">
<path d="M3400 0H0V2400H3400V0Z" fill="#F5F5F7"/>
<path d="M-733.368 -507.111V-65.0891C-733.368 -31.9744 -708.349 -5.12957 -677.478 -5.12957C-646.612 -5.12957 -621.588 21.7154 -621.588 54.8302V302.579C-621.588 336.515 -595.948 364.025 -564.316 364.025C-532.684 364.025 -507.039 391.536 -507.039 425.472V740.878C-507.039 782.355 -475.697 815.98 -437.034 815.98H1.97189" stroke="url(#paint0_linear_14_415)" stroke-width="0.719997"/>
<path d="M-663.696 -552.09V-110.066C-663.696 -76.9509 -638.677 -50.106 -607.806 -50.106C-576.94 -50.106 -551.916 -23.2613 -551.916 9.85356V257.602C-551.916 291.538 -526.276 319.049 -494.644 319.049C-463.011 319.049 -437.368 346.559 -437.368 380.495V695.9C-437.368 737.381 -406.025 771.006 -367.362 771.006H71.6437" stroke="url(#paint1_linear_14_415)" stroke-width="0.719997"/>
<path d="M-593.935 -597.144V-155.121C-593.935 -122.006 -568.912 -95.1608 -538.045 -95.1608C-507.179 -95.1608 -482.156 -68.3159 -482.156 -35.2012V212.548C-482.156 246.483 -456.512 273.994 -424.88 273.994C-393.248 273.994 -367.604 301.505 -367.604 335.44V650.846C-367.604 692.327 -336.262 725.952 -297.599 725.952H141.407" stroke="url(#paint2_linear_14_415)" stroke-width="0.719997"/>
<path d="M-524.282 -642.138V-200.116C-524.282 -167.002 -499.258 -140.157 -468.392 -140.157C-437.524 -140.157 -412.502 -113.312 -412.502 -80.1971V167.551C-412.502 201.488 -386.859 228.998 -355.226 228.998C-323.594 228.998 -297.951 256.508 -297.951 290.444V605.852C-297.951 647.329 -266.609 680.954 -227.945 680.954H211.061" stroke="url(#paint3_linear_14_415)" stroke-width="0.719997"/>
<path d="M-282.227 -687.212V-245.191C-282.227 -212.076 -257.204 -185.231 -226.337 -185.231C-195.47 -185.231 -170.447 -158.386 -170.447 -125.272V122.477C-170.447 156.413 -144.804 183.924 -113.172 183.924C-81.5398 183.924 -55.8964 211.434 -55.8964 245.37V560.778C-55.8964 602.255 -24.5541 635.88 14.1089 635.88H453.115" stroke="url(#paint4_linear_14_415)" stroke-width="0.719997"/>
<path d="M-59.2366 -732.13V-290.109C-59.2366 -256.994 -34.2139 -230.149 -3.34696 -230.149C27.52 -230.149 52.5426 -203.304 52.5426 -170.19V77.5595C52.5426 111.495 78.186 139.006 109.818 139.006C141.45 139.006 167.093 166.516 167.093 200.452V515.86C167.093 557.336 198.436 590.961 237.099 590.961H676.105" stroke="url(#paint5_linear_14_415)" stroke-width="0.719997"/>
<path d="M144.561 -777.204V-335.183C144.561 -302.068 169.584 -275.223 200.451 -275.223C231.318 -275.223 256.34 -248.379 256.34 -215.264V32.4851C256.34 66.4208 281.984 93.9311 313.616 93.9311C345.248 93.9311 370.891 121.442 370.891 155.378V470.784C370.891 512.262 402.234 545.887 440.897 545.887H879.904" stroke="url(#paint6_linear_14_415)" stroke-width="0.719997"/>
<path d="M329.222 -822.183V-380.159C329.222 -347.045 354.244 -320.2 385.111 -320.2C415.978 -320.2 441.001 -293.355 441.001 -260.24V-12.4913C441.001 21.4446 466.644 48.955 498.277 48.955C529.91 48.955 555.55 76.4654 555.55 110.402V425.807C555.55 467.286 586.892 500.911 625.558 500.911H1064.56" stroke="url(#paint7_linear_14_415)" stroke-width="0.719997"/>
<path d="M494.672 -867.197V-425.175C494.672 -392.06 519.696 -365.216 550.562 -365.216C581.428 -365.216 606.452 -338.371 606.452 -305.256V-57.5068C606.452 -23.5711 632.096 3.93928 663.729 3.93928C695.361 3.93928 721.001 31.4497 721.001 65.3857V380.792C721.001 422.27 752.343 455.895 791.009 455.895H1230.02" stroke="url(#paint8_linear_14_415)" stroke-width="0.719997"/>
<path d="M641.003 -912.135V-470.113C641.003 -436.998 666.026 -410.153 696.892 -410.153C727.759 -410.153 752.782 -383.308 752.782 -350.193V-102.444C752.782 -68.5087 778.427 -40.9981 810.059 -40.9981C841.691 -40.9981 867.331 -13.4876 867.331 20.4483V335.854C867.331 377.333 898.674 410.958 937.34 410.958H1376.35" stroke="url(#paint9_linear_14_415)" stroke-width="0.719997"/>
<path d="M768.194 -957.149V-515.128C768.194 -482.014 793.218 -455.169 824.084 -455.169C854.955 -455.169 879.974 -428.324 879.974 -395.209V-147.46C879.974 -113.524 905.619 -86.0138 937.251 -86.0138C968.883 -86.0138 994.528 -58.5035 994.528 -24.5675V290.838C994.528 332.317 1025.87 365.942 1064.53 365.942H1503.54" stroke="url(#paint10_linear_14_415)" stroke-width="0.719997"/>
<path d="M876.163 -1002.17V-560.142C876.163 -527.028 901.182 -500.184 932.053 -500.184C962.919 -500.184 987.938 -473.34 987.938 -440.225V-192.476C987.938 -158.54 1013.58 -131.03 1045.22 -131.03C1076.85 -131.03 1102.49 -103.519 1102.49 -69.583V245.823C1102.49 287.301 1133.83 320.926 1172.5 320.926H1649.82" stroke="url(#paint11_linear_14_415)" stroke-width="0.719997"/>
<path d="M965.007 -1047.18V-605.161C965.007 -572.047 990.031 -545.201 1020.9 -545.201C1051.76 -545.201 1076.79 -518.355 1076.79 -485.24V-237.491C1076.79 -203.555 1102.43 -176.045 1134.06 -176.045C1165.7 -176.045 1191.34 -148.534 1191.34 -114.599V200.807C1191.34 242.286 1222.68 275.911 1261.34 275.911H1700.35" stroke="url(#paint12_linear_14_415)" stroke-width="0.719997"/>
<path d="M-733.368 2910.18V2468.16C-733.368 2435.05 -708.349 2408.2 -677.478 2408.2C-646.612 2408.2 -621.588 2381.36 -621.588 2348.24V2100.5C-621.588 2066.56 -595.948 2039.05 -564.316 2039.05C-532.684 2039.05 -507.039 2011.54 -507.039 1977.6V1662.19C-507.039 1620.72 -475.697 1587.09 -437.034 1587.09H1.97189" stroke="url(#paint13_linear_14_415)" stroke-width="0.719997"/>
<path d="M-663.696 2955.22V2513.2C-663.696 2480.08 -638.677 2453.24 -607.806 2453.24C-576.94 2453.24 -551.916 2426.39 -551.916 2393.28V2145.53C-551.916 2111.59 -526.276 2084.08 -494.644 2084.08C-463.011 2084.08 -437.368 2056.57 -437.368 2022.63V1707.23C-437.368 1665.75 -406.025 1632.12 -367.362 1632.12H71.6437" stroke="url(#paint14_linear_14_415)" stroke-width="0.719997"/>
<path d="M-593.935 3000.26V2558.23C-593.935 2525.12 -568.912 2498.27 -538.045 2498.27C-507.179 2498.27 -482.156 2471.43 -482.156 2438.31V2190.56C-482.156 2156.63 -456.512 2129.12 -424.88 2129.12C-393.248 2129.12 -367.604 2101.61 -367.604 2067.67V1752.27C-367.604 1710.79 -336.262 1677.16 -297.599 1677.16H141.407" stroke="url(#paint15_linear_14_415)" stroke-width="0.719997"/>
<path d="M-524.282 3045.29V2603.27C-524.282 2570.15 -499.258 2543.31 -468.392 2543.31C-437.524 2543.31 -412.502 2516.46 -412.502 2483.35V2235.6C-412.502 2201.66 -386.859 2174.15 -355.226 2174.15C-323.594 2174.15 -297.951 2146.64 -297.951 2112.71V1797.3C-297.951 1755.82 -266.609 1722.2 -227.945 1722.2H211.061" stroke="url(#paint16_linear_14_415)" stroke-width="0.719997"/>
<path d="M-282.227 3090.21V2648.19C-282.227 2615.07 -257.204 2588.23 -226.337 2588.23C-195.47 2588.23 -170.447 2561.38 -170.447 2528.27V2280.52C-170.447 2246.58 -144.804 2219.07 -113.172 2219.07C-81.5398 2219.07 -55.8964 2191.56 -55.8964 2157.63V1842.22C-55.8964 1800.74 -24.5541 1767.12 14.1089 1767.12H453.115" stroke="url(#paint17_linear_14_415)" stroke-width="0.719997"/>
<path d="M-59.2366 3135.24V2693.22C-59.2366 2660.11 -34.2139 2633.26 -3.34696 2633.26C27.52 2633.26 52.5426 2606.41 52.5426 2573.3V2325.55C52.5426 2291.61 78.186 2264.11 109.818 2264.11C141.45 2264.11 167.093 2236.59 167.093 2202.66V1887.25C167.093 1845.78 198.436 1812.15 237.099 1812.15H676.105" stroke="url(#paint18_linear_14_415)" stroke-width="0.719997"/>
<path d="M144.598 3180.3V2738.27C144.598 2705.16 169.62 2678.31 200.487 2678.31C231.355 2678.31 256.377 2651.47 256.377 2618.35V2370.61C256.377 2336.67 282.02 2309.16 313.652 2309.16C345.285 2309.16 370.928 2281.65 370.928 2247.71V1932.31C370.928 1890.83 402.27 1857.2 440.933 1857.2H879.942" stroke="url(#paint19_linear_14_415)" stroke-width="0.719997"/>
<path d="M329.276 3225.27V2783.25C329.276 2750.14 354.299 2723.29 385.166 2723.29C416.033 2723.29 441.056 2696.45 441.056 2663.33V2415.58C441.056 2381.65 466.699 2354.14 498.329 2354.14C529.966 2354.14 555.606 2326.63 555.606 2292.69V1977.28C555.606 1935.81 586.948 1902.18 625.614 1902.18H1064.62" stroke="url(#paint20_linear_14_415)" stroke-width="0.719997"/>
<path d="M494.672 3270.27V2828.25C494.672 2795.13 519.696 2768.29 550.562 2768.29C581.428 2768.29 606.452 2741.44 606.452 2708.33V2460.58C606.452 2426.65 632.096 2399.13 663.729 2399.13C695.361 2399.13 721.001 2371.62 721.001 2337.69V2022.28C721.001 1980.8 752.343 1947.18 791.009 1947.18H1230.02" stroke="url(#paint21_linear_14_415)" stroke-width="0.719997"/>
<path d="M641.003 3315.25V2873.23C641.003 2840.11 666.026 2813.27 696.892 2813.27C727.759 2813.27 752.782 2786.42 752.782 2753.31V2505.55C752.782 2471.62 778.427 2444.11 810.059 2444.11C841.691 2444.11 867.331 2416.6 867.331 2382.66V2067.26C867.331 2025.78 898.674 1992.16 937.34 1992.16H1376.35" stroke="url(#paint22_linear_14_415)" stroke-width="0.719997"/>
<path d="M768.194 3360.26V2918.24C768.194 2885.13 793.218 2858.28 824.084 2858.28C854.955 2858.28 879.974 2831.43 879.974 2798.32V2550.57C879.974 2516.64 905.619 2489.13 937.251 2489.13C968.883 2489.13 994.528 2461.61 994.528 2427.68V2112.28C994.528 2070.79 1025.87 2037.17 1064.53 2037.17H1503.54" stroke="url(#paint23_linear_14_415)" stroke-width="0.719997"/>
<path d="M876.163 3405.28V2963.25C876.163 2930.14 901.182 2903.3 932.053 2903.3C962.919 2903.3 987.938 2876.45 987.938 2843.34V2595.59C987.938 2561.65 1013.58 2534.14 1045.22 2534.14C1076.85 2534.14 1102.49 2506.63 1102.49 2472.7V2157.29C1102.49 2115.81 1133.83 2082.18 1172.5 2082.18H1611.5" stroke="url(#paint24_linear_14_415)" stroke-width="0.719997"/>
<path d="M965.007 3450.25V3008.23C965.007 2975.12 990.031 2948.27 1020.9 2948.27C1051.76 2948.27 1076.79 2921.43 1076.79 2888.31V2640.57C1076.79 2606.63 1102.43 2579.12 1134.06 2579.12C1165.7 2579.12 1191.34 2551.61 1191.34 2517.67V2202.26C1191.34 2160.79 1222.68 2127.16 1261.34 2127.16H1700.35" stroke="url(#paint25_linear_14_415)" stroke-width="0.719997"/>
<path d="M4134.96 2910.18V2468.16C4134.96 2435.05 4109.93 2408.2 4079.07 2408.2C4048.2 2408.2 4023.18 2381.36 4023.18 2348.24V2100.5C4023.18 2066.56 3997.54 2039.05 3965.9 2039.05C3934.27 2039.05 3908.63 2011.54 3908.63 1977.6V1662.19C3908.63 1620.72 3877.28 1587.09 3838.62 1587.09H3399.62" stroke="url(#paint26_linear_14_415)" stroke-width="0.719997"/>
<path d="M4065.26 2955.22V2513.2C4065.26 2480.08 4040.25 2453.24 4009.37 2453.24C3978.51 2453.24 3953.48 2426.39 3953.48 2393.28V2145.53C3953.48 2111.59 3927.84 2084.08 3896.21 2084.08C3864.58 2084.08 3838.94 2056.57 3838.94 2022.63V1707.23C3838.94 1665.75 3807.59 1632.12 3768.93 1632.12H3329.93" stroke="url(#paint27_linear_14_415)" stroke-width="0.719997"/>
<path d="M3995.54 3000.26V2558.23C3995.54 2525.12 3970.52 2498.27 3939.65 2498.27C3908.79 2498.27 3883.76 2471.43 3883.76 2438.31V2190.56C3883.76 2156.63 3858.12 2129.12 3826.48 2129.12C3794.85 2129.12 3769.21 2101.61 3769.21 2067.67V1752.27C3769.21 1710.79 3737.87 1677.16 3699.2 1677.16H3260.2" stroke="url(#paint28_linear_14_415)" stroke-width="0.719997"/>
<path d="M3925.85 3045.29V2603.27C3925.85 2570.15 3900.83 2543.31 3869.96 2543.31C3839.1 2543.31 3814.07 2516.46 3814.07 2483.35V2235.6C3814.07 2201.66 3788.43 2174.15 3756.79 2174.15C3725.16 2174.15 3699.52 2146.64 3699.52 2112.71V1797.3C3699.52 1755.82 3668.18 1722.2 3629.51 1722.2H3190.51" stroke="url(#paint29_linear_14_415)" stroke-width="0.719997"/>
<path d="M3683.8 3090.21V2648.19C3683.8 2615.07 3658.77 2588.23 3627.91 2588.23C3597.04 2588.23 3572.02 2561.38 3572.02 2528.27V2280.52C3572.02 2246.58 3546.37 2219.07 3514.74 2219.07C3483.11 2219.07 3457.46 2191.56 3457.46 2157.63V1842.22C3457.46 1800.74 3426.12 1767.12 3387.46 1767.12H2948.45" stroke="url(#paint30_linear_14_415)" stroke-width="0.719997"/>
<path d="M3460.79 3135.24V2693.22C3460.79 2660.11 3435.77 2633.26 3404.9 2633.26C3374.03 2633.26 3349.01 2606.41 3349.01 2573.3V2325.55C3349.01 2291.61 3323.36 2264.11 3291.73 2264.11C3260.1 2264.11 3234.46 2236.59 3234.46 2202.66V1887.25C3234.46 1845.78 3203.11 1812.15 3164.45 1812.15H2725.45" stroke="url(#paint31_linear_14_415)" stroke-width="0.719997"/>
<path d="M3257.05 3180.3V2738.27C3257.05 2705.16 3232.02 2678.31 3201.16 2678.31C3170.29 2678.31 3145.27 2651.47 3145.27 2618.35V2370.61C3145.27 2336.67 3119.62 2309.16 3087.99 2309.16C3056.36 2309.16 3030.71 2281.65 3030.71 2247.71V1932.31C3030.71 1890.83 2999.37 1857.2 2960.71 1857.2H2521.7" stroke="url(#paint32_linear_14_415)" stroke-width="0.719997"/>
<path d="M3072.31 3225.27V2783.25C3072.31 2750.14 3047.29 2723.29 3016.42 2723.29C2985.56 2723.29 2960.53 2696.45 2960.53 2663.33V2415.58C2960.53 2381.65 2934.89 2354.14 2903.25 2354.14C2871.62 2354.14 2845.98 2326.63 2845.98 2292.69V1977.28C2845.98 1935.81 2814.64 1902.18 2775.97 1902.18H2336.97" stroke="url(#paint33_linear_14_415)" stroke-width="0.719997"/>
<path d="M2906.9 3270.27V2828.25C2906.9 2795.13 2881.87 2768.29 2851.01 2768.29C2820.14 2768.29 2795.12 2741.44 2795.12 2708.33V2460.58C2795.12 2426.65 2769.47 2399.13 2737.84 2399.13C2706.21 2399.13 2680.57 2371.62 2680.57 2337.69V2022.28C2680.57 1980.8 2649.23 1947.18 2610.56 1947.18H2171.55" stroke="url(#paint34_linear_14_415)" stroke-width="0.719997"/>
<path d="M2760.59 3315.25V2873.23C2760.59 2840.11 2735.56 2813.27 2704.7 2813.27C2673.83 2813.27 2648.81 2786.42 2648.81 2753.31V2505.55C2648.81 2471.62 2623.16 2444.11 2591.53 2444.11C2559.9 2444.11 2534.26 2416.6 2534.26 2382.66V2067.26C2534.26 2025.78 2502.91 1992.16 2464.25 1992.16H2025.24" stroke="url(#paint35_linear_14_415)" stroke-width="0.719997"/>
<path d="M2633.43 3360.26V2918.24C2633.43 2885.13 2608.4 2858.28 2577.54 2858.28C2546.67 2858.28 2521.65 2831.43 2521.65 2798.32V2550.57C2521.65 2516.64 2496.01 2489.13 2464.37 2489.13C2432.74 2489.13 2407.1 2461.61 2407.1 2427.68V2112.28C2407.1 2070.79 2375.75 2037.17 2337.09 2037.17H1898.09" stroke="url(#paint36_linear_14_415)" stroke-width="0.719997"/>
<path d="M2525.44 3405.28V2963.25C2525.44 2930.14 2500.42 2903.3 2469.55 2903.3C2438.69 2903.3 2413.66 2876.45 2413.66 2843.34V2595.59C2413.66 2561.65 2388.02 2534.14 2356.39 2534.14C2324.76 2534.14 2299.11 2506.63 2299.11 2472.7V2157.29C2299.11 2115.81 2267.77 2082.18 2229.11 2082.18H1751.79" stroke="url(#paint37_linear_14_415)" stroke-width="0.719997"/>
<path d="M2436.54 3450.25V3008.23C2436.54 2975.12 2411.52 2948.27 2380.65 2948.27C2349.79 2948.27 2324.76 2921.43 2324.76 2888.31V2640.57C2324.76 2606.63 2299.12 2579.12 2267.49 2579.12C2235.85 2579.12 2210.21 2551.61 2210.21 2517.67V2202.26C2210.21 2160.79 2178.87 2127.16 2140.21 2127.16H1701.2" stroke="url(#paint38_linear_14_415)" stroke-width="0.719997"/>
<path d="M4134.96 -507.111V-65.0891C4134.96 -31.9744 4109.93 -5.12957 4079.07 -5.12957C4048.2 -5.12957 4023.18 21.7153 4023.18 54.8302V302.579C4023.18 336.515 3997.54 364.025 3965.9 364.025C3934.27 364.025 3908.63 391.536 3908.63 425.472V740.878C3908.63 782.355 3877.28 815.98 3838.62 815.98H3399.62" stroke="url(#paint39_linear_14_415)" stroke-width="0.719997"/>
<path d="M4065.26 -552.09V-110.066C4065.26 -76.9509 4040.25 -50.106 4009.37 -50.106C3978.51 -50.106 3953.48 -23.2613 3953.48 9.85356V257.602C3953.48 291.538 3927.84 319.049 3896.21 319.049C3864.58 319.049 3838.94 346.559 3838.94 380.495V695.9C3838.94 737.381 3807.59 771.006 3768.93 771.006H3329.93" stroke="url(#paint40_linear_14_415)" stroke-width="0.719997"/>
<path d="M3995.54 -597.144V-155.121C3995.54 -122.006 3970.52 -95.1608 3939.65 -95.1608C3908.78 -95.1608 3883.76 -68.3159 3883.76 -35.2012V212.548C3883.76 246.483 3858.12 273.994 3826.48 273.994C3794.85 273.994 3769.21 301.505 3769.21 335.44V650.846C3769.21 692.327 3737.87 725.952 3699.2 725.952H3260.2" stroke="url(#paint41_linear_14_415)" stroke-width="0.719997"/>
<path d="M3925.85 -642.138V-200.116C3925.85 -167.002 3900.83 -140.157 3869.96 -140.157C3839.1 -140.157 3814.07 -113.312 3814.07 -80.1971V167.551C3814.07 201.488 3788.43 228.998 3756.79 228.998C3725.16 228.998 3699.52 256.508 3699.52 290.444V605.852C3699.52 647.329 3668.18 680.954 3629.51 680.954H3190.51" stroke="url(#paint42_linear_14_415)" stroke-width="0.719997"/>
<path d="M3683.76 -687.212V-245.191C3683.76 -212.076 3658.74 -185.231 3627.87 -185.231C3597 -185.231 3571.98 -158.386 3571.98 -125.272V122.477C3571.98 156.413 3546.34 183.924 3514.7 183.924C3483.07 183.924 3457.43 211.434 3457.43 245.37V560.778C3457.43 602.255 3426.09 635.88 3387.42 635.88H2948.42" stroke="url(#paint43_linear_14_415)" stroke-width="0.719997"/>
<path d="M3460.79 -732.13V-290.109C3460.79 -256.994 3435.77 -230.149 3404.9 -230.149C3374.03 -230.149 3349.01 -203.304 3349.01 -170.19V77.5595C3349.01 111.495 3323.36 139.006 3291.73 139.006C3260.1 139.006 3234.46 166.516 3234.46 200.452V515.86C3234.46 557.336 3203.11 590.961 3164.45 590.961H2725.45" stroke="url(#paint44_linear_14_415)" stroke-width="0.719997"/>
<path d="M3257.05 -777.204V-335.183C3257.05 -302.068 3232.02 -275.223 3201.16 -275.223C3170.28 -275.223 3145.27 -248.379 3145.27 -215.264V32.485C3145.27 66.4208 3119.62 93.9311 3087.99 93.9311C3056.36 93.9311 3030.71 121.442 3030.71 155.378V470.784C3030.71 512.262 2999.37 545.887 2960.71 545.887H2521.7" stroke="url(#paint45_linear_14_415)" stroke-width="0.719997"/>
<path d="M3072.31 -822.183V-380.159C3072.31 -347.045 3047.29 -320.2 3016.42 -320.2C2985.56 -320.2 2960.53 -293.355 2960.53 -260.24V-12.4913C2960.53 21.4445 2934.89 48.955 2903.25 48.955C2871.62 48.955 2845.98 76.4654 2845.98 110.401V425.807C2845.98 467.286 2814.64 500.911 2775.97 500.911L2336.97 500.911" stroke="url(#paint46_linear_14_415)" stroke-width="0.719997"/>
<path d="M2906.9 -867.197V-425.175C2906.9 -392.06 2881.87 -365.216 2851.01 -365.216C2820.14 -365.216 2795.12 -338.371 2795.12 -305.256V-57.5068C2795.12 -23.5711 2769.47 3.93928 2737.84 3.93928C2706.21 3.93927 2680.57 31.4497 2680.57 65.3857V380.792C2680.57 422.27 2649.23 455.895 2610.56 455.895H2171.55" stroke="url(#paint47_linear_14_415)" stroke-width="0.719997"/>
<path d="M2760.59 -912.135V-470.113C2760.59 -436.998 2735.56 -410.153 2704.7 -410.153C2673.83 -410.153 2648.81 -383.308 2648.81 -350.193V-102.444C2648.81 -68.5087 2623.16 -40.9981 2591.53 -40.9981C2559.9 -40.9981 2534.26 -13.4877 2534.26 20.4482V335.854C2534.26 377.333 2502.91 410.958 2464.25 410.958H2025.24" stroke="url(#paint48_linear_14_415)" stroke-width="0.719997"/>
<path d="M2633.43 -957.149V-515.128C2633.43 -482.014 2608.4 -455.169 2577.54 -455.169C2546.67 -455.169 2521.65 -428.324 2521.65 -395.209V-147.46C2521.65 -113.524 2496.01 -86.0138 2464.37 -86.0138C2432.74 -86.0138 2407.1 -58.5035 2407.1 -24.5675V290.838C2407.1 332.317 2375.75 365.942 2337.09 365.942L1898.09 365.942" stroke="url(#paint49_linear_14_415)" stroke-width="0.719997"/>
<path d="M2525.44 -1002.17V-560.142C2525.44 -527.028 2500.42 -500.185 2469.55 -500.185C2438.69 -500.185 2413.66 -473.34 2413.66 -440.225V-192.476C2413.66 -158.54 2388.02 -131.03 2356.39 -131.03C2324.76 -131.03 2299.11 -103.519 2299.11 -69.583V245.823C2299.11 287.301 2267.77 320.926 2229.11 320.926H1790.1" stroke="url(#paint50_linear_14_415)" stroke-width="0.719997"/>
<path d="M2436.54 -1047.18V-605.161C2436.54 -572.047 2411.52 -545.201 2380.65 -545.201C2349.79 -545.201 2324.76 -518.355 2324.76 -485.24V-237.491C2324.76 -203.555 2299.12 -176.045 2267.49 -176.045C2235.85 -176.045 2210.21 -148.534 2210.21 -114.599V200.807C2210.21 242.286 2178.87 275.911 2140.21 275.911H1701.2" stroke="url(#paint51_linear_14_415)" stroke-width="0.719997"/>
</g>
</g>
<defs>
<linearGradient id="paint0_linear_14_415" x1="-365.699" y1="-507.111" x2="-365.699" y2="815.98" gradientUnits="userSpaceOnUse">
<stop stop-color="white"/>
<stop offset="0.129" stop-color="#A09C99"/>
<stop offset="0.35" stop-color="white"/>
<stop offset="0.52" stop-color="#A09C99"/>
<stop offset="0.805" stop-color="#A09C99" stop-opacity="0.6"/>
<stop offset="1" stop-color="white"/>
</linearGradient>
<linearGradient id="paint1_linear_14_415" x1="-296.027" y1="-552.09" x2="-296.027" y2="771.006" gradientUnits="userSpaceOnUse">
<stop stop-color="white"/>
<stop offset="0.129" stop-color="#A09C99"/>
<stop offset="0.35" stop-color="white"/>
<stop offset="0.52" stop-color="#A09C99"/>
<stop offset="0.805" stop-color="#A09C99" stop-opacity="0.6"/>
<stop offset="1" stop-color="white"/>
</linearGradient>
<linearGradient id="paint2_linear_14_415" x1="-226.264" y1="-597.144" x2="-226.264" y2="725.952" gradientUnits="userSpaceOnUse">
<stop stop-color="white"/>
<stop offset="0.129" stop-color="#A09C99"/>
<stop offset="0.35" stop-color="white"/>
<stop offset="0.52" stop-color="#A09C99"/>
<stop offset="0.805" stop-color="#A09C99" stop-opacity="0.6"/>
<stop offset="1" stop-color="white"/>
</linearGradient>
<linearGradient id="paint3_linear_14_415" x1="-156.61" y1="-642.138" x2="-156.61" y2="680.954" gradientUnits="userSpaceOnUse">
<stop stop-color="white"/>
<stop offset="0.129" stop-color="#A09C99"/>
<stop offset="0.35" stop-color="white"/>
<stop offset="0.52" stop-color="#A09C99"/>
<stop offset="0.805" stop-color="#A09C99" stop-opacity="0.6"/>
<stop offset="1" stop-color="white"/>
</linearGradient>
<linearGradient id="paint4_linear_14_415" x1="85.4441" y1="-687.212" x2="85.4441" y2="635.88" gradientUnits="userSpaceOnUse">
<stop stop-color="white"/>
<stop offset="0.129" stop-color="#A09C99"/>
<stop offset="0.35" stop-color="white"/>
<stop offset="0.52" stop-color="#A09C99"/>
<stop offset="0.805" stop-color="#A09C99" stop-opacity="0.6"/>
<stop offset="1" stop-color="white"/>
</linearGradient>
<linearGradient id="paint5_linear_14_415" x1="308.434" y1="-732.13" x2="308.434" y2="590.961" gradientUnits="userSpaceOnUse">
<stop stop-color="white"/>
<stop offset="0.129" stop-color="#A09C99"/>
<stop offset="0.35" stop-color="white"/>
<stop offset="0.52" stop-color="#A09C99"/>
<stop offset="0.805" stop-color="#A09C99" stop-opacity="0.6"/>
<stop offset="1" stop-color="white"/>
</linearGradient>
<linearGradient id="paint6_linear_14_415" x1="512.232" y1="-777.204" x2="512.232" y2="545.887" gradientUnits="userSpaceOnUse">
<stop stop-color="white"/>
<stop offset="0.129" stop-color="#A09C99"/>
<stop offset="0.35" stop-color="white"/>
<stop offset="0.52" stop-color="#A09C99"/>
<stop offset="0.805" stop-color="#A09C99" stop-opacity="0.6"/>
<stop offset="1" stop-color="white"/>
</linearGradient>
<linearGradient id="paint7_linear_14_415" x1="696.893" y1="-822.183" x2="696.893" y2="500.911" gradientUnits="userSpaceOnUse">
<stop stop-color="white"/>
<stop offset="0.129" stop-color="#A09C99"/>
<stop offset="0.35" stop-color="white"/>
<stop offset="0.52" stop-color="#A09C99"/>
<stop offset="0.805" stop-color="#A09C99" stop-opacity="0.6"/>
<stop offset="1" stop-color="white"/>
</linearGradient>
<linearGradient id="paint8_linear_14_415" x1="862.344" y1="-867.197" x2="862.344" y2="455.895" gradientUnits="userSpaceOnUse">
<stop stop-color="white"/>
<stop offset="0.129" stop-color="#A09C99"/>
<stop offset="0.35" stop-color="white"/>
<stop offset="0.52" stop-color="#A09C99"/>
<stop offset="0.805" stop-color="#A09C99" stop-opacity="0.6"/>
<stop offset="1" stop-color="white"/>
</linearGradient>
<linearGradient id="paint9_linear_14_415" x1="1008.67" y1="-912.135" x2="1008.67" y2="410.958" gradientUnits="userSpaceOnUse">
<stop stop-color="white"/>
<stop offset="0.129" stop-color="#A09C99"/>
<stop offset="0.35" stop-color="white"/>
<stop offset="0.52" stop-color="#A09C99"/>
<stop offset="0.805" stop-color="#A09C99" stop-opacity="0.6"/>
<stop offset="1" stop-color="white"/>
</linearGradient>
<linearGradient id="paint10_linear_14_415" x1="1135.87" y1="-957.149" x2="1135.87" y2="365.942" gradientUnits="userSpaceOnUse">
<stop stop-color="white"/>
<stop offset="0.129" stop-color="#A09C99"/>
<stop offset="0.35" stop-color="white"/>
<stop offset="0.52" stop-color="#A09C99"/>
<stop offset="0.805" stop-color="#A09C99" stop-opacity="0.6"/>
<stop offset="1" stop-color="white"/>
</linearGradient>
<linearGradient id="paint11_linear_14_415" x1="1262.99" y1="-1002.17" x2="1262.99" y2="320.927" gradientUnits="userSpaceOnUse">
<stop stop-color="white"/>
<stop offset="0.129" stop-color="#A09C99"/>
<stop offset="0.35" stop-color="white"/>
<stop offset="0.52" stop-color="#A09C99"/>
<stop offset="0.805" stop-color="#A09C99" stop-opacity="0.6"/>
<stop offset="1" stop-color="white"/>
</linearGradient>
<linearGradient id="paint12_linear_14_415" x1="1332.68" y1="-1047.18" x2="1332.68" y2="275.911" gradientUnits="userSpaceOnUse">
<stop stop-color="white"/>
<stop offset="0.129" stop-color="#A09C99"/>
<stop offset="0.35" stop-color="white"/>
<stop offset="0.52" stop-color="#A09C99"/>
<stop offset="0.805" stop-color="#A09C99" stop-opacity="0.6"/>
<stop offset="1" stop-color="white"/>
</linearGradient>
<linearGradient id="paint13_linear_14_415" x1="-365.699" y1="2910.18" x2="-365.699" y2="1587.09" gradientUnits="userSpaceOnUse">
<stop stop-color="white"/>
<stop offset="0.129" stop-color="#A09C99"/>
<stop offset="0.35" stop-color="white"/>
<stop offset="0.52" stop-color="#A09C99"/>
<stop offset="0.805" stop-color="#A09C99" stop-opacity="0.6"/>
<stop offset="1" stop-color="white"/>
</linearGradient>
<linearGradient id="paint14_linear_14_415" x1="-296.027" y1="2955.22" x2="-296.027" y2="1632.12" gradientUnits="userSpaceOnUse">
<stop stop-color="white"/>
<stop offset="0.129" stop-color="#A09C99"/>
<stop offset="0.35" stop-color="white"/>
<stop offset="0.52" stop-color="#A09C99"/>
<stop offset="0.805" stop-color="#A09C99" stop-opacity="0.6"/>
<stop offset="1" stop-color="white"/>
</linearGradient>
<linearGradient id="paint15_linear_14_415" x1="-226.264" y1="3000.26" x2="-226.264" y2="1677.16" gradientUnits="userSpaceOnUse">
<stop stop-color="white"/>
<stop offset="0.129" stop-color="#A09C99"/>
<stop offset="0.35" stop-color="white"/>
<stop offset="0.52" stop-color="#A09C99"/>
<stop offset="0.805" stop-color="#A09C99" stop-opacity="0.6"/>
<stop offset="1" stop-color="white"/>
</linearGradient>
<linearGradient id="paint16_linear_14_415" x1="-156.61" y1="3045.29" x2="-156.61" y2="1722.2" gradientUnits="userSpaceOnUse">
<stop stop-color="white"/>
<stop offset="0.129" stop-color="#A09C99"/>
<stop offset="0.35" stop-color="white"/>
<stop offset="0.52" stop-color="#A09C99"/>
<stop offset="0.805" stop-color="#A09C99" stop-opacity="0.6"/>
<stop offset="1" stop-color="white"/>
</linearGradient>
<linearGradient id="paint17_linear_14_415" x1="85.4441" y1="3090.21" x2="85.4441" y2="1767.12" gradientUnits="userSpaceOnUse">
<stop stop-color="white"/>
<stop offset="0.129" stop-color="#A09C99"/>
<stop offset="0.35" stop-color="white"/>
<stop offset="0.52" stop-color="#A09C99"/>
<stop offset="0.805" stop-color="#A09C99" stop-opacity="0.6"/>
<stop offset="1" stop-color="white"/>
</linearGradient>
<linearGradient id="paint18_linear_14_415" x1="308.434" y1="3135.24" x2="308.434" y2="1812.15" gradientUnits="userSpaceOnUse">
<stop stop-color="white"/>
<stop offset="0.129" stop-color="#A09C99"/>
<stop offset="0.35" stop-color="white"/>
<stop offset="0.52" stop-color="#A09C99"/>
<stop offset="0.805" stop-color="#A09C99" stop-opacity="0.6"/>
<stop offset="1" stop-color="white"/>
</linearGradient>
<linearGradient id="paint19_linear_14_415" x1="512.27" y1="3180.3" x2="512.27" y2="1857.2" gradientUnits="userSpaceOnUse">
<stop stop-color="white"/>
<stop offset="0.129" stop-color="#A09C99"/>
<stop offset="0.35" stop-color="white"/>
<stop offset="0.52" stop-color="#A09C99"/>
<stop offset="0.805" stop-color="#A09C99" stop-opacity="0.6"/>
<stop offset="1" stop-color="white"/>
</linearGradient>
<linearGradient id="paint20_linear_14_415" x1="696.949" y1="3225.27" x2="696.949" y2="1902.18" gradientUnits="userSpaceOnUse">
<stop stop-color="white"/>
<stop offset="0.129" stop-color="#A09C99"/>
<stop offset="0.35" stop-color="white"/>
<stop offset="0.52" stop-color="#A09C99"/>
<stop offset="0.805" stop-color="#A09C99" stop-opacity="0.6"/>
<stop offset="1" stop-color="white"/>
</linearGradient>
<linearGradient id="paint21_linear_14_415" x1="862.344" y1="3270.27" x2="862.344" y2="1947.18" gradientUnits="userSpaceOnUse">
<stop stop-color="white"/>
<stop offset="0.129" stop-color="#A09C99"/>
<stop offset="0.35" stop-color="white"/>
<stop offset="0.52" stop-color="#A09C99"/>
<stop offset="0.805" stop-color="#A09C99" stop-opacity="0.6"/>
<stop offset="1" stop-color="white"/>
</linearGradient>
<linearGradient id="paint22_linear_14_415" x1="1008.67" y1="3315.25" x2="1008.67" y2="1992.16" gradientUnits="userSpaceOnUse">
<stop stop-color="white"/>
<stop offset="0.129" stop-color="#A09C99"/>
<stop offset="0.35" stop-color="white"/>
<stop offset="0.52" stop-color="#A09C99"/>
<stop offset="0.805" stop-color="#A09C99" stop-opacity="0.6"/>
<stop offset="1" stop-color="white"/>
</linearGradient>
<linearGradient id="paint23_linear_14_415" x1="1135.87" y1="3360.26" x2="1135.87" y2="2037.17" gradientUnits="userSpaceOnUse">
<stop stop-color="white"/>
<stop offset="0.129" stop-color="#A09C99"/>
<stop offset="0.35" stop-color="white"/>
<stop offset="0.52" stop-color="#A09C99"/>
<stop offset="0.805" stop-color="#A09C99" stop-opacity="0.6"/>
<stop offset="1" stop-color="white"/>
</linearGradient>
<linearGradient id="paint24_linear_14_415" x1="1243.83" y1="3405.28" x2="1243.83" y2="2082.18" gradientUnits="userSpaceOnUse">
<stop stop-color="white"/>
<stop offset="0.129" stop-color="#A09C99"/>
<stop offset="0.35" stop-color="white"/>
<stop offset="0.52" stop-color="#A09C99"/>
<stop offset="0.805" stop-color="#A09C99" stop-opacity="0.6"/>
<stop offset="1" stop-color="white"/>
</linearGradient>
<linearGradient id="paint25_linear_14_415" x1="1332.68" y1="3450.25" x2="1332.68" y2="2127.16" gradientUnits="userSpaceOnUse">
<stop stop-color="white"/>
<stop offset="0.129" stop-color="#A09C99"/>
<stop offset="0.35" stop-color="white"/>
<stop offset="0.52" stop-color="#A09C99"/>
<stop offset="0.805" stop-color="#A09C99" stop-opacity="0.6"/>
<stop offset="1" stop-color="white"/>
</linearGradient>
<linearGradient id="paint26_linear_14_415" x1="3767.28" y1="2910.18" x2="3767.28" y2="1587.09" gradientUnits="userSpaceOnUse">
<stop stop-color="white"/>
<stop offset="0.129" stop-color="#A09C99"/>
<stop offset="0.35" stop-color="white"/>
<stop offset="0.52" stop-color="#A09C99"/>
<stop offset="0.805" stop-color="#A09C99" stop-opacity="0.6"/>
<stop offset="1" stop-color="white"/>
</linearGradient>
<linearGradient id="paint27_linear_14_415" x1="3697.6" y1="2955.22" x2="3697.6" y2="1632.12" gradientUnits="userSpaceOnUse">
<stop stop-color="white"/>
<stop offset="0.129" stop-color="#A09C99"/>
<stop offset="0.35" stop-color="white"/>
<stop offset="0.52" stop-color="#A09C99"/>
<stop offset="0.805" stop-color="#A09C99" stop-opacity="0.6"/>
<stop offset="1" stop-color="white"/>
</linearGradient>
<linearGradient id="paint28_linear_14_415" x1="3627.87" y1="3000.26" x2="3627.87" y2="1677.16" gradientUnits="userSpaceOnUse">
<stop stop-color="white"/>
<stop offset="0.129" stop-color="#A09C99"/>
<stop offset="0.35" stop-color="white"/>
<stop offset="0.52" stop-color="#A09C99"/>
<stop offset="0.805" stop-color="#A09C99" stop-opacity="0.6"/>
<stop offset="1" stop-color="white"/>
</linearGradient>
<linearGradient id="paint29_linear_14_415" x1="3558.18" y1="3045.29" x2="3558.18" y2="1722.2" gradientUnits="userSpaceOnUse">
<stop stop-color="white"/>
<stop offset="0.129" stop-color="#A09C99"/>
<stop offset="0.35" stop-color="white"/>
<stop offset="0.52" stop-color="#A09C99"/>
<stop offset="0.805" stop-color="#A09C99" stop-opacity="0.6"/>
<stop offset="1" stop-color="white"/>
</linearGradient>
<linearGradient id="paint30_linear_14_415" x1="3316.13" y1="3090.21" x2="3316.13" y2="1767.12" gradientUnits="userSpaceOnUse">
<stop stop-color="white"/>
<stop offset="0.129" stop-color="#A09C99"/>
<stop offset="0.35" stop-color="white"/>
<stop offset="0.52" stop-color="#A09C99"/>
<stop offset="0.805" stop-color="#A09C99" stop-opacity="0.6"/>
<stop offset="1" stop-color="white"/>
</linearGradient>
<linearGradient id="paint31_linear_14_415" x1="3093.12" y1="3135.24" x2="3093.12" y2="1812.15" gradientUnits="userSpaceOnUse">
<stop stop-color="white"/>
<stop offset="0.129" stop-color="#A09C99"/>
<stop offset="0.35" stop-color="white"/>
<stop offset="0.52" stop-color="#A09C99"/>
<stop offset="0.805" stop-color="#A09C99" stop-opacity="0.6"/>
<stop offset="1" stop-color="white"/>
</linearGradient>
<linearGradient id="paint32_linear_14_415" x1="2889.37" y1="3180.3" x2="2889.37" y2="1857.2" gradientUnits="userSpaceOnUse">
<stop stop-color="white"/>
<stop offset="0.129" stop-color="#A09C99"/>
<stop offset="0.35" stop-color="white"/>
<stop offset="0.52" stop-color="#A09C99"/>
<stop offset="0.805" stop-color="#A09C99" stop-opacity="0.6"/>
<stop offset="1" stop-color="white"/>
</linearGradient>
<linearGradient id="paint33_linear_14_415" x1="2704.64" y1="3225.27" x2="2704.64" y2="1902.18" gradientUnits="userSpaceOnUse">
<stop stop-color="white"/>
<stop offset="0.129" stop-color="#A09C99"/>
<stop offset="0.35" stop-color="white"/>
<stop offset="0.52" stop-color="#A09C99"/>
<stop offset="0.805" stop-color="#A09C99" stop-opacity="0.6"/>
<stop offset="1" stop-color="white"/>
</linearGradient>
<linearGradient id="paint34_linear_14_415" x1="2539.23" y1="3270.27" x2="2539.23" y2="1947.18" gradientUnits="userSpaceOnUse">
<stop stop-color="white"/>
<stop offset="0.129" stop-color="#A09C99"/>
<stop offset="0.35" stop-color="white"/>
<stop offset="0.52" stop-color="#A09C99"/>
<stop offset="0.805" stop-color="#A09C99" stop-opacity="0.6"/>
<stop offset="1" stop-color="white"/>
</linearGradient>
<linearGradient id="paint35_linear_14_415" x1="2392.91" y1="3315.25" x2="2392.91" y2="1992.16" gradientUnits="userSpaceOnUse">
<stop stop-color="white"/>
<stop offset="0.129" stop-color="#A09C99"/>
<stop offset="0.35" stop-color="white"/>
<stop offset="0.52" stop-color="#A09C99"/>
<stop offset="0.805" stop-color="#A09C99" stop-opacity="0.6"/>
<stop offset="1" stop-color="white"/>
</linearGradient>
<linearGradient id="paint36_linear_14_415" x1="2265.75" y1="3360.26" x2="2265.76" y2="2037.17" gradientUnits="userSpaceOnUse">
<stop stop-color="white"/>
<stop offset="0.129" stop-color="#A09C99"/>
<stop offset="0.35" stop-color="white"/>
<stop offset="0.52" stop-color="#A09C99"/>
<stop offset="0.805" stop-color="#A09C99" stop-opacity="0.6"/>
<stop offset="1" stop-color="white"/>
</linearGradient>
<linearGradient id="paint37_linear_14_415" x1="2138.61" y1="3405.28" x2="2138.61" y2="2082.18" gradientUnits="userSpaceOnUse">
<stop stop-color="white"/>
<stop offset="0.129" stop-color="#A09C99"/>
<stop offset="0.35" stop-color="white"/>
<stop offset="0.52" stop-color="#A09C99"/>
<stop offset="0.805" stop-color="#A09C99" stop-opacity="0.6"/>
<stop offset="1" stop-color="white"/>
</linearGradient>
<linearGradient id="paint38_linear_14_415" x1="2068.87" y1="3450.25" x2="2068.87" y2="2127.16" gradientUnits="userSpaceOnUse">
<stop stop-color="white"/>
<stop offset="0.129" stop-color="#A09C99"/>
<stop offset="0.35" stop-color="white"/>
<stop offset="0.52" stop-color="#A09C99"/>
<stop offset="0.805" stop-color="#A09C99" stop-opacity="0.6"/>
<stop offset="1" stop-color="white"/>
</linearGradient>
<linearGradient id="paint39_linear_14_415" x1="3767.28" y1="-507.111" x2="3767.28" y2="815.98" gradientUnits="userSpaceOnUse">
<stop stop-color="white"/>
<stop offset="0.129" stop-color="#A09C99"/>
<stop offset="0.35" stop-color="white"/>
<stop offset="0.52" stop-color="#A09C99"/>
<stop offset="0.805" stop-color="#A09C99" stop-opacity="0.6"/>
<stop offset="1" stop-color="white"/>
</linearGradient>
<linearGradient id="paint40_linear_14_415" x1="3697.6" y1="-552.09" x2="3697.59" y2="771.006" gradientUnits="userSpaceOnUse">
<stop stop-color="white"/>
<stop offset="0.129" stop-color="#A09C99"/>
<stop offset="0.35" stop-color="white"/>
<stop offset="0.52" stop-color="#A09C99"/>
<stop offset="0.805" stop-color="#A09C99" stop-opacity="0.6"/>
<stop offset="1" stop-color="white"/>
</linearGradient>
<linearGradient id="paint41_linear_14_415" x1="3627.87" y1="-597.144" x2="3627.87" y2="725.952" gradientUnits="userSpaceOnUse">
<stop stop-color="white"/>
<stop offset="0.129" stop-color="#A09C99"/>
<stop offset="0.35" stop-color="white"/>
<stop offset="0.52" stop-color="#A09C99"/>
<stop offset="0.805" stop-color="#A09C99" stop-opacity="0.6"/>
<stop offset="1" stop-color="white"/>
</linearGradient>
<linearGradient id="paint42_linear_14_415" x1="3558.18" y1="-642.138" x2="3558.18" y2="680.954" gradientUnits="userSpaceOnUse">
<stop stop-color="white"/>
<stop offset="0.129" stop-color="#A09C99"/>
<stop offset="0.35" stop-color="white"/>
<stop offset="0.52" stop-color="#A09C99"/>
<stop offset="0.805" stop-color="#A09C99" stop-opacity="0.6"/>
<stop offset="1" stop-color="white"/>
</linearGradient>
<linearGradient id="paint43_linear_14_415" x1="3316.09" y1="-687.212" x2="3316.09" y2="635.88" gradientUnits="userSpaceOnUse">
<stop stop-color="white"/>
<stop offset="0.129" stop-color="#A09C99"/>
<stop offset="0.35" stop-color="white"/>
<stop offset="0.52" stop-color="#A09C99"/>
<stop offset="0.805" stop-color="#A09C99" stop-opacity="0.6"/>
<stop offset="1" stop-color="white"/>
</linearGradient>
<linearGradient id="paint44_linear_14_415" x1="3093.12" y1="-732.13" x2="3093.12" y2="590.961" gradientUnits="userSpaceOnUse">
<stop stop-color="white"/>
<stop offset="0.129" stop-color="#A09C99"/>
<stop offset="0.35" stop-color="white"/>
<stop offset="0.52" stop-color="#A09C99"/>
<stop offset="0.805" stop-color="#A09C99" stop-opacity="0.6"/>
<stop offset="1" stop-color="white"/>
</linearGradient>
<linearGradient id="paint45_linear_14_415" x1="2889.37" y1="-777.204" x2="2889.37" y2="545.887" gradientUnits="userSpaceOnUse">
<stop stop-color="white"/>
<stop offset="0.129" stop-color="#A09C99"/>
<stop offset="0.35" stop-color="white"/>
<stop offset="0.52" stop-color="#A09C99"/>
<stop offset="0.805" stop-color="#A09C99" stop-opacity="0.6"/>
<stop offset="1" stop-color="white"/>
</linearGradient>
<linearGradient id="paint46_linear_14_415" x1="2704.64" y1="-822.183" x2="2704.64" y2="500.911" gradientUnits="userSpaceOnUse">
<stop stop-color="white"/>
<stop offset="0.129" stop-color="#A09C99"/>
<stop offset="0.35" stop-color="white"/>
<stop offset="0.52" stop-color="#A09C99"/>
<stop offset="0.805" stop-color="#A09C99" stop-opacity="0.6"/>
<stop offset="1" stop-color="white"/>
</linearGradient>
<linearGradient id="paint47_linear_14_415" x1="2539.23" y1="-867.197" x2="2539.23" y2="455.895" gradientUnits="userSpaceOnUse">
<stop stop-color="white"/>
<stop offset="0.129" stop-color="#A09C99"/>
<stop offset="0.35" stop-color="white"/>
<stop offset="0.52" stop-color="#A09C99"/>
<stop offset="0.805" stop-color="#A09C99" stop-opacity="0.6"/>
<stop offset="1" stop-color="white"/>
</linearGradient>
<linearGradient id="paint48_linear_14_415" x1="2392.91" y1="-912.135" x2="2392.91" y2="410.958" gradientUnits="userSpaceOnUse">
<stop stop-color="white"/>
<stop offset="0.129" stop-color="#A09C99"/>
<stop offset="0.35" stop-color="white"/>
<stop offset="0.52" stop-color="#A09C99"/>
<stop offset="0.805" stop-color="#A09C99" stop-opacity="0.6"/>
<stop offset="1" stop-color="white"/>
</linearGradient>
<linearGradient id="paint49_linear_14_415" x1="2265.75" y1="-957.149" x2="2265.75" y2="365.942" gradientUnits="userSpaceOnUse">
<stop stop-color="white"/>
<stop offset="0.129" stop-color="#A09C99"/>
<stop offset="0.35" stop-color="white"/>
<stop offset="0.52" stop-color="#A09C99"/>
<stop offset="0.805" stop-color="#A09C99" stop-opacity="0.6"/>
<stop offset="1" stop-color="white"/>
</linearGradient>
<linearGradient id="paint50_linear_14_415" x1="2157.77" y1="-1002.17" x2="2157.77" y2="320.927" gradientUnits="userSpaceOnUse">
<stop stop-color="white"/>
<stop offset="0.129" stop-color="#A09C99"/>
<stop offset="0.35" stop-color="white"/>
<stop offset="0.52" stop-color="#A09C99"/>
<stop offset="0.805" stop-color="#A09C99" stop-opacity="0.6"/>
<stop offset="1" stop-color="white"/>
</linearGradient>
<linearGradient id="paint51_linear_14_415" x1="2068.87" y1="-1047.18" x2="2068.87" y2="275.911" gradientUnits="userSpaceOnUse">
<stop stop-color="white"/>
<stop offset="0.129" stop-color="#A09C99"/>
<stop offset="0.35" stop-color="white"/>
<stop offset="0.52" stop-color="#A09C99"/>
<stop offset="0.805" stop-color="#A09C99" stop-opacity="0.6"/>
<stop offset="1" stop-color="white"/>
</linearGradient>
<clipPath id="clip0_14_415">
<rect width="3400" height="2400" fill="white"/>
</clipPath>
</defs>
</svg>
