<?xml version="1.0" encoding="UTF-8"?>
<svg id="Layer_1" data-name="Layer 1" xmlns="http://www.w3.org/2000/svg" viewBox="0 0 1292.57 1080">
  <path d="M337.09,604.08v-61.39c-.18-14.18-3.55-26.93-10.1-38.23l-20.73,11.17c4.4,7.99,6.6,17.01,6.6,27.06s-2.2,18.81-6.6,26.79c-4.4,7.99-10.37,14.27-17.9,18.85-7.54,4.58-16.15,6.87-25.85,6.87s-17.86-2.29-25.58-6.87c-7.72-4.58-13.78-10.86-18.17-18.85-4.4-7.98-6.6-16.92-6.6-26.79s2.2-19.07,6.6-27.06c4.4-7.98,10.45-14.27,18.17-18.85,7.72-4.58,16.24-6.87,25.58-6.87v-22.08c-14,0-26.61,3.28-37.83,9.83-11.22,6.55-20.11,15.44-26.66,26.66-6.55,11.22-9.83,24.01-9.83,38.37s3.05,26.93,9.15,38.23c6.1,11.31,14.45,20.19,25.04,26.66,10.59,6.46,22.62,9.69,36.08,9.69s24.81-3.14,35.14-9.42c7.17-4.37,13.31-9.89,18.44-16.51v25.94h25.04v-13.19Z"/>
  <rect x="409.52" y="475.38" width="34.46" height="21.26"/>
  <rect x="384.75" y="496.65" width="24.77" height="120.62"/>
  <path d="M443.98,406.99v22.62c-7.19,0-13.32,1.62-18.45,4.85-5.11,3.23-9.07,7.76-11.85,13.59-2.78,5.84-4.17,12.71-4.17,20.6v6.74h-24.77v-4.85c0-12.75,2.42-23.87,7.26-33.39,4.85-9.52,11.72-16.92,20.6-22.22,8.89-5.3,19.34-7.94,31.37-7.94Z"/>
  <rect x="492.58" y="475.38" width="34.46" height="21.26"/>
  <rect x="945.19" y="475.38" width="34.46" height="21.26"/>
  <rect x="467.81" y="496.65" width="24.77" height="120.62"/>
  <path d="M527.05,406.99v22.62c-7.19,0-13.32,1.62-18.45,4.85-5.11,3.23-9.07,7.76-11.85,13.59-2.78,5.84-4.17,12.71-4.17,20.6v6.74h-24.77v-4.85c0-12.75,2.42-23.87,7.26-33.39,4.85-9.52,11.72-16.92,20.6-22.22,8.89-5.3,19.34-7.94,31.37-7.94Z"/>
  <path d="M590.72,440.11c-4.49,0-8.35-1.62-11.58-4.85-3.23-3.23-4.85-7.18-4.85-11.85s1.66-8.57,4.98-11.71c3.32-3.14,7.22-4.71,11.71-4.71s8.12,1.57,11.44,4.71c3.32,3.14,4.98,7.05,4.98,11.71s-1.62,8.62-4.85,11.85c-3.23,3.23-7.18,4.85-11.85,4.85Z"/>
  <rect x="578.33" y="467.3" width="25.04" height="149.98"/>
  <path d="M856.33,440.11c-4.49,0-8.35-1.62-11.58-4.85-3.23-3.23-4.85-7.18-4.85-11.85s1.66-8.57,4.98-11.71c3.32-3.14,7.22-4.71,11.71-4.71s8.12,1.57,11.44,4.71c3.32,3.14,4.98,7.05,4.98,11.71s-1.62,8.62-4.85,11.85c-3.23,3.23-7.18,4.85-11.85,4.85Z"/>
  <rect x="843.94" y="467.3" width="25.04" height="149.98"/>
  <polygon points="1145.06 465.68 1057.61 673.01 1030.44 673.01 1062.38 597.29 998.86 465.89 1026.58 465.68 1075.34 566.56 1118.65 463.86 1145.06 465.68"/>
  <path d="M792.24,536.23v81.04h-25.03v-81.04c0-.33,0-.65-.01-.98-.03-2.74-.19-5.35-.49-7.81-.01-.04-.01-.08-.03-.11-3.27-21.01-21.44-37.09-43.37-37.09-24.23,0-43.88,19.65-43.88,43.89v83.14h-24.77v-141.89h24.77v11.22c4.31-4.47,9.32-8.27,15.08-11.36,9.51-5.12,20.19-7.68,32.03-7.68,12.56,0,23.78,2.65,33.66,7.94,9.87,5.3,17.67,13.06,23.42,23.29,5.75,10.23,8.62,22.72,8.62,37.43Z"/>
  <rect x="920.68" y="440.1" width="24.51" height="35.28"/>
  <path d="M968.88,591.7v24.5c-9.15,0-17.42-2.28-24.77-6.86-7.36-4.58-13.11-10.77-17.23-18.58-4.13-7.8-6.2-16.73-6.2-26.79v-67.31h24.51v67.31c0,8.08,2.24,14.73,6.73,19.92,4.48,5.21,10.14,7.81,16.97,7.81Z"/>
</svg>