<?xml version="1.0" encoding="UTF-8"?>
<svg id="Layer_1" data-name="Layer 1" xmlns="http://www.w3.org/2000/svg" viewBox="0 0 3471 3447.83">
  <defs>
    <style>
      .cls-1 {
        fill: #0b1951;
      }
    </style>
  </defs>
  <g>
    <rect class="cls-1" x="496.58" y="2699.44" width="69.68" height="42.99"/>
    <path class="cls-1" d="M566.26,2561.17v45.73c-14.53,0-26.94,3.27-37.29,9.8-10.33,6.53-18.33,15.7-23.95,27.47-5.62,11.8-8.43,25.7-8.43,41.65v13.62h-50.08v-9.8c0-25.77,4.89-48.26,14.69-67.5,9.8-19.24,23.7-34.21,41.65-44.92,17.98-10.71,39.09-16.05,63.42-16.05Z"/>
  </g>
  <g>
    <rect class="cls-1" x="566.26" y="2492.04" width="69.68" height="42.99"/>
    <path class="cls-1" d="M566.26,2673.3v-45.73c14.53,0,26.94-3.27,37.29-9.8,10.33-6.53,18.33-15.7,23.95-27.47,5.62-11.8,8.43-25.7,8.43-41.65v-13.62h50.08v9.8c0,25.77-4.89,48.26-14.69,67.5-9.8,19.24-23.7,34.21-41.65,44.92-17.98,10.71-39.09,16.05-63.42,16.05Z"/>
  </g>
  <g>
    <rect class="cls-1" x="496.58" y="2449.05" width="69.68" height="42.99"/>
    <path class="cls-1" d="M566.26,2310.78v45.73c-14.53,0-26.94,3.27-37.29,9.8-10.33,6.53-18.33,15.7-23.95,27.47-5.62,11.8-8.43,25.7-8.43,41.65v13.62h-50.08v-9.8c0-25.77,4.89-48.26,14.69-67.5,9.8-19.24,23.7-34.21,41.65-44.92,17.98-10.71,39.09-16.05,63.42-16.05Z"/>
  </g>
  <g>
    <rect class="cls-1" x="566.26" y="2241.65" width="69.68" height="42.99"/>
    <path class="cls-1" d="M566.26,2422.91v-45.73c14.53,0,26.94-3.27,37.29-9.8,10.33-6.53,18.33-15.7,23.95-27.47,5.62-11.8,8.43-25.7,8.43-41.65v-13.62h50.08v9.8c0,25.77-4.89,48.26-14.69,67.5-9.8,19.24-23.7,34.21-41.65,44.92-17.98,10.71-39.09,16.05-63.42,16.05Z"/>
  </g>
  <g>
    <rect class="cls-1" x="496.58" y="2198.66" width="69.68" height="42.99"/>
    <path class="cls-1" d="M566.26,2060.4v45.73c-14.53,0-26.94,3.27-37.29,9.8-10.33,6.53-18.33,15.7-23.95,27.47-5.62,11.8-8.43,25.7-8.43,41.65v13.62h-50.08v-9.8c0-25.77,4.89-48.26,14.69-67.5,9.8-19.24,23.7-34.21,41.65-44.92,17.98-10.71,39.09-16.05,63.42-16.05Z"/>
  </g>
  <g>
    <rect class="cls-1" x="566.26" y="1991.26" width="69.68" height="42.99"/>
    <path class="cls-1" d="M566.26,2172.52v-45.73c14.53,0,26.94-3.27,37.29-9.8,10.33-6.53,18.33-15.7,23.95-27.47,5.62-11.8,8.43-25.7,8.43-41.65v-13.62h50.08v9.8c0,25.77-4.89,48.26-14.69,67.5-9.8,19.24-23.7,34.21-41.65,44.92-17.98,10.71-39.09,16.05-63.42,16.05Z"/>
  </g>
  <g>
    <rect class="cls-1" x="496.58" y="1948.27" width="69.68" height="42.99"/>
    <path class="cls-1" d="M566.26,1810.01v45.73c-14.53,0-26.94,3.27-37.29,9.8-10.33,6.53-18.33,15.7-23.95,27.47-5.62,11.8-8.43,25.7-8.43,41.65v13.62h-50.08v-9.8c0-25.77,4.89-48.26,14.69-67.5,9.8-19.24,23.7-34.21,41.65-44.92,17.98-10.71,39.09-16.05,63.42-16.05Z"/>
  </g>
  <g>
    <rect class="cls-1" x="566.26" y="1740.88" width="69.68" height="42.99"/>
    <path class="cls-1" d="M566.26,1922.13v-45.73c14.53,0,26.94-3.27,37.29-9.8,10.33-6.53,18.33-15.7,23.95-27.47,5.62-11.8,8.43-25.7,8.43-41.65v-13.62h50.08v9.8c0,25.77-4.89,48.26-14.69,67.5-9.8,19.24-23.7,34.21-41.65,44.92-17.98,10.71-39.09,16.05-63.42,16.05Z"/>
  </g>
  <g>
    <rect class="cls-1" x="496.58" y="1697.89" width="69.68" height="42.99"/>
    <path class="cls-1" d="M566.26,1559.62v45.73c-14.53,0-26.94,3.27-37.29,9.8-10.33,6.53-18.33,15.7-23.95,27.47-5.62,11.8-8.43,25.7-8.43,41.65v13.62h-50.08v-9.8c0-25.77,4.89-48.26,14.69-67.5,9.8-19.24,23.7-34.21,41.65-44.92,17.98-10.71,39.09-16.05,63.42-16.05Z"/>
  </g>
  <g>
    <rect class="cls-1" x="566.26" y="1490.49" width="69.68" height="42.99"/>
    <path class="cls-1" d="M566.26,1671.74v-45.73c14.53,0,26.94-3.27,37.29-9.8,10.33-6.53,18.33-15.7,23.95-27.47,5.62-11.8,8.43-25.7,8.43-41.65v-13.62h50.08v9.8c0,25.77-4.89,48.26-14.69,67.5-9.8,19.24-23.7,34.21-41.65,44.92-17.98,10.71-39.09,16.05-63.42,16.05Z"/>
  </g>
  <g>
    <rect class="cls-1" x="496.58" y="1447.5" width="69.68" height="42.99"/>
    <path class="cls-1" d="M566.26,1309.23v45.73c-14.53,0-26.94,3.27-37.29,9.8-10.33,6.53-18.33,15.7-23.95,27.47-5.62,11.8-8.43,25.7-8.43,41.65v13.62h-50.08v-9.8c0-25.77,4.89-48.26,14.69-67.5,9.8-19.24,23.7-34.21,41.65-44.92,17.98-10.71,39.09-16.05,63.42-16.05Z"/>
  </g>
  <g>
    <rect class="cls-1" x="566.26" y="1240.1" width="69.68" height="42.99"/>
    <path class="cls-1" d="M566.26,1421.36v-45.73c14.53,0,26.94-3.27,37.29-9.8,10.33-6.53,18.33-15.7,23.95-27.47,5.62-11.8,8.43-25.7,8.43-41.65v-13.62h50.08v9.8c0,25.77-4.89,48.26-14.69,67.5-9.8,19.24-23.7,34.21-41.65,44.92-17.98,10.71-39.09,16.05-63.42,16.05Z"/>
  </g>
  <g>
    <rect class="cls-1" x="496.58" y="1197.11" width="69.68" height="42.99"/>
    <path class="cls-1" d="M566.26,1058.85v45.73c-14.53,0-26.94,3.27-37.29,9.8-10.33,6.53-18.33,15.7-23.95,27.47-5.62,11.8-8.43,25.7-8.43,41.65v13.62h-50.08v-9.8c0-25.77,4.89-48.26,14.69-67.5,9.8-19.24,23.7-34.21,41.65-44.92,17.98-10.71,39.09-16.05,63.42-16.05Z"/>
  </g>
  <g>
    <rect class="cls-1" x="566.26" y="989.71" width="69.68" height="42.99"/>
    <path class="cls-1" d="M566.26,1170.97v-45.73c14.53,0,26.94-3.27,37.29-9.8,10.33-6.53,18.33-15.7,23.95-27.47,5.62-11.8,8.43-25.7,8.43-41.65v-13.62h50.08v9.8c0,25.77-4.89,48.26-14.69,67.5-9.8,19.24-23.7,34.21-41.65,44.92-17.98,10.71-39.09,16.05-63.42,16.05Z"/>
  </g>
  <g>
    <rect class="cls-1" x="496.58" y="946.72" width="69.68" height="42.99"/>
    <path class="cls-1" d="M566.26,808.46v45.73c-14.53,0-26.94,3.27-37.29,9.8-10.33,6.53-18.33,15.7-23.95,27.47-5.62,11.8-8.43,25.7-8.43,41.65v13.62h-50.08v-9.8c0-25.77,4.89-48.26,14.69-67.5,9.8-19.24,23.7-34.21,41.65-44.92,17.98-10.71,39.09-16.05,63.42-16.05Z"/>
  </g>
  <g>
    <rect class="cls-1" x="566.26" y="739.32" width="69.68" height="42.99"/>
    <path class="cls-1" d="M566.26,920.58v-45.73c14.53,0,26.94-3.27,37.29-9.8,10.33-6.53,18.33-15.7,23.95-27.47,5.62-11.8,8.43-25.7,8.43-41.65v-13.62h50.08v9.8c0,25.77-4.89,48.26-14.69,67.5-9.8,19.24-23.7,34.21-41.65,44.92-17.98,10.71-39.09,16.05-63.42,16.05Z"/>
  </g>
  <g>
    <rect class="cls-1" x="805.77" y="739.32" width="69.68" height="42.99"/>
    <path class="cls-1" d="M805.77,920.58v-45.73c14.53,0,26.94-3.27,37.29-9.8,10.33-6.53,18.33-15.7,23.95-27.47,5.62-11.8,8.43-25.7,8.43-41.65v-13.62h50.08v9.8c0,25.77-4.89,48.26-14.69,67.5-9.8,19.24-23.7,34.21-41.65,44.92-17.98,10.71-39.09,16.05-63.42,16.05Z"/>
  </g>
  <g>
    <rect class="cls-1" x="736.1" y="946.72" width="69.68" height="42.99"/>
    <path class="cls-1" d="M805.77,808.46v45.73c-14.53,0-26.94,3.27-37.29,9.8-10.33,6.53-18.33,15.7-23.95,27.47-5.62,11.8-8.43,25.7-8.43,41.65v13.62h-50.08v-9.8c0-25.77,4.89-48.26,14.69-67.5,9.8-19.24,23.7-34.21,41.65-44.92,17.98-10.71,39.09-16.05,63.42-16.05Z"/>
  </g>
  <g>
    <rect class="cls-1" x="805.77" y="989.71" width="69.68" height="42.99"/>
    <path class="cls-1" d="M805.77,1170.97v-45.73c14.53,0,26.94-3.27,37.29-9.8,10.33-6.53,18.33-15.7,23.95-27.47,5.62-11.8,8.43-25.7,8.43-41.65v-13.62h50.08v9.8c0,25.77-4.89,48.26-14.69,67.5-9.8,19.24-23.7,34.21-41.65,44.92-17.98,10.71-39.09,16.05-63.42,16.05Z"/>
  </g>
  <g>
    <rect class="cls-1" x="736.1" y="1197.11" width="69.68" height="42.99"/>
    <path class="cls-1" d="M805.77,1058.85v45.73c-14.53,0-26.94,3.27-37.29,9.8-10.33,6.53-18.33,15.7-23.95,27.47-5.62,11.8-8.43,25.7-8.43,41.65v13.62h-50.08v-9.8c0-25.77,4.89-48.26,14.69-67.5,9.8-19.24,23.7-34.21,41.65-44.92,17.98-10.71,39.09-16.05,63.42-16.05Z"/>
  </g>
  <g>
    <rect class="cls-1" x="805.77" y="1240.1" width="69.68" height="42.99"/>
    <path class="cls-1" d="M805.77,1421.36v-45.73c14.53,0,26.94-3.27,37.29-9.8,10.33-6.53,18.33-15.7,23.95-27.47,5.62-11.8,8.43-25.7,8.43-41.65v-13.62h50.08v9.8c0,25.77-4.89,48.26-14.69,67.5-9.8,19.24-23.7,34.21-41.65,44.92-17.98,10.71-39.09,16.05-63.42,16.05Z"/>
  </g>
  <g>
    <rect class="cls-1" x="736.1" y="1447.5" width="69.68" height="42.99"/>
    <path class="cls-1" d="M805.77,1309.23v45.73c-14.53,0-26.94,3.27-37.29,9.8-10.33,6.53-18.33,15.7-23.95,27.47-5.62,11.8-8.43,25.7-8.43,41.65v13.62h-50.08v-9.8c0-25.77,4.89-48.26,14.69-67.5,9.8-19.24,23.7-34.21,41.65-44.92,17.98-10.71,39.09-16.05,63.42-16.05Z"/>
  </g>
  <g>
    <rect class="cls-1" x="805.77" y="1490.49" width="69.68" height="42.99"/>
    <path class="cls-1" d="M805.77,1671.74v-45.73c14.53,0,26.94-3.27,37.29-9.8,10.33-6.53,18.33-15.7,23.95-27.47,5.62-11.8,8.43-25.7,8.43-41.65v-13.62h50.08v9.8c0,25.77-4.89,48.26-14.69,67.5-9.8,19.24-23.7,34.21-41.65,44.92-17.98,10.71-39.09,16.05-63.42,16.05Z"/>
  </g>
  <g>
    <rect class="cls-1" x="736.1" y="1697.89" width="69.68" height="42.99"/>
    <path class="cls-1" d="M805.77,1559.62v45.73c-14.53,0-26.94,3.27-37.29,9.8-10.33,6.53-18.33,15.7-23.95,27.47-5.62,11.8-8.43,25.7-8.43,41.65v13.62h-50.08v-9.8c0-25.77,4.89-48.26,14.69-67.5,9.8-19.24,23.7-34.21,41.65-44.92,17.98-10.71,39.09-16.05,63.42-16.05Z"/>
  </g>
  <g>
    <rect class="cls-1" x="805.77" y="1740.88" width="69.68" height="42.99"/>
    <path class="cls-1" d="M805.77,1922.13v-45.73c14.53,0,26.94-3.27,37.29-9.8,10.33-6.53,18.33-15.7,23.95-27.47,5.62-11.8,8.43-25.7,8.43-41.65v-13.62h50.08v9.8c0,25.77-4.89,48.26-14.69,67.5-9.8,19.24-23.7,34.21-41.65,44.92-17.98,10.71-39.09,16.05-63.42,16.05Z"/>
  </g>
  <g>
    <rect class="cls-1" x="736.1" y="1948.27" width="69.68" height="42.99"/>
    <path class="cls-1" d="M805.77,1810.01v45.73c-14.53,0-26.94,3.27-37.29,9.8-10.33,6.53-18.33,15.7-23.95,27.47-5.62,11.8-8.43,25.7-8.43,41.65v13.62h-50.08v-9.8c0-25.77,4.89-48.26,14.69-67.5,9.8-19.24,23.7-34.21,41.65-44.92,17.98-10.71,39.09-16.05,63.42-16.05Z"/>
  </g>
  <g>
    <rect class="cls-1" x="805.77" y="1991.26" width="69.68" height="42.99"/>
    <path class="cls-1" d="M805.77,2172.52v-45.73c14.53,0,26.94-3.27,37.29-9.8,10.33-6.53,18.33-15.7,23.95-27.47,5.62-11.8,8.43-25.7,8.43-41.65v-13.62h50.08v9.8c0,25.77-4.89,48.26-14.69,67.5-9.8,19.24-23.7,34.21-41.65,44.92-17.98,10.71-39.09,16.05-63.42,16.05Z"/>
  </g>
  <g>
    <rect class="cls-1" x="736.1" y="2198.66" width="69.68" height="42.99"/>
    <path class="cls-1" d="M805.77,2060.4v45.73c-14.53,0-26.94,3.27-37.29,9.8-10.33,6.53-18.33,15.7-23.95,27.47-5.62,11.8-8.43,25.7-8.43,41.65v13.62h-50.08v-9.8c0-25.77,4.89-48.26,14.69-67.5,9.8-19.24,23.7-34.21,41.65-44.92,17.98-10.71,39.09-16.05,63.42-16.05Z"/>
  </g>
  <g>
    <rect class="cls-1" x="805.77" y="2241.65" width="69.68" height="42.99"/>
    <path class="cls-1" d="M805.77,2422.91v-45.73c14.53,0,26.94-3.27,37.29-9.8,10.33-6.53,18.33-15.7,23.95-27.47,5.62-11.8,8.43-25.7,8.43-41.65v-13.62h50.08v9.8c0,25.77-4.89,48.26-14.69,67.5-9.8,19.24-23.7,34.21-41.65,44.92-17.98,10.71-39.09,16.05-63.42,16.05Z"/>
  </g>
  <g>
    <rect class="cls-1" x="736.1" y="2449.05" width="69.68" height="42.99"/>
    <path class="cls-1" d="M805.77,2310.78v45.73c-14.53,0-26.94,3.27-37.29,9.8-10.33,6.53-18.33,15.7-23.95,27.47-5.62,11.8-8.43,25.7-8.43,41.65v13.62h-50.08v-9.8c0-25.77,4.89-48.26,14.69-67.5,9.8-19.24,23.7-34.21,41.65-44.92,17.98-10.71,39.09-16.05,63.42-16.05Z"/>
  </g>
  <g>
    <rect class="cls-1" x="805.77" y="2492.04" width="69.68" height="42.99"/>
    <path class="cls-1" d="M805.77,2673.3v-45.73c14.53,0,26.94-3.27,37.29-9.8,10.33-6.53,18.33-15.7,23.95-27.47,5.62-11.8,8.43-25.7,8.43-41.65v-13.62h50.08v9.8c0,25.77-4.89,48.26-14.69,67.5-9.8,19.24-23.7,34.21-41.65,44.92-17.98,10.71-39.09,16.05-63.42,16.05Z"/>
  </g>
  <g>
    <rect class="cls-1" x="736.1" y="2699.44" width="69.68" height="42.99"/>
    <path class="cls-1" d="M805.77,2561.17v45.73c-14.53,0-26.94,3.27-37.29,9.8-10.33,6.53-18.33,15.7-23.95,27.47-5.62,11.8-8.43,25.7-8.43,41.65v13.62h-50.08v-9.8c0-25.77,4.89-48.26,14.69-67.5,9.8-19.24,23.7-34.21,41.65-44.92,17.98-10.71,39.09-16.05,63.42-16.05Z"/>
  </g>
  <g>
    <rect class="cls-1" x="1045.29" y="739.32" width="69.68" height="42.99"/>
    <path class="cls-1" d="M1045.29,920.58v-45.73c14.53,0,26.94-3.27,37.29-9.8,10.33-6.53,18.33-15.7,23.95-27.47,5.62-11.8,8.43-25.7,8.43-41.65v-13.62h50.08v9.8c0,25.77-4.89,48.26-14.69,67.5-9.8,19.24-23.7,34.21-41.65,44.92-17.98,10.71-39.09,16.05-63.42,16.05Z"/>
  </g>
  <g>
    <rect class="cls-1" x="975.61" y="946.72" width="69.68" height="42.99"/>
    <path class="cls-1" d="M1045.29,808.46v45.73c-14.53,0-26.94,3.27-37.29,9.8-10.33,6.53-18.33,15.7-23.95,27.47-5.62,11.8-8.43,25.7-8.43,41.65v13.62h-50.08v-9.8c0-25.77,4.89-48.26,14.69-67.5,9.8-19.24,23.7-34.21,41.65-44.92,17.98-10.71,39.09-16.05,63.42-16.05Z"/>
  </g>
  <g>
    <rect class="cls-1" x="1045.29" y="989.71" width="69.68" height="42.99"/>
    <path class="cls-1" d="M1045.29,1170.97v-45.73c14.53,0,26.94-3.27,37.29-9.8,10.33-6.53,18.33-15.7,23.95-27.47,5.62-11.8,8.43-25.7,8.43-41.65v-13.62h50.08v9.8c0,25.77-4.89,48.26-14.69,67.5-9.8,19.24-23.7,34.21-41.65,44.92-17.98,10.71-39.09,16.05-63.42,16.05Z"/>
  </g>
  <g>
    <rect class="cls-1" x="975.61" y="1197.11" width="69.68" height="42.99"/>
    <path class="cls-1" d="M1045.29,1058.85v45.73c-14.53,0-26.94,3.27-37.29,9.8-10.33,6.53-18.33,15.7-23.95,27.47-5.62,11.8-8.43,25.7-8.43,41.65v13.62h-50.08v-9.8c0-25.77,4.89-48.26,14.69-67.5,9.8-19.24,23.7-34.21,41.65-44.92,17.98-10.71,39.09-16.05,63.42-16.05Z"/>
  </g>
  <g>
    <rect class="cls-1" x="1045.29" y="1240.1" width="69.68" height="42.99"/>
    <path class="cls-1" d="M1045.29,1421.36v-45.73c14.53,0,26.94-3.27,37.29-9.8,10.33-6.53,18.33-15.7,23.95-27.47,5.62-11.8,8.43-25.7,8.43-41.65v-13.62h50.08v9.8c0,25.77-4.89,48.26-14.69,67.5-9.8,19.24-23.7,34.21-41.65,44.92-17.98,10.71-39.09,16.05-63.42,16.05Z"/>
  </g>
  <g>
    <rect class="cls-1" x="975.61" y="1447.5" width="69.68" height="42.99"/>
    <path class="cls-1" d="M1045.29,1309.23v45.73c-14.53,0-26.94,3.27-37.29,9.8-10.33,6.53-18.33,15.7-23.95,27.47-5.62,11.8-8.43,25.7-8.43,41.65v13.62h-50.08v-9.8c0-25.77,4.89-48.26,14.69-67.5,9.8-19.24,23.7-34.21,41.65-44.92,17.98-10.71,39.09-16.05,63.42-16.05Z"/>
  </g>
  <g>
    <rect class="cls-1" x="1045.29" y="1490.49" width="69.68" height="42.99"/>
    <path class="cls-1" d="M1045.29,1671.74v-45.73c14.53,0,26.94-3.27,37.29-9.8,10.33-6.53,18.33-15.7,23.95-27.47,5.62-11.8,8.43-25.7,8.43-41.65v-13.62h50.08v9.8c0,25.77-4.89,48.26-14.69,67.5-9.8,19.24-23.7,34.21-41.65,44.92-17.98,10.71-39.09,16.05-63.42,16.05Z"/>
  </g>
  <g>
    <rect class="cls-1" x="975.61" y="1697.89" width="69.68" height="42.99"/>
    <path class="cls-1" d="M1045.29,1559.62v45.73c-14.53,0-26.94,3.27-37.29,9.8-10.33,6.53-18.33,15.7-23.95,27.47-5.62,11.8-8.43,25.7-8.43,41.65v13.62h-50.08v-9.8c0-25.77,4.89-48.26,14.69-67.5,9.8-19.24,23.7-34.21,41.65-44.92,17.98-10.71,39.09-16.05,63.42-16.05Z"/>
  </g>
  <g>
    <rect class="cls-1" x="1045.29" y="1740.88" width="69.68" height="42.99"/>
    <path class="cls-1" d="M1045.29,1922.13v-45.73c14.53,0,26.94-3.27,37.29-9.8,10.33-6.53,18.33-15.7,23.95-27.47,5.62-11.8,8.43-25.7,8.43-41.65v-13.62h50.08v9.8c0,25.77-4.89,48.26-14.69,67.5-9.8,19.24-23.7,34.21-41.65,44.92-17.98,10.71-39.09,16.05-63.42,16.05Z"/>
  </g>
  <g>
    <rect class="cls-1" x="975.61" y="1948.27" width="69.68" height="42.99"/>
    <path class="cls-1" d="M1045.29,1810.01v45.73c-14.53,0-26.94,3.27-37.29,9.8-10.33,6.53-18.33,15.7-23.95,27.47-5.62,11.8-8.43,25.7-8.43,41.65v13.62h-50.08v-9.8c0-25.77,4.89-48.26,14.69-67.5,9.8-19.24,23.7-34.21,41.65-44.92,17.98-10.71,39.09-16.05,63.42-16.05Z"/>
  </g>
  <g>
    <rect class="cls-1" x="1045.29" y="1991.26" width="69.68" height="42.99"/>
    <path class="cls-1" d="M1045.29,2172.52v-45.73c14.53,0,26.94-3.27,37.29-9.8,10.33-6.53,18.33-15.7,23.95-27.47,5.62-11.8,8.43-25.7,8.43-41.65v-13.62h50.08v9.8c0,25.77-4.89,48.26-14.69,67.5-9.8,19.24-23.7,34.21-41.65,44.92-17.98,10.71-39.09,16.05-63.42,16.05Z"/>
  </g>
  <g>
    <rect class="cls-1" x="975.61" y="2198.66" width="69.68" height="42.99"/>
    <path class="cls-1" d="M1045.29,2060.4v45.73c-14.53,0-26.94,3.27-37.29,9.8-10.33,6.53-18.33,15.7-23.95,27.47-5.62,11.8-8.43,25.7-8.43,41.65v13.62h-50.08v-9.8c0-25.77,4.89-48.26,14.69-67.5,9.8-19.24,23.7-34.21,41.65-44.92,17.98-10.71,39.09-16.05,63.42-16.05Z"/>
  </g>
  <g>
    <rect class="cls-1" x="1045.29" y="2241.65" width="69.68" height="42.99"/>
    <path class="cls-1" d="M1045.29,2422.91v-45.73c14.53,0,26.94-3.27,37.29-9.8,10.33-6.53,18.33-15.7,23.95-27.47,5.62-11.8,8.43-25.7,8.43-41.65v-13.62h50.08v9.8c0,25.77-4.89,48.26-14.69,67.5-9.8,19.24-23.7,34.21-41.65,44.92-17.98,10.71-39.09,16.05-63.42,16.05Z"/>
  </g>
  <g>
    <rect class="cls-1" x="975.61" y="2449.05" width="69.68" height="42.99"/>
    <path class="cls-1" d="M1045.29,2310.78v45.73c-14.53,0-26.94,3.27-37.29,9.8-10.33,6.53-18.33,15.7-23.95,27.47-5.62,11.8-8.43,25.7-8.43,41.65v13.62h-50.08v-9.8c0-25.77,4.89-48.26,14.69-67.5,9.8-19.24,23.7-34.21,41.65-44.92,17.98-10.71,39.09-16.05,63.42-16.05Z"/>
  </g>
  <g>
    <rect class="cls-1" x="1045.29" y="2492.04" width="69.68" height="42.99"/>
    <path class="cls-1" d="M1045.29,2673.3v-45.73c14.53,0,26.94-3.27,37.29-9.8,10.33-6.53,18.33-15.7,23.95-27.47,5.62-11.8,8.43-25.7,8.43-41.65v-13.62h50.08v9.8c0,25.77-4.89,48.26-14.69,67.5-9.8,19.24-23.7,34.21-41.65,44.92-17.98,10.71-39.09,16.05-63.42,16.05Z"/>
  </g>
  <g>
    <rect class="cls-1" x="975.61" y="2699.44" width="69.68" height="42.99"/>
    <path class="cls-1" d="M1045.29,2561.17v45.73c-14.53,0-26.94,3.27-37.29,9.8-10.33,6.53-18.33,15.7-23.95,27.47-5.62,11.8-8.43,25.7-8.43,41.65v13.62h-50.08v-9.8c0-25.77,4.89-48.26,14.69-67.5,9.8-19.24,23.7-34.21,41.65-44.92,17.98-10.71,39.09-16.05,63.42-16.05Z"/>
  </g>
  <g>
    <rect class="cls-1" x="1284.8" y="739.32" width="69.68" height="42.99"/>
    <path class="cls-1" d="M1284.8,920.58v-45.73c14.53,0,26.94-3.27,37.29-9.8,10.33-6.53,18.33-15.7,23.95-27.47,5.62-11.8,8.43-25.7,8.43-41.65v-13.62h50.08v9.8c0,25.77-4.89,48.26-14.69,67.5-9.8,19.24-23.7,34.21-41.65,44.92-17.98,10.71-39.09,16.05-63.42,16.05Z"/>
  </g>
  <g>
    <rect class="cls-1" x="1215.13" y="946.72" width="69.68" height="42.99"/>
    <path class="cls-1" d="M1284.8,808.46v45.73c-14.53,0-26.94,3.27-37.29,9.8-10.33,6.53-18.33,15.7-23.95,27.47-5.62,11.8-8.43,25.7-8.43,41.65v13.62h-50.08v-9.8c0-25.77,4.89-48.26,14.69-67.5,9.8-19.24,23.7-34.21,41.65-44.92,17.98-10.71,39.09-16.05,63.42-16.05Z"/>
  </g>
  <g>
    <rect class="cls-1" x="1284.8" y="989.71" width="69.68" height="42.99"/>
    <path class="cls-1" d="M1284.8,1170.97v-45.73c14.53,0,26.94-3.27,37.29-9.8,10.33-6.53,18.33-15.7,23.95-27.47,5.62-11.8,8.43-25.7,8.43-41.65v-13.62h50.08v9.8c0,25.77-4.89,48.26-14.69,67.5-9.8,19.24-23.7,34.21-41.65,44.92-17.98,10.71-39.09,16.05-63.42,16.05Z"/>
  </g>
  <g>
    <rect class="cls-1" x="1215.13" y="1197.11" width="69.68" height="42.99"/>
    <path class="cls-1" d="M1284.8,1058.85v45.73c-14.53,0-26.94,3.27-37.29,9.8-10.33,6.53-18.33,15.7-23.95,27.47-5.62,11.8-8.43,25.7-8.43,41.65v13.62h-50.08v-9.8c0-25.77,4.89-48.26,14.69-67.5,9.8-19.24,23.7-34.21,41.65-44.92,17.98-10.71,39.09-16.05,63.42-16.05Z"/>
  </g>
  <g>
    <rect class="cls-1" x="1284.8" y="1240.1" width="69.68" height="42.99"/>
    <path class="cls-1" d="M1284.8,1421.36v-45.73c14.53,0,26.94-3.27,37.29-9.8,10.33-6.53,18.33-15.7,23.95-27.47,5.62-11.8,8.43-25.7,8.43-41.65v-13.62h50.08v9.8c0,25.77-4.89,48.26-14.69,67.5-9.8,19.24-23.7,34.21-41.65,44.92-17.98,10.71-39.09,16.05-63.42,16.05Z"/>
  </g>
  <g>
    <rect class="cls-1" x="1215.13" y="1447.5" width="69.68" height="42.99"/>
    <path class="cls-1" d="M1284.8,1309.23v45.73c-14.53,0-26.94,3.27-37.29,9.8-10.33,6.53-18.33,15.7-23.95,27.47-5.62,11.8-8.43,25.7-8.43,41.65v13.62h-50.08v-9.8c0-25.77,4.89-48.26,14.69-67.5,9.8-19.24,23.7-34.21,41.65-44.92,17.98-10.71,39.09-16.05,63.42-16.05Z"/>
  </g>
  <g>
    <rect class="cls-1" x="1284.8" y="1490.49" width="69.68" height="42.99"/>
    <path class="cls-1" d="M1284.8,1671.74v-45.73c14.53,0,26.94-3.27,37.29-9.8,10.33-6.53,18.33-15.7,23.95-27.47,5.62-11.8,8.43-25.7,8.43-41.65v-13.62h50.08v9.8c0,25.77-4.89,48.26-14.69,67.5-9.8,19.24-23.7,34.21-41.65,44.92-17.98,10.71-39.09,16.05-63.42,16.05Z"/>
  </g>
  <g>
    <rect class="cls-1" x="1215.13" y="1697.89" width="69.68" height="42.99"/>
    <path class="cls-1" d="M1284.8,1559.62v45.73c-14.53,0-26.94,3.27-37.29,9.8-10.33,6.53-18.33,15.7-23.95,27.47-5.62,11.8-8.43,25.7-8.43,41.65v13.62h-50.08v-9.8c0-25.77,4.89-48.26,14.69-67.5,9.8-19.24,23.7-34.21,41.65-44.92,17.98-10.71,39.09-16.05,63.42-16.05Z"/>
  </g>
  <g>
    <rect class="cls-1" x="1284.8" y="1740.88" width="69.68" height="42.99"/>
    <path class="cls-1" d="M1284.8,1922.13v-45.73c14.53,0,26.94-3.27,37.29-9.8,10.33-6.53,18.33-15.7,23.95-27.47,5.62-11.8,8.43-25.7,8.43-41.65v-13.62h50.08v9.8c0,25.77-4.89,48.26-14.69,67.5-9.8,19.24-23.7,34.21-41.65,44.92-17.98,10.71-39.09,16.05-63.42,16.05Z"/>
  </g>
  <g>
    <rect class="cls-1" x="1215.13" y="1948.27" width="69.68" height="42.99"/>
    <path class="cls-1" d="M1284.8,1810.01v45.73c-14.53,0-26.94,3.27-37.29,9.8-10.33,6.53-18.33,15.7-23.95,27.47-5.62,11.8-8.43,25.7-8.43,41.65v13.62h-50.08v-9.8c0-25.77,4.89-48.26,14.69-67.5,9.8-19.24,23.7-34.21,41.65-44.92,17.98-10.71,39.09-16.05,63.42-16.05Z"/>
  </g>
  <g>
    <rect class="cls-1" x="1284.8" y="1991.26" width="69.68" height="42.99"/>
    <path class="cls-1" d="M1284.8,2172.52v-45.73c14.53,0,26.94-3.27,37.29-9.8,10.33-6.53,18.33-15.7,23.95-27.47,5.62-11.8,8.43-25.7,8.43-41.65v-13.62h50.08v9.8c0,25.77-4.89,48.26-14.69,67.5-9.8,19.24-23.7,34.21-41.65,44.92-17.98,10.71-39.09,16.05-63.42,16.05Z"/>
  </g>
  <g>
    <rect class="cls-1" x="1215.13" y="2198.66" width="69.68" height="42.99"/>
    <path class="cls-1" d="M1284.8,2060.4v45.73c-14.53,0-26.94,3.27-37.29,9.8-10.33,6.53-18.33,15.7-23.95,27.47-5.62,11.8-8.43,25.7-8.43,41.65v13.62h-50.08v-9.8c0-25.77,4.89-48.26,14.69-67.5,9.8-19.24,23.7-34.21,41.65-44.92,17.98-10.71,39.09-16.05,63.42-16.05Z"/>
  </g>
  <g>
    <rect class="cls-1" x="1284.8" y="2241.65" width="69.68" height="42.99"/>
    <path class="cls-1" d="M1284.8,2422.91v-45.73c14.53,0,26.94-3.27,37.29-9.8,10.33-6.53,18.33-15.7,23.95-27.47,5.62-11.8,8.43-25.7,8.43-41.65v-13.62h50.08v9.8c0,25.77-4.89,48.26-14.69,67.5-9.8,19.24-23.7,34.21-41.65,44.92-17.98,10.71-39.09,16.05-63.42,16.05Z"/>
  </g>
  <g>
    <rect class="cls-1" x="1215.13" y="2449.05" width="69.68" height="42.99"/>
    <path class="cls-1" d="M1284.8,2310.78v45.73c-14.53,0-26.94,3.27-37.29,9.8-10.33,6.53-18.33,15.7-23.95,27.47-5.62,11.8-8.43,25.7-8.43,41.65v13.62h-50.08v-9.8c0-25.77,4.89-48.26,14.69-67.5,9.8-19.24,23.7-34.21,41.65-44.92,17.98-10.71,39.09-16.05,63.42-16.05Z"/>
  </g>
  <g>
    <rect class="cls-1" x="1284.8" y="2492.04" width="69.68" height="42.99"/>
    <path class="cls-1" d="M1284.8,2673.3v-45.73c14.53,0,26.94-3.27,37.29-9.8,10.33-6.53,18.33-15.7,23.95-27.47,5.62-11.8,8.43-25.7,8.43-41.65v-13.62h50.08v9.8c0,25.77-4.89,48.26-14.69,67.5-9.8,19.24-23.7,34.21-41.65,44.92-17.98,10.71-39.09,16.05-63.42,16.05Z"/>
  </g>
  <g>
    <rect class="cls-1" x="1215.13" y="2699.44" width="69.68" height="42.99"/>
    <path class="cls-1" d="M1284.8,2561.17v45.73c-14.53,0-26.94,3.27-37.29,9.8-10.33,6.53-18.33,15.7-23.95,27.47-5.62,11.8-8.43,25.7-8.43,41.65v13.62h-50.08v-9.8c0-25.77,4.89-48.26,14.69-67.5,9.8-19.24,23.7-34.21,41.65-44.92,17.98-10.71,39.09-16.05,63.42-16.05Z"/>
  </g>
  <g>
    <rect class="cls-1" x="1524.32" y="739.32" width="69.68" height="42.99"/>
    <path class="cls-1" d="M1524.32,920.58v-45.73c14.53,0,26.94-3.27,37.29-9.8,10.33-6.53,18.33-15.7,23.95-27.47,5.62-11.8,8.43-25.7,8.43-41.65v-13.62h50.08v9.8c0,25.77-4.89,48.26-14.69,67.5-9.8,19.24-23.7,34.21-41.65,44.92-17.98,10.71-39.09,16.05-63.42,16.05Z"/>
  </g>
  <g>
    <rect class="cls-1" x="1454.64" y="946.72" width="69.68" height="42.99"/>
    <path class="cls-1" d="M1524.32,808.46v45.73c-14.53,0-26.94,3.27-37.29,9.8-10.33,6.53-18.33,15.7-23.95,27.47-5.62,11.8-8.43,25.7-8.43,41.65v13.62h-50.08v-9.8c0-25.77,4.89-48.26,14.69-67.5,9.8-19.24,23.7-34.21,41.65-44.92,17.98-10.71,39.09-16.05,63.42-16.05Z"/>
  </g>
  <g>
    <rect class="cls-1" x="1524.32" y="989.71" width="69.68" height="42.99"/>
    <path class="cls-1" d="M1524.32,1170.97v-45.73c14.53,0,26.94-3.27,37.29-9.8,10.33-6.53,18.33-15.7,23.95-27.47,5.62-11.8,8.43-25.7,8.43-41.65v-13.62h50.08v9.8c0,25.77-4.89,48.26-14.69,67.5-9.8,19.24-23.7,34.21-41.65,44.92-17.98,10.71-39.09,16.05-63.42,16.05Z"/>
  </g>
  <g>
    <rect class="cls-1" x="1454.64" y="1197.11" width="69.68" height="42.99"/>
    <path class="cls-1" d="M1524.32,1058.85v45.73c-14.53,0-26.94,3.27-37.29,9.8-10.33,6.53-18.33,15.7-23.95,27.47-5.62,11.8-8.43,25.7-8.43,41.65v13.62h-50.08v-9.8c0-25.77,4.89-48.26,14.69-67.5,9.8-19.24,23.7-34.21,41.65-44.92,17.98-10.71,39.09-16.05,63.42-16.05Z"/>
  </g>
  <g>
    <rect class="cls-1" x="1524.32" y="1240.1" width="69.68" height="42.99"/>
    <path class="cls-1" d="M1524.32,1421.36v-45.73c14.53,0,26.94-3.27,37.29-9.8,10.33-6.53,18.33-15.7,23.95-27.47,5.62-11.8,8.43-25.7,8.43-41.65v-13.62h50.08v9.8c0,25.77-4.89,48.26-14.69,67.5-9.8,19.24-23.7,34.21-41.65,44.92-17.98,10.71-39.09,16.05-63.42,16.05Z"/>
  </g>
  <g>
    <rect class="cls-1" x="1454.64" y="1447.5" width="69.68" height="42.99"/>
    <path class="cls-1" d="M1524.32,1309.23v45.73c-14.53,0-26.94,3.27-37.29,9.8-10.33,6.53-18.33,15.7-23.95,27.47-5.62,11.8-8.43,25.7-8.43,41.65v13.62h-50.08v-9.8c0-25.77,4.89-48.26,14.69-67.5,9.8-19.24,23.7-34.21,41.65-44.92,17.98-10.71,39.09-16.05,63.42-16.05Z"/>
  </g>
  <g>
    <rect class="cls-1" x="1524.32" y="1490.49" width="69.68" height="42.99"/>
    <path class="cls-1" d="M1524.32,1671.74v-45.73c14.53,0,26.94-3.27,37.29-9.8,10.33-6.53,18.33-15.7,23.95-27.47,5.62-11.8,8.43-25.7,8.43-41.65v-13.62h50.08v9.8c0,25.77-4.89,48.26-14.69,67.5-9.8,19.24-23.7,34.21-41.65,44.92-17.98,10.71-39.09,16.05-63.42,16.05Z"/>
  </g>
  <g>
    <rect class="cls-1" x="1454.64" y="1697.89" width="69.68" height="42.99"/>
    <path class="cls-1" d="M1524.32,1559.62v45.73c-14.53,0-26.94,3.27-37.29,9.8-10.33,6.53-18.33,15.7-23.95,27.47-5.62,11.8-8.43,25.7-8.43,41.65v13.62h-50.08v-9.8c0-25.77,4.89-48.26,14.69-67.5,9.8-19.24,23.7-34.21,41.65-44.92,17.98-10.71,39.09-16.05,63.42-16.05Z"/>
  </g>
  <g>
    <rect class="cls-1" x="1524.32" y="1740.88" width="69.68" height="42.99"/>
    <path class="cls-1" d="M1524.32,1922.13v-45.73c14.53,0,26.94-3.27,37.29-9.8,10.33-6.53,18.33-15.7,23.95-27.47,5.62-11.8,8.43-25.7,8.43-41.65v-13.62h50.08v9.8c0,25.77-4.89,48.26-14.69,67.5-9.8,19.24-23.7,34.21-41.65,44.92-17.98,10.71-39.09,16.05-63.42,16.05Z"/>
  </g>
  <g>
    <rect class="cls-1" x="1454.64" y="1948.27" width="69.68" height="42.99"/>
    <path class="cls-1" d="M1524.32,1810.01v45.73c-14.53,0-26.94,3.27-37.29,9.8-10.33,6.53-18.33,15.7-23.95,27.47-5.62,11.8-8.43,25.7-8.43,41.65v13.62h-50.08v-9.8c0-25.77,4.89-48.26,14.69-67.5,9.8-19.24,23.7-34.21,41.65-44.92,17.98-10.71,39.09-16.05,63.42-16.05Z"/>
  </g>
  <g>
    <rect class="cls-1" x="1524.32" y="1991.26" width="69.68" height="42.99"/>
    <path class="cls-1" d="M1524.32,2172.52v-45.73c14.53,0,26.94-3.27,37.29-9.8,10.33-6.53,18.33-15.7,23.95-27.47,5.62-11.8,8.43-25.7,8.43-41.65v-13.62h50.08v9.8c0,25.77-4.89,48.26-14.69,67.5-9.8,19.24-23.7,34.21-41.65,44.92-17.98,10.71-39.09,16.05-63.42,16.05Z"/>
  </g>
  <g>
    <rect class="cls-1" x="1454.64" y="2198.66" width="69.68" height="42.99"/>
    <path class="cls-1" d="M1524.32,2060.4v45.73c-14.53,0-26.94,3.27-37.29,9.8-10.33,6.53-18.33,15.7-23.95,27.47-5.62,11.8-8.43,25.7-8.43,41.65v13.62h-50.08v-9.8c0-25.77,4.89-48.26,14.69-67.5,9.8-19.24,23.7-34.21,41.65-44.92,17.98-10.71,39.09-16.05,63.42-16.05Z"/>
  </g>
  <g>
    <rect class="cls-1" x="1524.32" y="2241.65" width="69.68" height="42.99"/>
    <path class="cls-1" d="M1524.32,2422.91v-45.73c14.53,0,26.94-3.27,37.29-9.8,10.33-6.53,18.33-15.7,23.95-27.47,5.62-11.8,8.43-25.7,8.43-41.65v-13.62h50.08v9.8c0,25.77-4.89,48.26-14.69,67.5-9.8,19.24-23.7,34.21-41.65,44.92-17.98,10.71-39.09,16.05-63.42,16.05Z"/>
  </g>
  <g>
    <rect class="cls-1" x="1454.64" y="2449.05" width="69.68" height="42.99"/>
    <path class="cls-1" d="M1524.32,2310.78v45.73c-14.53,0-26.94,3.27-37.29,9.8-10.33,6.53-18.33,15.7-23.95,27.47-5.62,11.8-8.43,25.7-8.43,41.65v13.62h-50.08v-9.8c0-25.77,4.89-48.26,14.69-67.5,9.8-19.24,23.7-34.21,41.65-44.92,17.98-10.71,39.09-16.05,63.42-16.05Z"/>
  </g>
  <g>
    <rect class="cls-1" x="1524.32" y="2492.04" width="69.68" height="42.99"/>
    <path class="cls-1" d="M1524.32,2673.3v-45.73c14.53,0,26.94-3.27,37.29-9.8,10.33-6.53,18.33-15.7,23.95-27.47,5.62-11.8,8.43-25.7,8.43-41.65v-13.62h50.08v9.8c0,25.77-4.89,48.26-14.69,67.5-9.8,19.24-23.7,34.21-41.65,44.92-17.98,10.71-39.09,16.05-63.42,16.05Z"/>
  </g>
  <g>
    <rect class="cls-1" x="1454.64" y="2699.44" width="69.68" height="42.99"/>
    <path class="cls-1" d="M1524.32,2561.17v45.73c-14.53,0-26.94,3.27-37.29,9.8-10.33,6.53-18.33,15.7-23.95,27.47-5.62,11.8-8.43,25.7-8.43,41.65v13.62h-50.08v-9.8c0-25.77,4.89-48.26,14.69-67.5,9.8-19.24,23.7-34.21,41.65-44.92,17.98-10.71,39.09-16.05,63.42-16.05Z"/>
  </g>
  <g>
    <rect class="cls-1" x="1763.83" y="739.32" width="69.68" height="42.99"/>
    <path class="cls-1" d="M1763.83,920.58v-45.73c14.53,0,26.94-3.27,37.29-9.8,10.33-6.53,18.33-15.7,23.95-27.47,5.62-11.8,8.43-25.7,8.43-41.65v-13.62h50.08v9.8c0,25.77-4.89,48.26-14.69,67.5-9.8,19.24-23.7,34.21-41.65,44.92-17.98,10.71-39.09,16.05-63.42,16.05Z"/>
  </g>
  <g>
    <rect class="cls-1" x="1694.16" y="946.72" width="69.68" height="42.99"/>
    <path class="cls-1" d="M1763.83,808.46v45.73c-14.53,0-26.94,3.27-37.29,9.8-10.33,6.53-18.33,15.7-23.95,27.47-5.62,11.8-8.43,25.7-8.43,41.65v13.62h-50.08v-9.8c0-25.77,4.89-48.26,14.69-67.5,9.8-19.24,23.7-34.21,41.65-44.92,17.98-10.71,39.09-16.05,63.42-16.05Z"/>
  </g>
  <g>
    <rect class="cls-1" x="1763.83" y="989.71" width="69.68" height="42.99"/>
    <path class="cls-1" d="M1763.83,1170.97v-45.73c14.53,0,26.94-3.27,37.29-9.8,10.33-6.53,18.33-15.7,23.95-27.47,5.62-11.8,8.43-25.7,8.43-41.65v-13.62h50.08v9.8c0,25.77-4.89,48.26-14.69,67.5-9.8,19.24-23.7,34.21-41.65,44.92-17.98,10.71-39.09,16.05-63.42,16.05Z"/>
  </g>
  <g>
    <rect class="cls-1" x="1694.16" y="1197.11" width="69.68" height="42.99"/>
    <path class="cls-1" d="M1763.83,1058.85v45.73c-14.53,0-26.94,3.27-37.29,9.8-10.33,6.53-18.33,15.7-23.95,27.47-5.62,11.8-8.43,25.7-8.43,41.65v13.62h-50.08v-9.8c0-25.77,4.89-48.26,14.69-67.5,9.8-19.24,23.7-34.21,41.65-44.92,17.98-10.71,39.09-16.05,63.42-16.05Z"/>
  </g>
  <g>
    <rect class="cls-1" x="1763.83" y="1240.1" width="69.68" height="42.99"/>
    <path class="cls-1" d="M1763.83,1421.36v-45.73c14.53,0,26.94-3.27,37.29-9.8,10.33-6.53,18.33-15.7,23.95-27.47,5.62-11.8,8.43-25.7,8.43-41.65v-13.62h50.08v9.8c0,25.77-4.89,48.26-14.69,67.5-9.8,19.24-23.7,34.21-41.65,44.92-17.98,10.71-39.09,16.05-63.42,16.05Z"/>
  </g>
  <g>
    <rect class="cls-1" x="1694.16" y="1447.5" width="69.68" height="42.99"/>
    <path class="cls-1" d="M1763.83,1309.23v45.73c-14.53,0-26.94,3.27-37.29,9.8-10.33,6.53-18.33,15.7-23.95,27.47-5.62,11.8-8.43,25.7-8.43,41.65v13.62h-50.08v-9.8c0-25.77,4.89-48.26,14.69-67.5,9.8-19.24,23.7-34.21,41.65-44.92,17.98-10.71,39.09-16.05,63.42-16.05Z"/>
  </g>
  <g>
    <rect class="cls-1" x="1763.83" y="1490.49" width="69.68" height="42.99"/>
    <path class="cls-1" d="M1763.83,1671.74v-45.73c14.53,0,26.94-3.27,37.29-9.8,10.33-6.53,18.33-15.7,23.95-27.47,5.62-11.8,8.43-25.7,8.43-41.65v-13.62h50.08v9.8c0,25.77-4.89,48.26-14.69,67.5-9.8,19.24-23.7,34.21-41.65,44.92-17.98,10.71-39.09,16.05-63.42,16.05Z"/>
  </g>
  <g>
    <rect class="cls-1" x="1694.16" y="1697.89" width="69.68" height="42.99"/>
    <path class="cls-1" d="M1763.83,1559.62v45.73c-14.53,0-26.94,3.27-37.29,9.8-10.33,6.53-18.33,15.7-23.95,27.47-5.62,11.8-8.43,25.7-8.43,41.65v13.62h-50.08v-9.8c0-25.77,4.89-48.26,14.69-67.5,9.8-19.24,23.7-34.21,41.65-44.92,17.98-10.71,39.09-16.05,63.42-16.05Z"/>
  </g>
  <g>
    <rect class="cls-1" x="1763.83" y="1740.88" width="69.68" height="42.99"/>
    <path class="cls-1" d="M1763.83,1922.13v-45.73c14.53,0,26.94-3.27,37.29-9.8,10.33-6.53,18.33-15.7,23.95-27.47,5.62-11.8,8.43-25.7,8.43-41.65v-13.62h50.08v9.8c0,25.77-4.89,48.26-14.69,67.5-9.8,19.24-23.7,34.21-41.65,44.92-17.98,10.71-39.09,16.05-63.42,16.05Z"/>
  </g>
  <g>
    <rect class="cls-1" x="1694.16" y="1948.27" width="69.68" height="42.99"/>
    <path class="cls-1" d="M1763.83,1810.01v45.73c-14.53,0-26.94,3.27-37.29,9.8-10.33,6.53-18.33,15.7-23.95,27.47-5.62,11.8-8.43,25.7-8.43,41.65v13.62h-50.08v-9.8c0-25.77,4.89-48.26,14.69-67.5,9.8-19.24,23.7-34.21,41.65-44.92,17.98-10.71,39.09-16.05,63.42-16.05Z"/>
  </g>
  <g>
    <rect class="cls-1" x="1763.83" y="1991.26" width="69.68" height="42.99"/>
    <path class="cls-1" d="M1763.83,2172.52v-45.73c14.53,0,26.94-3.27,37.29-9.8,10.33-6.53,18.33-15.7,23.95-27.47,5.62-11.8,8.43-25.7,8.43-41.65v-13.62h50.08v9.8c0,25.77-4.89,48.26-14.69,67.5-9.8,19.24-23.7,34.21-41.65,44.92-17.98,10.71-39.09,16.05-63.42,16.05Z"/>
  </g>
  <g>
    <rect class="cls-1" x="1694.16" y="2198.66" width="69.68" height="42.99"/>
    <path class="cls-1" d="M1763.83,2060.4v45.73c-14.53,0-26.94,3.27-37.29,9.8-10.33,6.53-18.33,15.7-23.95,27.47-5.62,11.8-8.43,25.7-8.43,41.65v13.62h-50.08v-9.8c0-25.77,4.89-48.26,14.69-67.5,9.8-19.24,23.7-34.21,41.65-44.92,17.98-10.71,39.09-16.05,63.42-16.05Z"/>
  </g>
  <g>
    <rect class="cls-1" x="1763.83" y="2241.65" width="69.68" height="42.99"/>
    <path class="cls-1" d="M1763.83,2422.91v-45.73c14.53,0,26.94-3.27,37.29-9.8,10.33-6.53,18.33-15.7,23.95-27.47,5.62-11.8,8.43-25.7,8.43-41.65v-13.62h50.08v9.8c0,25.77-4.89,48.26-14.69,67.5-9.8,19.24-23.7,34.21-41.65,44.92-17.98,10.71-39.09,16.05-63.42,16.05Z"/>
  </g>
  <g>
    <rect class="cls-1" x="1694.16" y="2449.05" width="69.68" height="42.99"/>
    <path class="cls-1" d="M1763.83,2310.78v45.73c-14.53,0-26.94,3.27-37.29,9.8-10.33,6.53-18.33,15.7-23.95,27.47-5.62,11.8-8.43,25.7-8.43,41.65v13.62h-50.08v-9.8c0-25.77,4.89-48.26,14.69-67.5,9.8-19.24,23.7-34.21,41.65-44.92,17.98-10.71,39.09-16.05,63.42-16.05Z"/>
  </g>
  <g>
    <rect class="cls-1" x="1763.83" y="2492.04" width="69.68" height="42.99"/>
    <path class="cls-1" d="M1763.83,2673.3v-45.73c14.53,0,26.94-3.27,37.29-9.8,10.33-6.53,18.33-15.7,23.95-27.47,5.62-11.8,8.43-25.7,8.43-41.65v-13.62h50.08v9.8c0,25.77-4.89,48.26-14.69,67.5-9.8,19.24-23.7,34.21-41.65,44.92-17.98,10.71-39.09,16.05-63.42,16.05Z"/>
  </g>
  <g>
    <rect class="cls-1" x="1694.16" y="2699.44" width="69.68" height="42.99"/>
    <path class="cls-1" d="M1763.83,2561.17v45.73c-14.53,0-26.94,3.27-37.29,9.8-10.33,6.53-18.33,15.7-23.95,27.47-5.62,11.8-8.43,25.7-8.43,41.65v13.62h-50.08v-9.8c0-25.77,4.89-48.26,14.69-67.5,9.8-19.24,23.7-34.21,41.65-44.92,17.98-10.71,39.09-16.05,63.42-16.05Z"/>
  </g>
  <g>
    <rect class="cls-1" x="2003.35" y="739.32" width="69.68" height="42.99"/>
    <path class="cls-1" d="M2003.35,920.58v-45.73c14.53,0,26.94-3.27,37.29-9.8,10.33-6.53,18.33-15.7,23.95-27.47,5.62-11.8,8.43-25.7,8.43-41.65v-13.62h50.08v9.8c0,25.77-4.89,48.26-14.69,67.5-9.8,19.24-23.7,34.21-41.65,44.92-17.98,10.71-39.09,16.05-63.42,16.05Z"/>
  </g>
  <g>
    <rect class="cls-1" x="1933.67" y="946.72" width="69.68" height="42.99"/>
    <path class="cls-1" d="M2003.35,808.46v45.73c-14.53,0-26.94,3.27-37.29,9.8-10.33,6.53-18.33,15.7-23.95,27.47-5.62,11.8-8.43,25.7-8.43,41.65v13.62h-50.08v-9.8c0-25.77,4.89-48.26,14.69-67.5,9.8-19.24,23.7-34.21,41.65-44.92,17.98-10.71,39.09-16.05,63.42-16.05Z"/>
  </g>
  <g>
    <rect class="cls-1" x="2003.35" y="989.71" width="69.68" height="42.99"/>
    <path class="cls-1" d="M2003.35,1170.97v-45.73c14.53,0,26.94-3.27,37.29-9.8,10.33-6.53,18.33-15.7,23.95-27.47,5.62-11.8,8.43-25.7,8.43-41.65v-13.62h50.08v9.8c0,25.77-4.89,48.26-14.69,67.5-9.8,19.24-23.7,34.21-41.65,44.92-17.98,10.71-39.09,16.05-63.42,16.05Z"/>
  </g>
  <g>
    <rect class="cls-1" x="1933.67" y="1197.11" width="69.68" height="42.99"/>
    <path class="cls-1" d="M2003.35,1058.85v45.73c-14.53,0-26.94,3.27-37.29,9.8-10.33,6.53-18.33,15.7-23.95,27.47-5.62,11.8-8.43,25.7-8.43,41.65v13.62h-50.08v-9.8c0-25.77,4.89-48.26,14.69-67.5,9.8-19.24,23.7-34.21,41.65-44.92,17.98-10.71,39.09-16.05,63.42-16.05Z"/>
  </g>
  <g>
    <rect class="cls-1" x="2003.35" y="1240.1" width="69.68" height="42.99"/>
    <path class="cls-1" d="M2003.35,1421.36v-45.73c14.53,0,26.94-3.27,37.29-9.8,10.33-6.53,18.33-15.7,23.95-27.47,5.62-11.8,8.43-25.7,8.43-41.65v-13.62h50.08v9.8c0,25.77-4.89,48.26-14.69,67.5-9.8,19.24-23.7,34.21-41.65,44.92-17.98,10.71-39.09,16.05-63.42,16.05Z"/>
  </g>
  <g>
    <rect class="cls-1" x="1933.67" y="1447.5" width="69.68" height="42.99"/>
    <path class="cls-1" d="M2003.35,1309.23v45.73c-14.53,0-26.94,3.27-37.29,9.8-10.33,6.53-18.33,15.7-23.95,27.47-5.62,11.8-8.43,25.7-8.43,41.65v13.62h-50.08v-9.8c0-25.77,4.89-48.26,14.69-67.5,9.8-19.24,23.7-34.21,41.65-44.92,17.98-10.71,39.09-16.05,63.42-16.05Z"/>
  </g>
  <g>
    <rect class="cls-1" x="2003.35" y="1490.49" width="69.68" height="42.99"/>
    <path class="cls-1" d="M2003.35,1671.74v-45.73c14.53,0,26.94-3.27,37.29-9.8,10.33-6.53,18.33-15.7,23.95-27.47,5.62-11.8,8.43-25.7,8.43-41.65v-13.62h50.08v9.8c0,25.77-4.89,48.26-14.69,67.5-9.8,19.24-23.7,34.21-41.65,44.92-17.98,10.71-39.09,16.05-63.42,16.05Z"/>
  </g>
  <g>
    <rect class="cls-1" x="1933.67" y="1697.89" width="69.68" height="42.99"/>
    <path class="cls-1" d="M2003.35,1559.62v45.73c-14.53,0-26.94,3.27-37.29,9.8-10.33,6.53-18.33,15.7-23.95,27.47-5.62,11.8-8.43,25.7-8.43,41.65v13.62h-50.08v-9.8c0-25.77,4.89-48.26,14.69-67.5,9.8-19.24,23.7-34.21,41.65-44.92,17.98-10.71,39.09-16.05,63.42-16.05Z"/>
  </g>
  <g>
    <rect class="cls-1" x="2003.35" y="1740.88" width="69.68" height="42.99"/>
    <path class="cls-1" d="M2003.35,1922.13v-45.73c14.53,0,26.94-3.27,37.29-9.8,10.33-6.53,18.33-15.7,23.95-27.47,5.62-11.8,8.43-25.7,8.43-41.65v-13.62h50.08v9.8c0,25.77-4.89,48.26-14.69,67.5-9.8,19.24-23.7,34.21-41.65,44.92-17.98,10.71-39.09,16.05-63.42,16.05Z"/>
  </g>
  <g>
    <rect class="cls-1" x="1933.67" y="1948.27" width="69.68" height="42.99"/>
    <path class="cls-1" d="M2003.35,1810.01v45.73c-14.53,0-26.94,3.27-37.29,9.8-10.33,6.53-18.33,15.7-23.95,27.47-5.62,11.8-8.43,25.7-8.43,41.65v13.62h-50.08v-9.8c0-25.77,4.89-48.26,14.69-67.5,9.8-19.24,23.7-34.21,41.65-44.92,17.98-10.71,39.09-16.05,63.42-16.05Z"/>
  </g>
  <g>
    <rect class="cls-1" x="2003.35" y="1991.26" width="69.68" height="42.99"/>
    <path class="cls-1" d="M2003.35,2172.52v-45.73c14.53,0,26.94-3.27,37.29-9.8,10.33-6.53,18.33-15.7,23.95-27.47,5.62-11.8,8.43-25.7,8.43-41.65v-13.62h50.08v9.8c0,25.77-4.89,48.26-14.69,67.5-9.8,19.24-23.7,34.21-41.65,44.92-17.98,10.71-39.09,16.05-63.42,16.05Z"/>
  </g>
  <g>
    <rect class="cls-1" x="1933.67" y="2198.66" width="69.68" height="42.99"/>
    <path class="cls-1" d="M2003.35,2060.4v45.73c-14.53,0-26.94,3.27-37.29,9.8-10.33,6.53-18.33,15.7-23.95,27.47-5.62,11.8-8.43,25.7-8.43,41.65v13.62h-50.08v-9.8c0-25.77,4.89-48.26,14.69-67.5,9.8-19.24,23.7-34.21,41.65-44.92,17.98-10.71,39.09-16.05,63.42-16.05Z"/>
  </g>
  <g>
    <rect class="cls-1" x="2003.35" y="2241.65" width="69.68" height="42.99"/>
    <path class="cls-1" d="M2003.35,2422.91v-45.73c14.53,0,26.94-3.27,37.29-9.8,10.33-6.53,18.33-15.7,23.95-27.47,5.62-11.8,8.43-25.7,8.43-41.65v-13.62h50.08v9.8c0,25.77-4.89,48.26-14.69,67.5-9.8,19.24-23.7,34.21-41.65,44.92-17.98,10.71-39.09,16.05-63.42,16.05Z"/>
  </g>
  <g>
    <rect class="cls-1" x="1933.67" y="2449.05" width="69.68" height="42.99"/>
    <path class="cls-1" d="M2003.35,2310.78v45.73c-14.53,0-26.94,3.27-37.29,9.8-10.33,6.53-18.33,15.7-23.95,27.47-5.62,11.8-8.43,25.7-8.43,41.65v13.62h-50.08v-9.8c0-25.77,4.89-48.26,14.69-67.5,9.8-19.24,23.7-34.21,41.65-44.92,17.98-10.71,39.09-16.05,63.42-16.05Z"/>
  </g>
  <g>
    <rect class="cls-1" x="2003.35" y="2492.04" width="69.68" height="42.99"/>
    <path class="cls-1" d="M2003.35,2673.3v-45.73c14.53,0,26.94-3.27,37.29-9.8,10.33-6.53,18.33-15.7,23.95-27.47,5.62-11.8,8.43-25.7,8.43-41.65v-13.62h50.08v9.8c0,25.77-4.89,48.26-14.69,67.5-9.8,19.24-23.7,34.21-41.65,44.92-17.98,10.71-39.09,16.05-63.42,16.05Z"/>
  </g>
  <g>
    <rect class="cls-1" x="1933.67" y="2699.44" width="69.68" height="42.99"/>
    <path class="cls-1" d="M2003.35,2561.17v45.73c-14.53,0-26.94,3.27-37.29,9.8-10.33,6.53-18.33,15.7-23.95,27.47-5.62,11.8-8.43,25.7-8.43,41.65v13.62h-50.08v-9.8c0-25.77,4.89-48.26,14.69-67.5,9.8-19.24,23.7-34.21,41.65-44.92,17.98-10.71,39.09-16.05,63.42-16.05Z"/>
  </g>
  <g>
    <rect class="cls-1" x="2242.86" y="739.32" width="69.68" height="42.99"/>
    <path class="cls-1" d="M2242.86,920.58v-45.73c14.53,0,26.94-3.27,37.29-9.8,10.33-6.53,18.33-15.7,23.95-27.47,5.62-11.8,8.43-25.7,8.43-41.65v-13.62h50.08v9.8c0,25.77-4.89,48.26-14.69,67.5-9.8,19.24-23.7,34.21-41.65,44.92-17.98,10.71-39.09,16.05-63.42,16.05Z"/>
  </g>
  <g>
    <rect class="cls-1" x="2173.18" y="946.72" width="69.68" height="42.99"/>
    <path class="cls-1" d="M2242.86,808.46v45.73c-14.53,0-26.94,3.27-37.29,9.8-10.33,6.53-18.33,15.7-23.95,27.47-5.62,11.8-8.43,25.7-8.43,41.65v13.62h-50.08v-9.8c0-25.77,4.89-48.26,14.69-67.5,9.8-19.24,23.7-34.21,41.65-44.92,17.98-10.71,39.09-16.05,63.42-16.05Z"/>
  </g>
  <g>
    <rect class="cls-1" x="2242.86" y="989.71" width="69.68" height="42.99"/>
    <path class="cls-1" d="M2242.86,1170.97v-45.73c14.53,0,26.94-3.27,37.29-9.8,10.33-6.53,18.33-15.7,23.95-27.47,5.62-11.8,8.43-25.7,8.43-41.65v-13.62h50.08v9.8c0,25.77-4.89,48.26-14.69,67.5-9.8,19.24-23.7,34.21-41.65,44.92-17.98,10.71-39.09,16.05-63.42,16.05Z"/>
  </g>
  <g>
    <rect class="cls-1" x="2173.18" y="1197.11" width="69.68" height="42.99"/>
    <path class="cls-1" d="M2242.86,1058.85v45.73c-14.53,0-26.94,3.27-37.29,9.8-10.33,6.53-18.33,15.7-23.95,27.47-5.62,11.8-8.43,25.7-8.43,41.65v13.62h-50.08v-9.8c0-25.77,4.89-48.26,14.69-67.5,9.8-19.24,23.7-34.21,41.65-44.92,17.98-10.71,39.09-16.05,63.42-16.05Z"/>
  </g>
  <g>
    <rect class="cls-1" x="2242.86" y="1240.1" width="69.68" height="42.99"/>
    <path class="cls-1" d="M2242.86,1421.36v-45.73c14.53,0,26.94-3.27,37.29-9.8,10.33-6.53,18.33-15.7,23.95-27.47,5.62-11.8,8.43-25.7,8.43-41.65v-13.62h50.08v9.8c0,25.77-4.89,48.26-14.69,67.5-9.8,19.24-23.7,34.21-41.65,44.92-17.98,10.71-39.09,16.05-63.42,16.05Z"/>
  </g>
  <g>
    <rect class="cls-1" x="2173.18" y="1447.5" width="69.68" height="42.99"/>
    <path class="cls-1" d="M2242.86,1309.23v45.73c-14.53,0-26.94,3.27-37.29,9.8-10.33,6.53-18.33,15.7-23.95,27.47-5.62,11.8-8.43,25.7-8.43,41.65v13.62h-50.08v-9.8c0-25.77,4.89-48.26,14.69-67.5,9.8-19.24,23.7-34.21,41.65-44.92,17.98-10.71,39.09-16.05,63.42-16.05Z"/>
  </g>
  <g>
    <rect class="cls-1" x="2242.86" y="1490.49" width="69.68" height="42.99"/>
    <path class="cls-1" d="M2242.86,1671.74v-45.73c14.53,0,26.94-3.27,37.29-9.8,10.33-6.53,18.33-15.7,23.95-27.47,5.62-11.8,8.43-25.7,8.43-41.65v-13.62h50.08v9.8c0,25.77-4.89,48.26-14.69,67.5-9.8,19.24-23.7,34.21-41.65,44.92-17.98,10.71-39.09,16.05-63.42,16.05Z"/>
  </g>
  <g>
    <rect class="cls-1" x="2173.18" y="1697.89" width="69.68" height="42.99"/>
    <path class="cls-1" d="M2242.86,1559.62v45.73c-14.53,0-26.94,3.27-37.29,9.8-10.33,6.53-18.33,15.7-23.95,27.47-5.62,11.8-8.43,25.7-8.43,41.65v13.62h-50.08v-9.8c0-25.77,4.89-48.26,14.69-67.5,9.8-19.24,23.7-34.21,41.65-44.92,17.98-10.71,39.09-16.05,63.42-16.05Z"/>
  </g>
  <g>
    <rect class="cls-1" x="2242.86" y="1740.88" width="69.68" height="42.99"/>
    <path class="cls-1" d="M2242.86,1922.13v-45.73c14.53,0,26.94-3.27,37.29-9.8,10.33-6.53,18.33-15.7,23.95-27.47,5.62-11.8,8.43-25.7,8.43-41.65v-13.62h50.08v9.8c0,25.77-4.89,48.26-14.69,67.5-9.8,19.24-23.7,34.21-41.65,44.92-17.98,10.71-39.09,16.05-63.42,16.05Z"/>
  </g>
  <g>
    <rect class="cls-1" x="2173.18" y="1948.27" width="69.68" height="42.99"/>
    <path class="cls-1" d="M2242.86,1810.01v45.73c-14.53,0-26.94,3.27-37.29,9.8-10.33,6.53-18.33,15.7-23.95,27.47-5.62,11.8-8.43,25.7-8.43,41.65v13.62h-50.08v-9.8c0-25.77,4.89-48.26,14.69-67.5,9.8-19.24,23.7-34.21,41.65-44.92,17.98-10.71,39.09-16.05,63.42-16.05Z"/>
  </g>
  <g>
    <rect class="cls-1" x="2242.86" y="1991.26" width="69.68" height="42.99"/>
    <path class="cls-1" d="M2242.86,2172.52v-45.73c14.53,0,26.94-3.27,37.29-9.8,10.33-6.53,18.33-15.7,23.95-27.47,5.62-11.8,8.43-25.7,8.43-41.65v-13.62h50.08v9.8c0,25.77-4.89,48.26-14.69,67.5-9.8,19.24-23.7,34.21-41.65,44.92-17.98,10.71-39.09,16.05-63.42,16.05Z"/>
  </g>
  <g>
    <rect class="cls-1" x="2173.18" y="2198.66" width="69.68" height="42.99"/>
    <path class="cls-1" d="M2242.86,2060.4v45.73c-14.53,0-26.94,3.27-37.29,9.8-10.33,6.53-18.33,15.7-23.95,27.47-5.62,11.8-8.43,25.7-8.43,41.65v13.62h-50.08v-9.8c0-25.77,4.89-48.26,14.69-67.5,9.8-19.24,23.7-34.21,41.65-44.92,17.98-10.71,39.09-16.05,63.42-16.05Z"/>
  </g>
  <g>
    <rect class="cls-1" x="2242.86" y="2241.65" width="69.68" height="42.99"/>
    <path class="cls-1" d="M2242.86,2422.91v-45.73c14.53,0,26.94-3.27,37.29-9.8,10.33-6.53,18.33-15.7,23.95-27.47,5.62-11.8,8.43-25.7,8.43-41.65v-13.62h50.08v9.8c0,25.77-4.89,48.26-14.69,67.5-9.8,19.24-23.7,34.21-41.65,44.92-17.98,10.71-39.09,16.05-63.42,16.05Z"/>
  </g>
  <g>
    <rect class="cls-1" x="2173.18" y="2449.05" width="69.68" height="42.99"/>
    <path class="cls-1" d="M2242.86,2310.78v45.73c-14.53,0-26.94,3.27-37.29,9.8-10.33,6.53-18.33,15.7-23.95,27.47-5.62,11.8-8.43,25.7-8.43,41.65v13.62h-50.08v-9.8c0-25.77,4.89-48.26,14.69-67.5,9.8-19.24,23.7-34.21,41.65-44.92,17.98-10.71,39.09-16.05,63.42-16.05Z"/>
  </g>
  <g>
    <rect class="cls-1" x="2242.86" y="2492.04" width="69.68" height="42.99"/>
    <path class="cls-1" d="M2242.86,2673.3v-45.73c14.53,0,26.94-3.27,37.29-9.8,10.33-6.53,18.33-15.7,23.95-27.47,5.62-11.8,8.43-25.7,8.43-41.65v-13.62h50.08v9.8c0,25.77-4.89,48.26-14.69,67.5-9.8,19.24-23.7,34.21-41.65,44.92-17.98,10.71-39.09,16.05-63.42,16.05Z"/>
  </g>
  <g>
    <rect class="cls-1" x="2173.18" y="2699.44" width="69.68" height="42.99"/>
    <path class="cls-1" d="M2242.86,2561.17v45.73c-14.53,0-26.94,3.27-37.29,9.8-10.33,6.53-18.33,15.7-23.95,27.47-5.62,11.8-8.43,25.7-8.43,41.65v13.62h-50.08v-9.8c0-25.77,4.89-48.26,14.69-67.5,9.8-19.24,23.7-34.21,41.65-44.92,17.98-10.71,39.09-16.05,63.42-16.05Z"/>
  </g>
  <g>
    <rect class="cls-1" x="2482.38" y="739.32" width="69.68" height="42.99"/>
    <path class="cls-1" d="M2482.38,920.58v-45.73c14.53,0,26.94-3.27,37.29-9.8,10.33-6.53,18.33-15.7,23.95-27.47,5.62-11.8,8.43-25.7,8.43-41.65v-13.62h50.08v9.8c0,25.77-4.89,48.26-14.69,67.5-9.8,19.24-23.7,34.21-41.65,44.92-17.98,10.71-39.09,16.05-63.42,16.05Z"/>
  </g>
  <g>
    <rect class="cls-1" x="2412.7" y="946.72" width="69.68" height="42.99"/>
    <path class="cls-1" d="M2482.38,808.46v45.73c-14.53,0-26.94,3.27-37.29,9.8-10.33,6.53-18.33,15.7-23.95,27.47-5.62,11.8-8.43,25.7-8.43,41.65v13.62h-50.08v-9.8c0-25.77,4.89-48.26,14.69-67.5,9.8-19.24,23.7-34.21,41.65-44.92,17.98-10.71,39.09-16.05,63.42-16.05Z"/>
  </g>
  <g>
    <rect class="cls-1" x="2482.38" y="989.71" width="69.68" height="42.99"/>
    <path class="cls-1" d="M2482.38,1170.97v-45.73c14.53,0,26.94-3.27,37.29-9.8,10.33-6.53,18.33-15.7,23.95-27.47,5.62-11.8,8.43-25.7,8.43-41.65v-13.62h50.08v9.8c0,25.77-4.89,48.26-14.69,67.5-9.8,19.24-23.7,34.21-41.65,44.92-17.98,10.71-39.09,16.05-63.42,16.05Z"/>
  </g>
  <g>
    <rect class="cls-1" x="2412.7" y="1197.11" width="69.68" height="42.99"/>
    <path class="cls-1" d="M2482.38,1058.85v45.73c-14.53,0-26.94,3.27-37.29,9.8-10.33,6.53-18.33,15.7-23.95,27.47-5.62,11.8-8.43,25.7-8.43,41.65v13.62h-50.08v-9.8c0-25.77,4.89-48.26,14.69-67.5,9.8-19.24,23.7-34.21,41.65-44.92,17.98-10.71,39.09-16.05,63.42-16.05Z"/>
  </g>
  <g>
    <rect class="cls-1" x="2482.38" y="1240.1" width="69.68" height="42.99"/>
    <path class="cls-1" d="M2482.38,1421.36v-45.73c14.53,0,26.94-3.27,37.29-9.8,10.33-6.53,18.33-15.7,23.95-27.47,5.62-11.8,8.43-25.7,8.43-41.65v-13.62h50.08v9.8c0,25.77-4.89,48.26-14.69,67.5-9.8,19.24-23.7,34.21-41.65,44.92-17.98,10.71-39.09,16.05-63.42,16.05Z"/>
  </g>
  <g>
    <rect class="cls-1" x="2412.7" y="1447.5" width="69.68" height="42.99"/>
    <path class="cls-1" d="M2482.38,1309.23v45.73c-14.53,0-26.94,3.27-37.29,9.8-10.33,6.53-18.33,15.7-23.95,27.47-5.62,11.8-8.43,25.7-8.43,41.65v13.62h-50.08v-9.8c0-25.77,4.89-48.26,14.69-67.5,9.8-19.24,23.7-34.21,41.65-44.92,17.98-10.71,39.09-16.05,63.42-16.05Z"/>
  </g>
  <g>
    <rect class="cls-1" x="2482.38" y="1490.49" width="69.68" height="42.99"/>
    <path class="cls-1" d="M2482.38,1671.74v-45.73c14.53,0,26.94-3.27,37.29-9.8,10.33-6.53,18.33-15.7,23.95-27.47,5.62-11.8,8.43-25.7,8.43-41.65v-13.62h50.08v9.8c0,25.77-4.89,48.26-14.69,67.5-9.8,19.24-23.7,34.21-41.65,44.92-17.98,10.71-39.09,16.05-63.42,16.05Z"/>
  </g>
  <g>
    <rect class="cls-1" x="2412.7" y="1697.89" width="69.68" height="42.99"/>
    <path class="cls-1" d="M2482.38,1559.62v45.73c-14.53,0-26.94,3.27-37.29,9.8-10.33,6.53-18.33,15.7-23.95,27.47-5.62,11.8-8.43,25.7-8.43,41.65v13.62h-50.08v-9.8c0-25.77,4.89-48.26,14.69-67.5,9.8-19.24,23.7-34.21,41.65-44.92,17.98-10.71,39.09-16.05,63.42-16.05Z"/>
  </g>
  <g>
    <rect class="cls-1" x="2482.38" y="1740.88" width="69.68" height="42.99"/>
    <path class="cls-1" d="M2482.38,1922.13v-45.73c14.53,0,26.94-3.27,37.29-9.8,10.33-6.53,18.33-15.7,23.95-27.47,5.62-11.8,8.43-25.7,8.43-41.65v-13.62h50.08v9.8c0,25.77-4.89,48.26-14.69,67.5-9.8,19.24-23.7,34.21-41.65,44.92-17.98,10.71-39.09,16.05-63.42,16.05Z"/>
  </g>
  <g>
    <rect class="cls-1" x="2412.7" y="1948.27" width="69.68" height="42.99"/>
    <path class="cls-1" d="M2482.38,1810.01v45.73c-14.53,0-26.94,3.27-37.29,9.8-10.33,6.53-18.33,15.7-23.95,27.47-5.62,11.8-8.43,25.7-8.43,41.65v13.62h-50.08v-9.8c0-25.77,4.89-48.26,14.69-67.5,9.8-19.24,23.7-34.21,41.65-44.92,17.98-10.71,39.09-16.05,63.42-16.05Z"/>
  </g>
  <g>
    <rect class="cls-1" x="2482.38" y="1991.26" width="69.68" height="42.99"/>
    <path class="cls-1" d="M2482.38,2172.52v-45.73c14.53,0,26.94-3.27,37.29-9.8,10.33-6.53,18.33-15.7,23.95-27.47,5.62-11.8,8.43-25.7,8.43-41.65v-13.62h50.08v9.8c0,25.77-4.89,48.26-14.69,67.5-9.8,19.24-23.7,34.21-41.65,44.92-17.98,10.71-39.09,16.05-63.42,16.05Z"/>
  </g>
  <g>
    <rect class="cls-1" x="2412.7" y="2198.66" width="69.68" height="42.99"/>
    <path class="cls-1" d="M2482.38,2060.4v45.73c-14.53,0-26.94,3.27-37.29,9.8-10.33,6.53-18.33,15.7-23.95,27.47-5.62,11.8-8.43,25.7-8.43,41.65v13.62h-50.08v-9.8c0-25.77,4.89-48.26,14.69-67.5,9.8-19.24,23.7-34.21,41.65-44.92,17.98-10.71,39.09-16.05,63.42-16.05Z"/>
  </g>
  <g>
    <rect class="cls-1" x="2482.38" y="2241.65" width="69.68" height="42.99"/>
    <path class="cls-1" d="M2482.38,2422.91v-45.73c14.53,0,26.94-3.27,37.29-9.8,10.33-6.53,18.33-15.7,23.95-27.47,5.62-11.8,8.43-25.7,8.43-41.65v-13.62h50.08v9.8c0,25.77-4.89,48.26-14.69,67.5-9.8,19.24-23.7,34.21-41.65,44.92-17.98,10.71-39.09,16.05-63.42,16.05Z"/>
  </g>
  <g>
    <rect class="cls-1" x="2412.7" y="2449.05" width="69.68" height="42.99"/>
    <path class="cls-1" d="M2482.38,2310.78v45.73c-14.53,0-26.94,3.27-37.29,9.8-10.33,6.53-18.33,15.7-23.95,27.47-5.62,11.8-8.43,25.7-8.43,41.65v13.62h-50.08v-9.8c0-25.77,4.89-48.26,14.69-67.5,9.8-19.24,23.7-34.21,41.65-44.92,17.98-10.71,39.09-16.05,63.42-16.05Z"/>
  </g>
  <g>
    <rect class="cls-1" x="2482.38" y="2492.04" width="69.68" height="42.99"/>
    <path class="cls-1" d="M2482.38,2673.3v-45.73c14.53,0,26.94-3.27,37.29-9.8,10.33-6.53,18.33-15.7,23.95-27.47,5.62-11.8,8.43-25.7,8.43-41.65v-13.62h50.08v9.8c0,25.77-4.89,48.26-14.69,67.5-9.8,19.24-23.7,34.21-41.65,44.92-17.98,10.71-39.09,16.05-63.42,16.05Z"/>
  </g>
  <g>
    <rect class="cls-1" x="2412.7" y="2699.44" width="69.68" height="42.99"/>
    <path class="cls-1" d="M2482.38,2561.17v45.73c-14.53,0-26.94,3.27-37.29,9.8-10.33,6.53-18.33,15.7-23.95,27.47-5.62,11.8-8.43,25.7-8.43,41.65v13.62h-50.08v-9.8c0-25.77,4.89-48.26,14.69-67.5,9.8-19.24,23.7-34.21,41.65-44.92,17.98-10.71,39.09-16.05,63.42-16.05Z"/>
  </g>
  <g>
    <rect class="cls-1" x="2721.89" y="739.32" width="69.68" height="42.99"/>
    <path class="cls-1" d="M2721.89,920.58v-45.73c14.53,0,26.94-3.27,37.29-9.8,10.33-6.53,18.33-15.7,23.95-27.47,5.62-11.8,8.43-25.7,8.43-41.65v-13.62h50.08v9.8c0,25.77-4.89,48.26-14.69,67.5-9.8,19.24-23.7,34.21-41.65,44.92-17.98,10.71-39.09,16.05-63.42,16.05Z"/>
  </g>
  <g>
    <rect class="cls-1" x="2652.21" y="946.72" width="69.68" height="42.99"/>
    <path class="cls-1" d="M2721.89,808.46v45.73c-14.53,0-26.94,3.27-37.29,9.8-10.33,6.53-18.33,15.7-23.95,27.47-5.62,11.8-8.43,25.7-8.43,41.65v13.62h-50.08v-9.8c0-25.77,4.89-48.26,14.69-67.5,9.8-19.24,23.7-34.21,41.65-44.92,17.98-10.71,39.09-16.05,63.42-16.05Z"/>
  </g>
  <g>
    <rect class="cls-1" x="2721.89" y="989.71" width="69.68" height="42.99"/>
    <path class="cls-1" d="M2721.89,1170.97v-45.73c14.53,0,26.94-3.27,37.29-9.8,10.33-6.53,18.33-15.7,23.95-27.47,5.62-11.8,8.43-25.7,8.43-41.65v-13.62h50.08v9.8c0,25.77-4.89,48.26-14.69,67.5-9.8,19.24-23.7,34.21-41.65,44.92-17.98,10.71-39.09,16.05-63.42,16.05Z"/>
  </g>
  <g>
    <rect class="cls-1" x="2652.21" y="1197.11" width="69.68" height="42.99"/>
    <path class="cls-1" d="M2721.89,1058.85v45.73c-14.53,0-26.94,3.27-37.29,9.8-10.33,6.53-18.33,15.7-23.95,27.47-5.62,11.8-8.43,25.7-8.43,41.65v13.62h-50.08v-9.8c0-25.77,4.89-48.26,14.69-67.5,9.8-19.24,23.7-34.21,41.65-44.92,17.98-10.71,39.09-16.05,63.42-16.05Z"/>
  </g>
  <g>
    <rect class="cls-1" x="2721.89" y="1240.1" width="69.68" height="42.99"/>
    <path class="cls-1" d="M2721.89,1421.36v-45.73c14.53,0,26.94-3.27,37.29-9.8,10.33-6.53,18.33-15.7,23.95-27.47,5.62-11.8,8.43-25.7,8.43-41.65v-13.62h50.08v9.8c0,25.77-4.89,48.26-14.69,67.5-9.8,19.24-23.7,34.21-41.65,44.92-17.98,10.71-39.09,16.05-63.42,16.05Z"/>
  </g>
  <g>
    <rect class="cls-1" x="2652.21" y="1447.5" width="69.68" height="42.99"/>
    <path class="cls-1" d="M2721.89,1309.23v45.73c-14.53,0-26.94,3.27-37.29,9.8-10.33,6.53-18.33,15.7-23.95,27.47-5.62,11.8-8.43,25.7-8.43,41.65v13.62h-50.08v-9.8c0-25.77,4.89-48.26,14.69-67.5,9.8-19.24,23.7-34.21,41.65-44.92,17.98-10.71,39.09-16.05,63.42-16.05Z"/>
  </g>
  <g>
    <rect class="cls-1" x="2721.89" y="1490.49" width="69.68" height="42.99"/>
    <path class="cls-1" d="M2721.89,1671.74v-45.73c14.53,0,26.94-3.27,37.29-9.8,10.33-6.53,18.33-15.7,23.95-27.47,5.62-11.8,8.43-25.7,8.43-41.65v-13.62h50.08v9.8c0,25.77-4.89,48.26-14.69,67.5-9.8,19.24-23.7,34.21-41.65,44.92-17.98,10.71-39.09,16.05-63.42,16.05Z"/>
  </g>
  <g>
    <rect class="cls-1" x="2652.21" y="1697.89" width="69.68" height="42.99"/>
    <path class="cls-1" d="M2721.89,1559.62v45.73c-14.53,0-26.94,3.27-37.29,9.8-10.33,6.53-18.33,15.7-23.95,27.47-5.62,11.8-8.43,25.7-8.43,41.65v13.62h-50.08v-9.8c0-25.77,4.89-48.26,14.69-67.5,9.8-19.24,23.7-34.21,41.65-44.92,17.98-10.71,39.09-16.05,63.42-16.05Z"/>
  </g>
  <g>
    <rect class="cls-1" x="2721.89" y="1740.88" width="69.68" height="42.99"/>
    <path class="cls-1" d="M2721.89,1922.13v-45.73c14.53,0,26.94-3.27,37.29-9.8,10.33-6.53,18.33-15.7,23.95-27.47,5.62-11.8,8.43-25.7,8.43-41.65v-13.62h50.08v9.8c0,25.77-4.89,48.26-14.69,67.5-9.8,19.24-23.7,34.21-41.65,44.92-17.98,10.71-39.09,16.05-63.42,16.05Z"/>
  </g>
  <g>
    <rect class="cls-1" x="2652.21" y="1948.27" width="69.68" height="42.99"/>
    <path class="cls-1" d="M2721.89,1810.01v45.73c-14.53,0-26.94,3.27-37.29,9.8-10.33,6.53-18.33,15.7-23.95,27.47-5.62,11.8-8.43,25.7-8.43,41.65v13.62h-50.08v-9.8c0-25.77,4.89-48.26,14.69-67.5,9.8-19.24,23.7-34.21,41.65-44.92,17.98-10.71,39.09-16.05,63.42-16.05Z"/>
  </g>
  <g>
    <rect class="cls-1" x="2721.89" y="1991.26" width="69.68" height="42.99"/>
    <path class="cls-1" d="M2721.89,2172.52v-45.73c14.53,0,26.94-3.27,37.29-9.8,10.33-6.53,18.33-15.7,23.95-27.47,5.62-11.8,8.43-25.7,8.43-41.65v-13.62h50.08v9.8c0,25.77-4.89,48.26-14.69,67.5-9.8,19.24-23.7,34.21-41.65,44.92-17.98,10.71-39.09,16.05-63.42,16.05Z"/>
  </g>
  <g>
    <rect class="cls-1" x="2652.21" y="2198.66" width="69.68" height="42.99"/>
    <path class="cls-1" d="M2721.89,2060.4v45.73c-14.53,0-26.94,3.27-37.29,9.8-10.33,6.53-18.33,15.7-23.95,27.47-5.62,11.8-8.43,25.7-8.43,41.65v13.62h-50.08v-9.8c0-25.77,4.89-48.26,14.69-67.5,9.8-19.24,23.7-34.21,41.65-44.92,17.98-10.71,39.09-16.05,63.42-16.05Z"/>
  </g>
  <g>
    <rect class="cls-1" x="2721.89" y="2241.65" width="69.68" height="42.99"/>
    <path class="cls-1" d="M2721.89,2422.91v-45.73c14.53,0,26.94-3.27,37.29-9.8,10.33-6.53,18.33-15.7,23.95-27.47,5.62-11.8,8.43-25.7,8.43-41.65v-13.62h50.08v9.8c0,25.77-4.89,48.26-14.69,67.5-9.8,19.24-23.7,34.21-41.65,44.92-17.98,10.71-39.09,16.05-63.42,16.05Z"/>
  </g>
  <g>
    <rect class="cls-1" x="2652.21" y="2449.05" width="69.68" height="42.99"/>
    <path class="cls-1" d="M2721.89,2310.78v45.73c-14.53,0-26.94,3.27-37.29,9.8-10.33,6.53-18.33,15.7-23.95,27.47-5.62,11.8-8.43,25.7-8.43,41.65v13.62h-50.08v-9.8c0-25.77,4.89-48.26,14.69-67.5,9.8-19.24,23.7-34.21,41.65-44.92,17.98-10.71,39.09-16.05,63.42-16.05Z"/>
  </g>
  <g>
    <rect class="cls-1" x="2721.89" y="2492.04" width="69.68" height="42.99"/>
    <path class="cls-1" d="M2721.89,2673.3v-45.73c14.53,0,26.94-3.27,37.29-9.8,10.33-6.53,18.33-15.7,23.95-27.47,5.62-11.8,8.43-25.7,8.43-41.65v-13.62h50.08v9.8c0,25.77-4.89,48.26-14.69,67.5-9.8,19.24-23.7,34.21-41.65,44.92-17.98,10.71-39.09,16.05-63.42,16.05Z"/>
  </g>
  <g>
    <rect class="cls-1" x="2652.21" y="2699.44" width="69.68" height="42.99"/>
    <path class="cls-1" d="M2721.89,2561.17v45.73c-14.53,0-26.94,3.27-37.29,9.8-10.33,6.53-18.33,15.7-23.95,27.47-5.62,11.8-8.43,25.7-8.43,41.65v13.62h-50.08v-9.8c0-25.77,4.89-48.26,14.69-67.5,9.8-19.24,23.7-34.21,41.65-44.92,17.98-10.71,39.09-16.05,63.42-16.05Z"/>
  </g>
  <g>
    <rect class="cls-1" x="2961.41" y="739.32" width="69.68" height="42.99"/>
    <path class="cls-1" d="M2961.41,920.58v-45.73c14.53,0,26.94-3.27,37.29-9.8,10.33-6.53,18.33-15.7,23.95-27.47,5.62-11.8,8.43-25.7,8.43-41.65v-13.62h50.08v9.8c0,25.77-4.89,48.26-14.69,67.5-9.8,19.24-23.7,34.21-41.65,44.92-17.98,10.71-39.09,16.05-63.42,16.05Z"/>
  </g>
  <g>
    <rect class="cls-1" x="2891.73" y="946.72" width="69.68" height="42.99"/>
    <path class="cls-1" d="M2961.41,808.46v45.73c-14.53,0-26.94,3.27-37.29,9.8-10.33,6.53-18.33,15.7-23.95,27.47-5.62,11.8-8.43,25.7-8.43,41.65v13.62h-50.08v-9.8c0-25.77,4.89-48.26,14.69-67.5,9.8-19.24,23.7-34.21,41.65-44.92,17.98-10.71,39.09-16.05,63.42-16.05Z"/>
  </g>
  <g>
    <rect class="cls-1" x="2961.41" y="989.71" width="69.68" height="42.99"/>
    <path class="cls-1" d="M2961.41,1170.97v-45.73c14.53,0,26.94-3.27,37.29-9.8,10.33-6.53,18.33-15.7,23.95-27.47,5.62-11.8,8.43-25.7,8.43-41.65v-13.62h50.08v9.8c0,25.77-4.89,48.26-14.69,67.5-9.8,19.24-23.7,34.21-41.65,44.92-17.98,10.71-39.09,16.05-63.42,16.05Z"/>
  </g>
  <g>
    <rect class="cls-1" x="2891.73" y="1197.11" width="69.68" height="42.99"/>
    <path class="cls-1" d="M2961.41,1058.85v45.73c-14.53,0-26.94,3.27-37.29,9.8-10.33,6.53-18.33,15.7-23.95,27.47-5.62,11.8-8.43,25.7-8.43,41.65v13.62h-50.08v-9.8c0-25.77,4.89-48.26,14.69-67.5,9.8-19.24,23.7-34.21,41.65-44.92,17.98-10.71,39.09-16.05,63.42-16.05Z"/>
  </g>
  <g>
    <rect class="cls-1" x="2961.41" y="1240.1" width="69.68" height="42.99"/>
    <path class="cls-1" d="M2961.41,1421.36v-45.73c14.53,0,26.94-3.27,37.29-9.8,10.33-6.53,18.33-15.7,23.95-27.47,5.62-11.8,8.43-25.7,8.43-41.65v-13.62h50.08v9.8c0,25.77-4.89,48.26-14.69,67.5-9.8,19.24-23.7,34.21-41.65,44.92-17.98,10.71-39.09,16.05-63.42,16.05Z"/>
  </g>
  <g>
    <rect class="cls-1" x="2891.73" y="1447.5" width="69.68" height="42.99"/>
    <path class="cls-1" d="M2961.41,1309.23v45.73c-14.53,0-26.94,3.27-37.29,9.8-10.33,6.53-18.33,15.7-23.95,27.47-5.62,11.8-8.43,25.7-8.43,41.65v13.62h-50.08v-9.8c0-25.77,4.89-48.26,14.69-67.5,9.8-19.24,23.7-34.21,41.65-44.92,17.98-10.71,39.09-16.05,63.42-16.05Z"/>
  </g>
  <g>
    <rect class="cls-1" x="2961.41" y="1490.49" width="69.68" height="42.99"/>
    <path class="cls-1" d="M2961.41,1671.74v-45.73c14.53,0,26.94-3.27,37.29-9.8,10.33-6.53,18.33-15.7,23.95-27.47,5.62-11.8,8.43-25.7,8.43-41.65v-13.62h50.08v9.8c0,25.77-4.89,48.26-14.69,67.5-9.8,19.24-23.7,34.21-41.65,44.92-17.98,10.71-39.09,16.05-63.42,16.05Z"/>
  </g>
  <g>
    <rect class="cls-1" x="2891.73" y="1697.89" width="69.68" height="42.99"/>
    <path class="cls-1" d="M2961.41,1559.62v45.73c-14.53,0-26.94,3.27-37.29,9.8-10.33,6.53-18.33,15.7-23.95,27.47-5.62,11.8-8.43,25.7-8.43,41.65v13.62h-50.08v-9.8c0-25.77,4.89-48.26,14.69-67.5,9.8-19.24,23.7-34.21,41.65-44.92,17.98-10.71,39.09-16.05,63.42-16.05Z"/>
  </g>
  <g>
    <rect class="cls-1" x="2961.41" y="1740.88" width="69.68" height="42.99"/>
    <path class="cls-1" d="M2961.41,1922.13v-45.73c14.53,0,26.94-3.27,37.29-9.8,10.33-6.53,18.33-15.7,23.95-27.47,5.62-11.8,8.43-25.7,8.43-41.65v-13.62h50.08v9.8c0,25.77-4.89,48.26-14.69,67.5-9.8,19.24-23.7,34.21-41.65,44.92-17.98,10.71-39.09,16.05-63.42,16.05Z"/>
  </g>
  <g>
    <rect class="cls-1" x="2891.73" y="1948.27" width="69.68" height="42.99"/>
    <path class="cls-1" d="M2961.41,1810.01v45.73c-14.53,0-26.94,3.27-37.29,9.8-10.33,6.53-18.33,15.7-23.95,27.47-5.62,11.8-8.43,25.7-8.43,41.65v13.62h-50.08v-9.8c0-25.77,4.89-48.26,14.69-67.5,9.8-19.24,23.7-34.21,41.65-44.92,17.98-10.71,39.09-16.05,63.42-16.05Z"/>
  </g>
  <g>
    <rect class="cls-1" x="2961.41" y="1991.26" width="69.68" height="42.99"/>
    <path class="cls-1" d="M2961.41,2172.52v-45.73c14.53,0,26.94-3.27,37.29-9.8,10.33-6.53,18.33-15.7,23.95-27.47,5.62-11.8,8.43-25.7,8.43-41.65v-13.62h50.08v9.8c0,25.77-4.89,48.26-14.69,67.5-9.8,19.24-23.7,34.21-41.65,44.92-17.98,10.71-39.09,16.05-63.42,16.05Z"/>
  </g>
  <g>
    <rect class="cls-1" x="2891.73" y="2198.66" width="69.68" height="42.99"/>
    <path class="cls-1" d="M2961.41,2060.4v45.73c-14.53,0-26.94,3.27-37.29,9.8-10.33,6.53-18.33,15.7-23.95,27.47-5.62,11.8-8.43,25.7-8.43,41.65v13.62h-50.08v-9.8c0-25.77,4.89-48.26,14.69-67.5,9.8-19.24,23.7-34.21,41.65-44.92,17.98-10.71,39.09-16.05,63.42-16.05Z"/>
  </g>
  <g>
    <rect class="cls-1" x="2961.41" y="2241.65" width="69.68" height="42.99"/>
    <path class="cls-1" d="M2961.41,2422.91v-45.73c14.53,0,26.94-3.27,37.29-9.8,10.33-6.53,18.33-15.7,23.95-27.47,5.62-11.8,8.43-25.7,8.43-41.65v-13.62h50.08v9.8c0,25.77-4.89,48.26-14.69,67.5-9.8,19.24-23.7,34.21-41.65,44.92-17.98,10.71-39.09,16.05-63.42,16.05Z"/>
  </g>
  <g>
    <rect class="cls-1" x="2891.73" y="2449.05" width="69.68" height="42.99"/>
    <path class="cls-1" d="M2961.41,2310.78v45.73c-14.53,0-26.94,3.27-37.29,9.8-10.33,6.53-18.33,15.7-23.95,27.47-5.62,11.8-8.43,25.7-8.43,41.65v13.62h-50.08v-9.8c0-25.77,4.89-48.26,14.69-67.5,9.8-19.24,23.7-34.21,41.65-44.92,17.98-10.71,39.09-16.05,63.42-16.05Z"/>
  </g>
  <g>
    <rect class="cls-1" x="2961.41" y="2492.04" width="69.68" height="42.99"/>
    <path class="cls-1" d="M2961.41,2673.3v-45.73c14.53,0,26.94-3.27,37.29-9.8,10.33-6.53,18.33-15.7,23.95-27.47,5.62-11.8,8.43-25.7,8.43-41.65v-13.62h50.08v9.8c0,25.77-4.89,48.26-14.69,67.5-9.8,19.24-23.7,34.21-41.65,44.92-17.98,10.71-39.09,16.05-63.42,16.05Z"/>
  </g>
  <g>
    <rect class="cls-1" x="2891.73" y="2699.44" width="69.68" height="42.99"/>
    <path class="cls-1" d="M2961.41,2561.17v45.73c-14.53,0-26.94,3.27-37.29,9.8-10.33,6.53-18.33,15.7-23.95,27.47-5.62,11.8-8.43,25.7-8.43,41.65v13.62h-50.08v-9.8c0-25.77,4.89-48.26,14.69-67.5,9.8-19.24,23.7-34.21,41.65-44.92,17.98-10.71,39.09-16.05,63.42-16.05Z"/>
  </g>
</svg>