<svg width="553" height="80" viewBox="0 0 553 80" fill="none" xmlns="http://www.w3.org/2000/svg">
<g clip-path="url(#clip0_0_1)">
<mask id="mask0_0_1" style="mask-type:luminance" maskUnits="userSpaceOnUse" x="0" y="0" width="553" height="80">
<path d="M553 0H0V80H553V0Z" fill="white"/>
</mask>
<g mask="url(#mask0_0_1)">
<path d="M553 0H0V80H553V0Z" fill="#F5F5F7"/>
<path d="M-119.28 -16.9037V-2.16964C-119.28 -1.06581 -115.211 -0.170986 -110.19 -0.170986C-105.17 -0.170986 -101.099 0.723845 -101.099 1.82767V10.086C-101.099 11.2172 -96.9292 12.1342 -91.7843 12.1342C-86.6395 12.1342 -82.4684 13.0512 -82.4684 14.1824V24.6959C-82.4684 26.0785 -77.3706 27.1993 -71.0823 27.1993H0.320736" stroke="url(#paint0_linear_0_1)" stroke-width="0.719997"/>
<path d="M-107.948 -18.403V-3.66886C-107.948 -2.56502 -103.879 -1.67019 -98.8579 -1.67019C-93.8376 -1.67019 -89.7676 -0.775368 -89.7676 0.328459V8.58676C-89.7676 9.71795 -85.5973 10.635 -80.4524 10.635C-75.3074 10.635 -71.1365 11.552 -71.1365 12.6832V23.1967C-71.1365 24.5794 -66.0388 25.7002 -59.7504 25.7002H11.6526" stroke="url(#paint1_linear_0_1)" stroke-width="0.719997"/>
<path d="M-96.6018 -19.9048V-5.17069C-96.6018 -4.06686 -92.5318 -3.17203 -87.5115 -3.17203C-82.4912 -3.17203 -78.4212 -2.2772 -78.4212 -1.17337V7.08492C-78.4212 8.21611 -74.2504 9.13312 -69.1055 9.13312C-63.9606 9.13312 -59.7898 10.0501 -59.7898 11.1813V21.6949C-59.7898 23.0776 -54.692 24.1984 -48.4036 24.1984H22.9994" stroke="url(#paint2_linear_0_1)" stroke-width="0.719997"/>
<path d="M-85.2729 -21.4046V-6.67054C-85.2729 -5.56672 -81.2029 -4.67189 -76.1826 -4.67189C-71.1621 -4.67189 -67.0922 -3.77706 -67.0922 -2.67323V5.58506C-67.0922 6.71626 -62.9215 7.63327 -57.7765 7.63327C-52.6316 7.63327 -48.4609 8.55029 -48.4609 9.68148V20.1951C-48.4609 21.5776 -43.3631 22.6985 -37.0746 22.6985H34.3284" stroke="url(#paint3_linear_0_1)" stroke-width="0.719997"/>
<path d="M-45.9033 -22.9071V-8.17303C-45.9033 -7.06921 -41.8335 -6.17438 -36.813 -6.17438C-31.7926 -6.17438 -27.7228 -5.27955 -27.7228 -4.17572V4.08257C-27.7228 5.21378 -23.552 6.13079 -18.4071 6.13079C-13.2622 6.13079 -9.09138 7.0478 -9.09138 8.17901V18.6926C-9.09138 20.0752 -3.99364 21.196 2.29478 21.196H73.6978" stroke="url(#paint4_linear_0_1)" stroke-width="0.719997"/>
<path d="M-9.63465 -24.4043V-9.6703C-9.63465 -8.56646 -5.56478 -7.67163 -0.544359 -7.67163C4.47607 -7.67163 8.54591 -6.7768 8.54591 -5.67298V2.58532C8.54591 3.71651 12.7167 4.63352 17.8616 4.63352C23.0065 4.63352 27.1772 5.55055 27.1772 6.68174V17.1953C27.1772 18.5779 32.275 19.6987 38.5635 19.6987H109.967" stroke="url(#paint5_linear_0_1)" stroke-width="0.719997"/>
<path d="M23.5125 -25.9068V-11.1728C23.5125 -10.0689 27.5823 -9.17411 32.6028 -9.17411C37.6232 -9.17411 41.693 -8.27928 41.693 -7.17546V1.08285C41.693 2.21404 45.8638 3.13105 51.0087 3.13105C56.1536 3.13105 60.3244 4.04807 60.3244 5.17926V15.6928C60.3244 17.0754 65.4222 18.1963 71.7106 18.1963H143.114" stroke="url(#paint6_linear_0_1)" stroke-width="0.719997"/>
<path d="M53.547 -27.4061V-12.672C53.547 -11.5682 57.6168 -10.6733 62.6372 -10.6733C67.6577 -10.6733 71.7275 -9.77851 71.7275 -8.67467V-0.416379C71.7275 0.714817 75.8983 1.63183 81.0434 1.63183C86.1882 1.63183 90.3585 2.54884 90.3585 3.68005V14.1936C90.3585 15.5762 95.4563 16.697 101.745 16.697H173.148" stroke="url(#paint7_linear_0_1)" stroke-width="0.719997"/>
<path d="M80.4569 -28.9066V-14.1725C80.4569 -13.0687 84.527 -12.1739 89.5473 -12.1739C94.5676 -12.1739 98.6376 -11.279 98.6376 -10.1752V-1.91689C98.6376 -0.785702 102.809 0.131312 107.953 0.131312C113.098 0.131312 117.269 1.04833 117.269 2.17953V12.6931C117.269 14.0757 122.366 15.1965 128.655 15.1965H200.058" stroke="url(#paint8_linear_0_1)" stroke-width="0.719997"/>
<path d="M104.257 -30.4045V-15.6704C104.257 -14.5666 108.327 -13.6718 113.348 -13.6718C118.368 -13.6718 122.438 -12.7769 122.438 -11.6731V-3.41482C122.438 -2.28363 126.609 -1.36661 131.754 -1.36661C136.899 -1.36661 141.069 -0.44959 141.069 0.681607V11.1951C141.069 12.5778 146.167 13.6986 152.456 13.6986H223.859" stroke="url(#paint9_linear_0_1)" stroke-width="0.719997"/>
<path d="M124.945 -31.905V-17.1709C124.945 -16.0671 129.015 -15.1723 134.035 -15.1723C139.056 -15.1723 143.125 -14.2775 143.125 -13.1736V-4.91534C143.125 -3.78413 147.296 -2.86712 152.441 -2.86712C157.586 -2.86712 161.757 -1.95011 161.757 -0.818912V9.69462C161.757 11.0772 166.855 12.1981 173.143 12.1981H244.546" stroke="url(#paint10_linear_0_1)" stroke-width="0.719997"/>
<path d="M142.505 -33.4056V-18.6714C142.505 -17.5676 146.575 -16.6728 151.596 -16.6728C156.616 -16.6728 160.685 -15.778 160.685 -14.6742V-6.41585C160.685 -5.28466 164.856 -4.36765 170.001 -4.36765C175.146 -4.36765 179.317 -3.45064 179.317 -2.31943V8.1941C179.317 9.57672 184.415 10.6975 190.703 10.6975H268.338" stroke="url(#paint11_linear_0_1)" stroke-width="0.719997"/>
<path d="M156.956 -34.9061V-20.172C156.956 -19.0682 161.026 -18.1734 166.046 -18.1734C171.066 -18.1734 175.136 -17.2785 175.136 -16.1747V-7.91637C175.136 -6.78518 179.307 -5.86817 184.452 -5.86817C189.597 -5.86817 193.767 -4.95114 193.767 -3.81995V6.69359C193.767 8.0762 198.865 9.19703 205.154 9.19703H276.557" stroke="url(#paint12_linear_0_1)" stroke-width="0.719997"/>
<path d="M-119.28 97.0061V82.2721C-119.28 81.1683 -115.211 80.2734 -110.19 80.2734C-105.17 80.2734 -101.099 79.3786 -101.099 78.2748V70.0166C-101.099 68.8854 -96.9292 67.9683 -91.7843 67.9683C-86.6395 67.9683 -82.4684 67.0512 -82.4684 65.92V55.4065C-82.4684 54.0239 -77.3706 52.9031 -71.0823 52.9031H0.320736" stroke="url(#paint13_linear_0_1)" stroke-width="0.719997"/>
<path d="M-107.948 98.5072V83.7732C-107.948 82.6694 -103.879 81.7745 -98.8579 81.7745C-93.8376 81.7745 -89.7676 80.8798 -89.7676 79.7759V71.5177C-89.7676 70.3865 -85.5973 69.4694 -80.4524 69.4694C-75.3074 69.4694 -71.1365 68.5525 -71.1365 67.4211V56.9077C-71.1365 55.525 -66.0388 54.4042 -59.7504 54.4042H11.6526" stroke="url(#paint14_linear_0_1)" stroke-width="0.719997"/>
<path d="M-96.6018 100.009V85.2745C-96.6018 84.1705 -92.5318 83.2758 -87.5115 83.2758C-82.4912 83.2758 -78.4212 82.3809 -78.4212 81.2771V73.0188C-78.4212 71.8876 -74.2504 70.9705 -69.1055 70.9705C-63.9606 70.9705 -59.7898 70.0536 -59.7898 68.9224V58.4088C-59.7898 57.0263 -54.692 55.9055 -48.4036 55.9055H22.9994" stroke="url(#paint15_linear_0_1)" stroke-width="0.719997"/>
<path d="M-85.2729 101.51V86.7756C-85.2729 85.6718 -81.2029 84.777 -76.1826 84.777C-71.1621 84.777 -67.0922 83.8821 -67.0922 82.7783V74.5199C-67.0922 73.3887 -62.9215 72.4718 -57.7765 72.4718C-52.6316 72.4718 -48.4609 71.5548 -48.4609 70.4236V59.91C-48.4609 58.5275 -43.3631 57.4066 -37.0746 57.4066H34.3284" stroke="url(#paint16_linear_0_1)" stroke-width="0.719997"/>
<path d="M-45.9033 103.007V88.2729C-45.9033 87.1691 -41.8335 86.2743 -36.813 86.2743C-31.7926 86.2743 -27.7228 85.3794 -27.7228 84.2756V76.0172C-27.7228 74.886 -23.552 73.9691 -18.4071 73.9691C-13.2622 73.9691 -9.09138 73.052 -9.09138 71.9209V61.4073C-9.09138 60.0247 -3.99364 58.9039 2.29478 58.9039H73.6978" stroke="url(#paint17_linear_0_1)" stroke-width="0.719997"/>
<path d="M-9.63465 104.508V89.774C-9.63465 88.6702 -5.56478 87.7754 -0.544359 87.7754C4.47607 87.7754 8.54591 86.8805 8.54591 85.7767V77.5185C8.54591 76.3871 12.7167 75.4702 17.8616 75.4702C23.0065 75.4702 27.1772 74.5531 27.1772 73.422V62.9084C27.1772 61.5258 32.275 60.405 38.5635 60.405H109.967" stroke="url(#paint18_linear_0_1)" stroke-width="0.719997"/>
<path d="M23.5184 106.01V91.2758C23.5184 90.172 27.5882 89.2772 32.6087 89.2772C37.6291 89.2772 41.699 88.3823 41.699 87.2785V79.0203C41.699 77.8891 45.8698 76.972 51.0146 76.972C56.1596 76.972 60.3303 76.0549 60.3303 74.9238V64.4104C60.3303 63.0276 65.4281 61.9068 71.7165 61.9068H143.12" stroke="url(#paint19_linear_0_1)" stroke-width="0.719997"/>
<path d="M53.5558 107.509V92.7751C53.5558 91.6713 57.6257 90.7764 62.6462 90.7764C67.6665 90.7764 71.7364 89.8816 71.7364 88.7778V80.5194C71.7364 79.3882 75.9072 78.4713 81.0517 78.4713C86.1973 78.4713 90.3676 77.5542 90.3676 76.423V65.9095C90.3676 64.5269 95.4654 63.4061 101.754 63.4061H173.157" stroke="url(#paint20_linear_0_1)" stroke-width="0.719997"/>
<path d="M80.4569 109.009V94.2749C80.4569 93.1711 84.527 92.2762 89.5473 92.2762C94.5676 92.2762 98.6376 91.3814 98.6376 90.2776V82.0194C98.6376 80.8882 102.809 79.9711 107.953 79.9711C113.098 79.9711 117.269 79.054 117.269 77.9228V67.4094C117.269 66.0267 122.366 64.9059 128.655 64.9059H200.058" stroke="url(#paint21_linear_0_1)" stroke-width="0.719997"/>
<path d="M104.257 110.508V95.7742C104.257 94.6704 108.327 93.7755 113.348 93.7755C118.368 93.7755 122.438 92.8807 122.438 91.7769V83.5185C122.438 82.3873 126.609 81.4704 131.754 81.4704C136.899 81.4704 141.069 80.5533 141.069 79.4221V68.9086C141.069 67.526 146.167 66.4052 152.456 66.4052H223.859" stroke="url(#paint22_linear_0_1)" stroke-width="0.719997"/>
<path d="M124.945 112.009V97.2747C124.945 96.1709 129.015 95.276 134.035 95.276C139.056 95.276 143.125 94.3811 143.125 93.2773V85.0191C143.125 83.8879 147.296 82.9709 152.441 82.9709C157.586 82.9709 161.757 82.0538 161.757 80.9226V70.4092C161.757 69.0265 166.855 67.9056 173.143 67.9056H244.546" stroke="url(#paint23_linear_0_1)" stroke-width="0.719997"/>
<path d="M142.505 113.509V98.7751C142.505 97.6713 146.575 96.7766 151.596 96.7766C156.616 96.7766 160.685 95.8818 160.685 94.778V86.5196C160.685 85.3884 164.856 84.4713 170.001 84.4713C175.146 84.4713 179.317 83.5544 179.317 82.4232V71.9096C179.317 70.5269 184.415 69.4061 190.703 69.4061H262.106" stroke="url(#paint24_linear_0_1)" stroke-width="0.719997"/>
<path d="M156.956 115.008V100.274C156.956 99.1706 161.026 98.2758 166.046 98.2758C171.066 98.2758 175.136 97.3809 175.136 96.2771V88.0189C175.136 86.8877 179.307 85.9706 184.452 85.9706C189.597 85.9706 193.767 85.0535 193.767 83.9223V73.4088C193.767 72.0262 198.865 70.9054 205.154 70.9054H276.557" stroke="url(#paint25_linear_0_1)" stroke-width="0.719997"/>
<path d="M672.538 97.0061V82.2721C672.538 81.1683 668.468 80.2734 663.448 80.2734C658.428 80.2734 654.358 79.3786 654.358 78.2748V70.0166C654.358 68.8852 650.187 67.9683 645.043 67.9683C639.898 67.9683 635.727 67.0512 635.727 65.92V55.4065C635.727 54.0239 630.629 52.9031 624.341 52.9031H552.938" stroke="url(#paint26_linear_0_1)" stroke-width="0.719997"/>
<path d="M661.203 98.5072V83.7732C661.203 82.6694 657.134 81.7745 652.113 81.7745C647.093 81.7745 643.023 80.8798 643.023 79.7759V71.5177C643.023 70.3865 638.852 69.4694 633.708 69.4694C628.563 69.4694 624.392 68.5525 624.392 67.4211V56.9077C624.392 55.525 619.294 54.4042 613.006 54.4042H541.603" stroke="url(#paint27_linear_0_1)" stroke-width="0.719997"/>
<path d="M649.863 100.009V85.2745C649.863 84.1705 645.793 83.2758 640.773 83.2758C635.752 83.2758 631.682 82.3809 631.682 81.2771V73.0188C631.682 71.8876 627.511 70.9705 622.366 70.9705C617.222 70.9705 613.051 70.0536 613.051 68.9224V58.4088C613.051 57.0263 607.953 55.9055 601.665 55.9055H530.262" stroke="url(#paint28_linear_0_1)" stroke-width="0.719997"/>
<path d="M638.528 101.51V86.7756C638.528 85.6718 634.458 84.777 629.438 84.777C624.417 84.777 620.347 83.8821 620.347 82.7783V74.5199C620.347 73.3887 616.176 72.4718 611.032 72.4718C605.887 72.4718 601.716 71.5548 601.716 70.4236V59.91C601.716 58.5275 596.619 57.4066 590.33 57.4066H518.927" stroke="url(#paint29_linear_0_1)" stroke-width="0.719997"/>
<path d="M599.159 103.007V88.2729C599.159 87.1691 595.089 86.2743 590.068 86.2743C585.048 86.2743 580.978 85.3794 580.978 84.2756V76.0172C580.978 74.886 576.807 73.9691 571.662 73.9691C566.517 73.9691 562.346 73.052 562.346 71.9209V61.4073C562.346 60.0247 557.248 58.9039 550.96 58.9039H479.557" stroke="url(#paint30_linear_0_1)" stroke-width="0.719997"/>
<path d="M562.887 104.508V89.774C562.887 88.6702 558.817 87.7754 553.797 87.7754C548.776 87.7754 544.706 86.8805 544.706 85.7767V77.5185C544.706 76.3871 540.535 75.4702 535.391 75.4702C530.246 75.4702 526.075 74.5531 526.075 73.422V62.9084C526.075 61.5258 520.977 60.405 514.689 60.405H443.286" stroke="url(#paint31_linear_0_1)" stroke-width="0.719997"/>
<path d="M529.749 106.01V91.2758C529.749 90.172 525.679 89.2772 520.659 89.2772C515.638 89.2772 511.568 88.3823 511.568 87.2785V79.0203C511.568 77.8891 507.397 76.972 502.252 76.972C497.107 76.972 492.936 76.0549 492.936 74.9238V64.4104C492.936 63.0276 487.839 61.9068 481.55 61.9068H410.147" stroke="url(#paint32_linear_0_1)" stroke-width="0.719997"/>
<path d="M499.702 107.509V92.7751C499.702 91.6713 495.632 90.7764 490.612 90.7764C485.592 90.7764 481.522 89.8816 481.522 88.7778V80.5194C481.522 79.3882 477.351 78.4713 472.206 78.4713C467.061 78.4713 462.891 77.5542 462.891 76.423V65.9095C462.891 64.5269 457.793 63.4061 451.504 63.4061H380.101" stroke="url(#paint33_linear_0_1)" stroke-width="0.719997"/>
<path d="M472.798 109.009V94.2749C472.798 93.1711 468.728 92.2762 463.708 92.2762C458.688 92.2762 454.618 91.3814 454.618 90.2776V82.0194C454.618 80.8882 450.447 79.9711 445.302 79.9711C440.157 79.9711 435.987 79.054 435.987 77.9228V67.4094C435.987 66.0267 430.889 64.9059 424.6 64.9059H353.197" stroke="url(#paint34_linear_0_1)" stroke-width="0.719997"/>
<path d="M449.001 110.508V95.7742C449.001 94.6704 444.931 93.7755 439.911 93.7755C434.89 93.7755 430.82 92.8807 430.82 91.7769V83.5185C430.82 82.3873 426.649 81.4704 421.504 81.4704C416.36 81.4704 412.189 80.5533 412.189 79.4221V68.9086C412.189 67.526 407.092 66.4052 400.803 66.4052H329.4" stroke="url(#paint35_linear_0_1)" stroke-width="0.719997"/>
<path d="M428.319 112.009V97.2747C428.319 96.1709 424.249 95.276 419.229 95.276C414.208 95.276 410.138 94.3811 410.138 93.2773V85.0191C410.138 83.8879 405.968 82.9709 400.823 82.9709C395.678 82.9709 391.507 82.0538 391.507 80.9226V70.4092C391.507 69.0265 386.41 67.9056 380.121 67.9056H308.718" stroke="url(#paint36_linear_0_1)" stroke-width="0.719997"/>
<path d="M410.756 113.509V98.7751C410.756 97.6713 406.686 96.7766 401.666 96.7766C396.645 96.7766 392.575 95.8818 392.575 94.778V86.5196C392.575 85.3884 388.405 84.4713 383.26 84.4713C378.115 84.4713 373.944 83.5544 373.944 82.4232V71.9096C373.944 70.5269 368.846 69.4061 362.558 69.4061H284.923" stroke="url(#paint37_linear_0_1)" stroke-width="0.719997"/>
<path d="M396.297 115.008V100.274C396.297 99.1706 392.227 98.2758 387.206 98.2758C382.186 98.2758 378.116 97.3809 378.116 96.2771V88.0189C378.116 86.8877 373.945 85.9706 368.8 85.9706C363.655 85.9706 359.485 85.0535 359.485 83.9223V73.4088C359.485 72.0262 354.387 70.9054 348.098 70.9054H276.695" stroke="url(#paint38_linear_0_1)" stroke-width="0.719997"/>
<path d="M672.538 -16.9037V-2.16964C672.538 -1.06581 668.468 -0.170986 663.448 -0.170986C658.428 -0.170986 654.358 0.723843 654.358 1.82767V10.086C654.358 11.2172 650.187 12.1342 645.043 12.1342C639.898 12.1342 635.727 13.0512 635.727 14.1824V24.6959C635.727 26.0785 630.629 27.1993 624.341 27.1993H552.938" stroke="url(#paint39_linear_0_1)" stroke-width="0.719997"/>
<path d="M661.203 -18.403V-3.66886C661.203 -2.56502 657.134 -1.67019 652.113 -1.67019C647.093 -1.67019 643.023 -0.775368 643.023 0.328459V8.58676C643.023 9.71795 638.852 10.635 633.708 10.635C628.563 10.635 624.392 11.552 624.392 12.6832V23.1967C624.392 24.5794 619.294 25.7002 613.006 25.7002H541.603" stroke="url(#paint40_linear_0_1)" stroke-width="0.719997"/>
<path d="M649.863 -19.9048V-5.17069C649.863 -4.06686 645.793 -3.17203 640.773 -3.17203C635.752 -3.17203 631.682 -2.2772 631.682 -1.17337V7.08492C631.682 8.21611 627.511 9.13312 622.366 9.13312C617.222 9.13312 613.051 10.0501 613.051 11.1813V21.6949C613.051 23.0776 607.953 24.1984 601.665 24.1984H530.262" stroke="url(#paint41_linear_0_1)" stroke-width="0.719997"/>
<path d="M638.528 -21.4046V-6.67054C638.528 -5.56672 634.458 -4.67189 629.438 -4.67189C624.417 -4.67189 620.347 -3.77706 620.347 -2.67323V5.58506C620.347 6.71626 616.176 7.63327 611.032 7.63327C605.887 7.63327 601.716 8.55029 601.716 9.68148V20.1951C601.716 21.5776 596.619 22.6985 590.33 22.6985H518.927" stroke="url(#paint42_linear_0_1)" stroke-width="0.719997"/>
<path d="M599.153 -22.9071V-8.17303C599.153 -7.06921 595.083 -6.17438 590.062 -6.17438C585.042 -6.17438 580.972 -5.27955 580.972 -4.17572V4.08257C580.972 5.21378 576.801 6.13079 571.656 6.13079C566.511 6.13079 562.341 7.0478 562.341 8.17899V18.6926C562.341 20.0752 557.243 21.196 550.954 21.196H479.551" stroke="url(#paint43_linear_0_1)" stroke-width="0.719997"/>
<path d="M562.887 -24.4043V-9.6703C562.887 -8.56646 558.817 -7.67163 553.797 -7.67163C548.776 -7.67163 544.706 -6.7768 544.706 -5.67298V2.58532C544.706 3.71651 540.535 4.63352 535.391 4.63352C530.246 4.63352 526.075 5.55055 526.075 6.68174V17.1953C526.075 18.5779 520.977 19.6987 514.689 19.6987H443.286" stroke="url(#paint44_linear_0_1)" stroke-width="0.719997"/>
<path d="M529.749 -25.9068V-11.1728C529.749 -10.0689 525.679 -9.17411 520.659 -9.17411C515.637 -9.17411 511.568 -8.27928 511.568 -7.17546V1.08284C511.568 2.21404 507.397 3.13105 502.252 3.13105C497.107 3.13105 492.936 4.04807 492.936 5.17926V15.6928C492.936 17.0754 487.839 18.1963 481.55 18.1963H410.147" stroke="url(#paint45_linear_0_1)" stroke-width="0.719997"/>
<path d="M499.702 -27.4061V-12.672C499.702 -11.5682 495.632 -10.6733 490.612 -10.6733C485.592 -10.6733 481.522 -9.77851 481.522 -8.67467V-0.416379C481.522 0.714816 477.351 1.63183 472.206 1.63183C467.061 1.63183 462.891 2.54884 462.891 3.68003V14.1936C462.891 15.5762 457.793 16.697 451.504 16.697L380.101 16.697" stroke="url(#paint46_linear_0_1)" stroke-width="0.719997"/>
<path d="M472.798 -28.9066V-14.1725C472.798 -13.0687 468.728 -12.1739 463.708 -12.1739C458.688 -12.1739 454.618 -11.279 454.618 -10.1752V-1.91689C454.618 -0.785702 450.447 0.131312 445.302 0.131312C440.157 0.131311 435.987 1.04833 435.987 2.17953V12.6931C435.987 14.0757 430.889 15.1965 424.6 15.1965H353.197" stroke="url(#paint47_linear_0_1)" stroke-width="0.719997"/>
<path d="M449.001 -30.4045V-15.6704C449.001 -14.5666 444.931 -13.6718 439.911 -13.6718C434.89 -13.6718 430.82 -12.7769 430.82 -11.6731V-3.41482C430.82 -2.28363 426.649 -1.36661 421.504 -1.36661C416.36 -1.36661 412.189 -0.449591 412.189 0.681604V11.1951C412.189 12.5778 407.092 13.6986 400.803 13.6986H329.4" stroke="url(#paint48_linear_0_1)" stroke-width="0.719997"/>
<path d="M428.319 -31.905V-17.1709C428.319 -16.0671 424.249 -15.1723 419.229 -15.1723C414.208 -15.1723 410.138 -14.2775 410.138 -13.1736V-4.91534C410.138 -3.78413 405.968 -2.86712 400.823 -2.86712C395.678 -2.86712 391.507 -1.95011 391.507 -0.818912V9.69462C391.507 11.0772 386.41 12.1981 380.121 12.1981L308.718 12.1981" stroke="url(#paint49_linear_0_1)" stroke-width="0.719997"/>
<path d="M410.756 -33.4056V-18.6714C410.756 -17.5676 406.686 -16.6728 401.666 -16.6728C396.645 -16.6728 392.575 -15.778 392.575 -14.6742V-6.41585C392.575 -5.28466 388.405 -4.36765 383.26 -4.36765C378.115 -4.36765 373.944 -3.45064 373.944 -2.31943V8.1941C373.944 9.57672 368.846 10.6975 362.558 10.6975H291.155" stroke="url(#paint50_linear_0_1)" stroke-width="0.719997"/>
<path d="M396.297 -34.9061V-20.172C396.297 -19.0682 392.227 -18.1734 387.206 -18.1734C382.186 -18.1734 378.116 -17.2785 378.116 -16.1747V-7.91637C378.116 -6.78518 373.945 -5.86817 368.8 -5.86817C363.655 -5.86817 359.485 -4.95114 359.485 -3.81995V6.69359C359.485 8.0762 354.387 9.19703 348.098 9.19703H276.695" stroke="url(#paint51_linear_0_1)" stroke-width="0.719997"/>
</g>
</g>
<defs>
<linearGradient id="paint0_linear_0_1" x1="-59.4799" y1="-16.9037" x2="-59.4799" y2="27.1993" gradientUnits="userSpaceOnUse">
<stop stop-color="white"/>
<stop offset="0.129" stop-color="#A09C99"/>
<stop offset="0.35" stop-color="white"/>
<stop offset="0.52" stop-color="#A09C99"/>
<stop offset="0.805" stop-color="#A09C99" stop-opacity="0.6"/>
<stop offset="1" stop-color="white"/>
</linearGradient>
<linearGradient id="paint1_linear_0_1" x1="-48.1479" y1="-18.403" x2="-48.1479" y2="25.7002" gradientUnits="userSpaceOnUse">
<stop stop-color="white"/>
<stop offset="0.129" stop-color="#A09C99"/>
<stop offset="0.35" stop-color="white"/>
<stop offset="0.52" stop-color="#A09C99"/>
<stop offset="0.805" stop-color="#A09C99" stop-opacity="0.6"/>
<stop offset="1" stop-color="white"/>
</linearGradient>
<linearGradient id="paint2_linear_0_1" x1="-36.8012" y1="-19.9048" x2="-36.8012" y2="24.1984" gradientUnits="userSpaceOnUse">
<stop stop-color="white"/>
<stop offset="0.129" stop-color="#A09C99"/>
<stop offset="0.35" stop-color="white"/>
<stop offset="0.52" stop-color="#A09C99"/>
<stop offset="0.805" stop-color="#A09C99" stop-opacity="0.6"/>
<stop offset="1" stop-color="white"/>
</linearGradient>
<linearGradient id="paint3_linear_0_1" x1="-25.4722" y1="-21.4046" x2="-25.4722" y2="22.6985" gradientUnits="userSpaceOnUse">
<stop stop-color="white"/>
<stop offset="0.129" stop-color="#A09C99"/>
<stop offset="0.35" stop-color="white"/>
<stop offset="0.52" stop-color="#A09C99"/>
<stop offset="0.805" stop-color="#A09C99" stop-opacity="0.6"/>
<stop offset="1" stop-color="white"/>
</linearGradient>
<linearGradient id="paint4_linear_0_1" x1="13.8972" y1="-22.9071" x2="13.8972" y2="21.196" gradientUnits="userSpaceOnUse">
<stop stop-color="white"/>
<stop offset="0.129" stop-color="#A09C99"/>
<stop offset="0.35" stop-color="white"/>
<stop offset="0.52" stop-color="#A09C99"/>
<stop offset="0.805" stop-color="#A09C99" stop-opacity="0.6"/>
<stop offset="1" stop-color="white"/>
</linearGradient>
<linearGradient id="paint5_linear_0_1" x1="50.1659" y1="-24.4043" x2="50.1659" y2="19.6987" gradientUnits="userSpaceOnUse">
<stop stop-color="white"/>
<stop offset="0.129" stop-color="#A09C99"/>
<stop offset="0.35" stop-color="white"/>
<stop offset="0.52" stop-color="#A09C99"/>
<stop offset="0.805" stop-color="#A09C99" stop-opacity="0.6"/>
<stop offset="1" stop-color="white"/>
</linearGradient>
<linearGradient id="paint6_linear_0_1" x1="83.3131" y1="-25.9068" x2="83.3131" y2="18.1963" gradientUnits="userSpaceOnUse">
<stop stop-color="white"/>
<stop offset="0.129" stop-color="#A09C99"/>
<stop offset="0.35" stop-color="white"/>
<stop offset="0.52" stop-color="#A09C99"/>
<stop offset="0.805" stop-color="#A09C99" stop-opacity="0.6"/>
<stop offset="1" stop-color="white"/>
</linearGradient>
<linearGradient id="paint7_linear_0_1" x1="113.348" y1="-27.4061" x2="113.348" y2="16.697" gradientUnits="userSpaceOnUse">
<stop stop-color="white"/>
<stop offset="0.129" stop-color="#A09C99"/>
<stop offset="0.35" stop-color="white"/>
<stop offset="0.52" stop-color="#A09C99"/>
<stop offset="0.805" stop-color="#A09C99" stop-opacity="0.6"/>
<stop offset="1" stop-color="white"/>
</linearGradient>
<linearGradient id="paint8_linear_0_1" x1="140.258" y1="-28.9066" x2="140.258" y2="15.1965" gradientUnits="userSpaceOnUse">
<stop stop-color="white"/>
<stop offset="0.129" stop-color="#A09C99"/>
<stop offset="0.35" stop-color="white"/>
<stop offset="0.52" stop-color="#A09C99"/>
<stop offset="0.805" stop-color="#A09C99" stop-opacity="0.6"/>
<stop offset="1" stop-color="white"/>
</linearGradient>
<linearGradient id="paint9_linear_0_1" x1="164.058" y1="-30.4045" x2="164.058" y2="13.6986" gradientUnits="userSpaceOnUse">
<stop stop-color="white"/>
<stop offset="0.129" stop-color="#A09C99"/>
<stop offset="0.35" stop-color="white"/>
<stop offset="0.52" stop-color="#A09C99"/>
<stop offset="0.805" stop-color="#A09C99" stop-opacity="0.6"/>
<stop offset="1" stop-color="white"/>
</linearGradient>
<linearGradient id="paint10_linear_0_1" x1="184.745" y1="-31.905" x2="184.745" y2="12.1981" gradientUnits="userSpaceOnUse">
<stop stop-color="white"/>
<stop offset="0.129" stop-color="#A09C99"/>
<stop offset="0.35" stop-color="white"/>
<stop offset="0.52" stop-color="#A09C99"/>
<stop offset="0.805" stop-color="#A09C99" stop-opacity="0.6"/>
<stop offset="1" stop-color="white"/>
</linearGradient>
<linearGradient id="paint11_linear_0_1" x1="205.421" y1="-33.4056" x2="205.421" y2="10.6976" gradientUnits="userSpaceOnUse">
<stop stop-color="white"/>
<stop offset="0.129" stop-color="#A09C99"/>
<stop offset="0.35" stop-color="white"/>
<stop offset="0.52" stop-color="#A09C99"/>
<stop offset="0.805" stop-color="#A09C99" stop-opacity="0.6"/>
<stop offset="1" stop-color="white"/>
</linearGradient>
<linearGradient id="paint12_linear_0_1" x1="216.756" y1="-34.9061" x2="216.756" y2="9.19703" gradientUnits="userSpaceOnUse">
<stop stop-color="white"/>
<stop offset="0.129" stop-color="#A09C99"/>
<stop offset="0.35" stop-color="white"/>
<stop offset="0.52" stop-color="#A09C99"/>
<stop offset="0.805" stop-color="#A09C99" stop-opacity="0.6"/>
<stop offset="1" stop-color="white"/>
</linearGradient>
<linearGradient id="paint13_linear_0_1" x1="-59.4799" y1="97.0061" x2="-59.4799" y2="52.9031" gradientUnits="userSpaceOnUse">
<stop stop-color="white"/>
<stop offset="0.129" stop-color="#A09C99"/>
<stop offset="0.35" stop-color="white"/>
<stop offset="0.52" stop-color="#A09C99"/>
<stop offset="0.805" stop-color="#A09C99" stop-opacity="0.6"/>
<stop offset="1" stop-color="white"/>
</linearGradient>
<linearGradient id="paint14_linear_0_1" x1="-48.1479" y1="98.5072" x2="-48.1479" y2="54.4042" gradientUnits="userSpaceOnUse">
<stop stop-color="white"/>
<stop offset="0.129" stop-color="#A09C99"/>
<stop offset="0.35" stop-color="white"/>
<stop offset="0.52" stop-color="#A09C99"/>
<stop offset="0.805" stop-color="#A09C99" stop-opacity="0.6"/>
<stop offset="1" stop-color="white"/>
</linearGradient>
<linearGradient id="paint15_linear_0_1" x1="-36.8012" y1="100.009" x2="-36.8012" y2="55.9055" gradientUnits="userSpaceOnUse">
<stop stop-color="white"/>
<stop offset="0.129" stop-color="#A09C99"/>
<stop offset="0.35" stop-color="white"/>
<stop offset="0.52" stop-color="#A09C99"/>
<stop offset="0.805" stop-color="#A09C99" stop-opacity="0.6"/>
<stop offset="1" stop-color="white"/>
</linearGradient>
<linearGradient id="paint16_linear_0_1" x1="-25.4722" y1="101.51" x2="-25.4722" y2="57.4066" gradientUnits="userSpaceOnUse">
<stop stop-color="white"/>
<stop offset="0.129" stop-color="#A09C99"/>
<stop offset="0.35" stop-color="white"/>
<stop offset="0.52" stop-color="#A09C99"/>
<stop offset="0.805" stop-color="#A09C99" stop-opacity="0.6"/>
<stop offset="1" stop-color="white"/>
</linearGradient>
<linearGradient id="paint17_linear_0_1" x1="13.8972" y1="103.007" x2="13.8972" y2="58.9039" gradientUnits="userSpaceOnUse">
<stop stop-color="white"/>
<stop offset="0.129" stop-color="#A09C99"/>
<stop offset="0.35" stop-color="white"/>
<stop offset="0.52" stop-color="#A09C99"/>
<stop offset="0.805" stop-color="#A09C99" stop-opacity="0.6"/>
<stop offset="1" stop-color="white"/>
</linearGradient>
<linearGradient id="paint18_linear_0_1" x1="50.1659" y1="104.508" x2="50.1659" y2="60.405" gradientUnits="userSpaceOnUse">
<stop stop-color="white"/>
<stop offset="0.129" stop-color="#A09C99"/>
<stop offset="0.35" stop-color="white"/>
<stop offset="0.52" stop-color="#A09C99"/>
<stop offset="0.805" stop-color="#A09C99" stop-opacity="0.6"/>
<stop offset="1" stop-color="white"/>
</linearGradient>
<linearGradient id="paint19_linear_0_1" x1="83.3192" y1="106.01" x2="83.3192" y2="61.9068" gradientUnits="userSpaceOnUse">
<stop stop-color="white"/>
<stop offset="0.129" stop-color="#A09C99"/>
<stop offset="0.35" stop-color="white"/>
<stop offset="0.52" stop-color="#A09C99"/>
<stop offset="0.805" stop-color="#A09C99" stop-opacity="0.6"/>
<stop offset="1" stop-color="white"/>
</linearGradient>
<linearGradient id="paint20_linear_0_1" x1="113.357" y1="107.509" x2="113.357" y2="63.4061" gradientUnits="userSpaceOnUse">
<stop stop-color="white"/>
<stop offset="0.129" stop-color="#A09C99"/>
<stop offset="0.35" stop-color="white"/>
<stop offset="0.52" stop-color="#A09C99"/>
<stop offset="0.805" stop-color="#A09C99" stop-opacity="0.6"/>
<stop offset="1" stop-color="white"/>
</linearGradient>
<linearGradient id="paint21_linear_0_1" x1="140.258" y1="109.009" x2="140.258" y2="64.9059" gradientUnits="userSpaceOnUse">
<stop stop-color="white"/>
<stop offset="0.129" stop-color="#A09C99"/>
<stop offset="0.35" stop-color="white"/>
<stop offset="0.52" stop-color="#A09C99"/>
<stop offset="0.805" stop-color="#A09C99" stop-opacity="0.6"/>
<stop offset="1" stop-color="white"/>
</linearGradient>
<linearGradient id="paint22_linear_0_1" x1="164.058" y1="110.508" x2="164.058" y2="66.4052" gradientUnits="userSpaceOnUse">
<stop stop-color="white"/>
<stop offset="0.129" stop-color="#A09C99"/>
<stop offset="0.35" stop-color="white"/>
<stop offset="0.52" stop-color="#A09C99"/>
<stop offset="0.805" stop-color="#A09C99" stop-opacity="0.6"/>
<stop offset="1" stop-color="white"/>
</linearGradient>
<linearGradient id="paint23_linear_0_1" x1="184.745" y1="112.009" x2="184.745" y2="67.9056" gradientUnits="userSpaceOnUse">
<stop stop-color="white"/>
<stop offset="0.129" stop-color="#A09C99"/>
<stop offset="0.35" stop-color="white"/>
<stop offset="0.52" stop-color="#A09C99"/>
<stop offset="0.805" stop-color="#A09C99" stop-opacity="0.6"/>
<stop offset="1" stop-color="white"/>
</linearGradient>
<linearGradient id="paint24_linear_0_1" x1="202.305" y1="113.509" x2="202.305" y2="69.4061" gradientUnits="userSpaceOnUse">
<stop stop-color="white"/>
<stop offset="0.129" stop-color="#A09C99"/>
<stop offset="0.35" stop-color="white"/>
<stop offset="0.52" stop-color="#A09C99"/>
<stop offset="0.805" stop-color="#A09C99" stop-opacity="0.6"/>
<stop offset="1" stop-color="white"/>
</linearGradient>
<linearGradient id="paint25_linear_0_1" x1="216.756" y1="115.008" x2="216.756" y2="70.9054" gradientUnits="userSpaceOnUse">
<stop stop-color="white"/>
<stop offset="0.129" stop-color="#A09C99"/>
<stop offset="0.35" stop-color="white"/>
<stop offset="0.52" stop-color="#A09C99"/>
<stop offset="0.805" stop-color="#A09C99" stop-opacity="0.6"/>
<stop offset="1" stop-color="white"/>
</linearGradient>
<linearGradient id="paint26_linear_0_1" x1="612.738" y1="97.0061" x2="612.738" y2="52.9031" gradientUnits="userSpaceOnUse">
<stop stop-color="white"/>
<stop offset="0.129" stop-color="#A09C99"/>
<stop offset="0.35" stop-color="white"/>
<stop offset="0.52" stop-color="#A09C99"/>
<stop offset="0.805" stop-color="#A09C99" stop-opacity="0.6"/>
<stop offset="1" stop-color="white"/>
</linearGradient>
<linearGradient id="paint27_linear_0_1" x1="601.403" y1="98.5072" x2="601.403" y2="54.4042" gradientUnits="userSpaceOnUse">
<stop stop-color="white"/>
<stop offset="0.129" stop-color="#A09C99"/>
<stop offset="0.35" stop-color="white"/>
<stop offset="0.52" stop-color="#A09C99"/>
<stop offset="0.805" stop-color="#A09C99" stop-opacity="0.6"/>
<stop offset="1" stop-color="white"/>
</linearGradient>
<linearGradient id="paint28_linear_0_1" x1="590.062" y1="100.009" x2="590.062" y2="55.9055" gradientUnits="userSpaceOnUse">
<stop stop-color="white"/>
<stop offset="0.129" stop-color="#A09C99"/>
<stop offset="0.35" stop-color="white"/>
<stop offset="0.52" stop-color="#A09C99"/>
<stop offset="0.805" stop-color="#A09C99" stop-opacity="0.6"/>
<stop offset="1" stop-color="white"/>
</linearGradient>
<linearGradient id="paint29_linear_0_1" x1="578.727" y1="101.51" x2="578.727" y2="57.4066" gradientUnits="userSpaceOnUse">
<stop stop-color="white"/>
<stop offset="0.129" stop-color="#A09C99"/>
<stop offset="0.35" stop-color="white"/>
<stop offset="0.52" stop-color="#A09C99"/>
<stop offset="0.805" stop-color="#A09C99" stop-opacity="0.6"/>
<stop offset="1" stop-color="white"/>
</linearGradient>
<linearGradient id="paint30_linear_0_1" x1="539.358" y1="103.007" x2="539.358" y2="58.9039" gradientUnits="userSpaceOnUse">
<stop stop-color="white"/>
<stop offset="0.129" stop-color="#A09C99"/>
<stop offset="0.35" stop-color="white"/>
<stop offset="0.52" stop-color="#A09C99"/>
<stop offset="0.805" stop-color="#A09C99" stop-opacity="0.6"/>
<stop offset="1" stop-color="white"/>
</linearGradient>
<linearGradient id="paint31_linear_0_1" x1="503.086" y1="104.508" x2="503.086" y2="60.405" gradientUnits="userSpaceOnUse">
<stop stop-color="white"/>
<stop offset="0.129" stop-color="#A09C99"/>
<stop offset="0.35" stop-color="white"/>
<stop offset="0.52" stop-color="#A09C99"/>
<stop offset="0.805" stop-color="#A09C99" stop-opacity="0.6"/>
<stop offset="1" stop-color="white"/>
</linearGradient>
<linearGradient id="paint32_linear_0_1" x1="469.948" y1="106.01" x2="469.948" y2="61.9068" gradientUnits="userSpaceOnUse">
<stop stop-color="white"/>
<stop offset="0.129" stop-color="#A09C99"/>
<stop offset="0.35" stop-color="white"/>
<stop offset="0.52" stop-color="#A09C99"/>
<stop offset="0.805" stop-color="#A09C99" stop-opacity="0.6"/>
<stop offset="1" stop-color="white"/>
</linearGradient>
<linearGradient id="paint33_linear_0_1" x1="439.902" y1="107.509" x2="439.902" y2="63.4061" gradientUnits="userSpaceOnUse">
<stop stop-color="white"/>
<stop offset="0.129" stop-color="#A09C99"/>
<stop offset="0.35" stop-color="white"/>
<stop offset="0.52" stop-color="#A09C99"/>
<stop offset="0.805" stop-color="#A09C99" stop-opacity="0.6"/>
<stop offset="1" stop-color="white"/>
</linearGradient>
<linearGradient id="paint34_linear_0_1" x1="412.998" y1="109.009" x2="412.998" y2="64.9059" gradientUnits="userSpaceOnUse">
<stop stop-color="white"/>
<stop offset="0.129" stop-color="#A09C99"/>
<stop offset="0.35" stop-color="white"/>
<stop offset="0.52" stop-color="#A09C99"/>
<stop offset="0.805" stop-color="#A09C99" stop-opacity="0.6"/>
<stop offset="1" stop-color="white"/>
</linearGradient>
<linearGradient id="paint35_linear_0_1" x1="389.2" y1="110.508" x2="389.2" y2="66.4052" gradientUnits="userSpaceOnUse">
<stop stop-color="white"/>
<stop offset="0.129" stop-color="#A09C99"/>
<stop offset="0.35" stop-color="white"/>
<stop offset="0.52" stop-color="#A09C99"/>
<stop offset="0.805" stop-color="#A09C99" stop-opacity="0.6"/>
<stop offset="1" stop-color="white"/>
</linearGradient>
<linearGradient id="paint36_linear_0_1" x1="368.518" y1="112.009" x2="368.518" y2="67.9056" gradientUnits="userSpaceOnUse">
<stop stop-color="white"/>
<stop offset="0.129" stop-color="#A09C99"/>
<stop offset="0.35" stop-color="white"/>
<stop offset="0.52" stop-color="#A09C99"/>
<stop offset="0.805" stop-color="#A09C99" stop-opacity="0.6"/>
<stop offset="1" stop-color="white"/>
</linearGradient>
<linearGradient id="paint37_linear_0_1" x1="347.839" y1="113.509" x2="347.839" y2="69.4061" gradientUnits="userSpaceOnUse">
<stop stop-color="white"/>
<stop offset="0.129" stop-color="#A09C99"/>
<stop offset="0.35" stop-color="white"/>
<stop offset="0.52" stop-color="#A09C99"/>
<stop offset="0.805" stop-color="#A09C99" stop-opacity="0.6"/>
<stop offset="1" stop-color="white"/>
</linearGradient>
<linearGradient id="paint38_linear_0_1" x1="336.496" y1="115.008" x2="336.496" y2="70.9054" gradientUnits="userSpaceOnUse">
<stop stop-color="white"/>
<stop offset="0.129" stop-color="#A09C99"/>
<stop offset="0.35" stop-color="white"/>
<stop offset="0.52" stop-color="#A09C99"/>
<stop offset="0.805" stop-color="#A09C99" stop-opacity="0.6"/>
<stop offset="1" stop-color="white"/>
</linearGradient>
<linearGradient id="paint39_linear_0_1" x1="612.738" y1="-16.9037" x2="612.738" y2="27.1993" gradientUnits="userSpaceOnUse">
<stop stop-color="white"/>
<stop offset="0.129" stop-color="#A09C99"/>
<stop offset="0.35" stop-color="white"/>
<stop offset="0.52" stop-color="#A09C99"/>
<stop offset="0.805" stop-color="#A09C99" stop-opacity="0.6"/>
<stop offset="1" stop-color="white"/>
</linearGradient>
<linearGradient id="paint40_linear_0_1" x1="601.403" y1="-18.403" x2="601.403" y2="25.7002" gradientUnits="userSpaceOnUse">
<stop stop-color="white"/>
<stop offset="0.129" stop-color="#A09C99"/>
<stop offset="0.35" stop-color="white"/>
<stop offset="0.52" stop-color="#A09C99"/>
<stop offset="0.805" stop-color="#A09C99" stop-opacity="0.6"/>
<stop offset="1" stop-color="white"/>
</linearGradient>
<linearGradient id="paint41_linear_0_1" x1="590.062" y1="-19.9048" x2="590.062" y2="24.1984" gradientUnits="userSpaceOnUse">
<stop stop-color="white"/>
<stop offset="0.129" stop-color="#A09C99"/>
<stop offset="0.35" stop-color="white"/>
<stop offset="0.52" stop-color="#A09C99"/>
<stop offset="0.805" stop-color="#A09C99" stop-opacity="0.6"/>
<stop offset="1" stop-color="white"/>
</linearGradient>
<linearGradient id="paint42_linear_0_1" x1="578.727" y1="-21.4046" x2="578.727" y2="22.6985" gradientUnits="userSpaceOnUse">
<stop stop-color="white"/>
<stop offset="0.129" stop-color="#A09C99"/>
<stop offset="0.35" stop-color="white"/>
<stop offset="0.52" stop-color="#A09C99"/>
<stop offset="0.805" stop-color="#A09C99" stop-opacity="0.6"/>
<stop offset="1" stop-color="white"/>
</linearGradient>
<linearGradient id="paint43_linear_0_1" x1="539.352" y1="-22.9071" x2="539.352" y2="21.196" gradientUnits="userSpaceOnUse">
<stop stop-color="white"/>
<stop offset="0.129" stop-color="#A09C99"/>
<stop offset="0.35" stop-color="white"/>
<stop offset="0.52" stop-color="#A09C99"/>
<stop offset="0.805" stop-color="#A09C99" stop-opacity="0.6"/>
<stop offset="1" stop-color="white"/>
</linearGradient>
<linearGradient id="paint44_linear_0_1" x1="503.086" y1="-24.4043" x2="503.086" y2="19.6987" gradientUnits="userSpaceOnUse">
<stop stop-color="white"/>
<stop offset="0.129" stop-color="#A09C99"/>
<stop offset="0.35" stop-color="white"/>
<stop offset="0.52" stop-color="#A09C99"/>
<stop offset="0.805" stop-color="#A09C99" stop-opacity="0.6"/>
<stop offset="1" stop-color="white"/>
</linearGradient>
<linearGradient id="paint45_linear_0_1" x1="469.948" y1="-25.9068" x2="469.948" y2="18.1963" gradientUnits="userSpaceOnUse">
<stop stop-color="white"/>
<stop offset="0.129" stop-color="#A09C99"/>
<stop offset="0.35" stop-color="white"/>
<stop offset="0.52" stop-color="#A09C99"/>
<stop offset="0.805" stop-color="#A09C99" stop-opacity="0.6"/>
<stop offset="1" stop-color="white"/>
</linearGradient>
<linearGradient id="paint46_linear_0_1" x1="439.902" y1="-27.4061" x2="439.902" y2="16.697" gradientUnits="userSpaceOnUse">
<stop stop-color="white"/>
<stop offset="0.129" stop-color="#A09C99"/>
<stop offset="0.35" stop-color="white"/>
<stop offset="0.52" stop-color="#A09C99"/>
<stop offset="0.805" stop-color="#A09C99" stop-opacity="0.6"/>
<stop offset="1" stop-color="white"/>
</linearGradient>
<linearGradient id="paint47_linear_0_1" x1="412.998" y1="-28.9066" x2="412.998" y2="15.1965" gradientUnits="userSpaceOnUse">
<stop stop-color="white"/>
<stop offset="0.129" stop-color="#A09C99"/>
<stop offset="0.35" stop-color="white"/>
<stop offset="0.52" stop-color="#A09C99"/>
<stop offset="0.805" stop-color="#A09C99" stop-opacity="0.6"/>
<stop offset="1" stop-color="white"/>
</linearGradient>
<linearGradient id="paint48_linear_0_1" x1="389.2" y1="-30.4045" x2="389.2" y2="13.6986" gradientUnits="userSpaceOnUse">
<stop stop-color="white"/>
<stop offset="0.129" stop-color="#A09C99"/>
<stop offset="0.35" stop-color="white"/>
<stop offset="0.52" stop-color="#A09C99"/>
<stop offset="0.805" stop-color="#A09C99" stop-opacity="0.6"/>
<stop offset="1" stop-color="white"/>
</linearGradient>
<linearGradient id="paint49_linear_0_1" x1="368.518" y1="-31.905" x2="368.518" y2="12.1981" gradientUnits="userSpaceOnUse">
<stop stop-color="white"/>
<stop offset="0.129" stop-color="#A09C99"/>
<stop offset="0.35" stop-color="white"/>
<stop offset="0.52" stop-color="#A09C99"/>
<stop offset="0.805" stop-color="#A09C99" stop-opacity="0.6"/>
<stop offset="1" stop-color="white"/>
</linearGradient>
<linearGradient id="paint50_linear_0_1" x1="350.955" y1="-33.4056" x2="350.955" y2="10.6976" gradientUnits="userSpaceOnUse">
<stop stop-color="white"/>
<stop offset="0.129" stop-color="#A09C99"/>
<stop offset="0.35" stop-color="white"/>
<stop offset="0.52" stop-color="#A09C99"/>
<stop offset="0.805" stop-color="#A09C99" stop-opacity="0.6"/>
<stop offset="1" stop-color="white"/>
</linearGradient>
<linearGradient id="paint51_linear_0_1" x1="336.496" y1="-34.9061" x2="336.496" y2="9.19703" gradientUnits="userSpaceOnUse">
<stop stop-color="white"/>
<stop offset="0.129" stop-color="#A09C99"/>
<stop offset="0.35" stop-color="white"/>
<stop offset="0.52" stop-color="#A09C99"/>
<stop offset="0.805" stop-color="#A09C99" stop-opacity="0.6"/>
<stop offset="1" stop-color="white"/>
</linearGradient>
<clipPath id="clip0_0_1">
<rect width="553" height="80" fill="white"/>
</clipPath>
</defs>
</svg>
